<svg width="118" height="42" viewBox="0 0 118 42" fill="none" xmlns="http://www.w3.org/2000/svg">
<g clip-path="url(#clip0)">
<path d="M27.479 21.4974C27.4326 16.3787 31.658 13.9194 31.8483 13.7985C29.471 10.3163 25.7749 9.8421 24.4562 9.78631C21.3127 9.46552 18.3178 11.6413 16.7205 11.6413C15.1232 11.6413 12.6623 9.8328 10.0527 9.88394C6.62133 9.93508 3.45925 11.8784 1.69016 14.9561C-1.87125 21.1394 0.78007 30.3121 4.25325 35.3378C5.9527 37.7925 7.97253 40.5587 10.6331 40.4564C13.1962 40.3542 14.162 38.7967 17.2545 38.7967C20.3469 38.7967 21.2198 40.4564 23.9222 40.4053C26.6757 40.3495 28.4216 37.8948 30.1071 35.4308C32.0527 32.5809 32.8559 29.8193 32.9024 29.6752C32.842 29.6519 27.5347 27.6156 27.479 21.4974Z" fill="white"/>
<path d="M22.3946 6.46225C23.8062 4.75138 24.758 2.37104 24.498 0C22.4642 0.0836839 20.0033 1.35754 18.5453 3.06841C17.2405 4.57937 16.0936 7.00155 16.4047 9.3261C18.666 9.50277 20.983 8.16847 22.3946 6.46225Z" fill="white"/>
<path d="M45.3046 26.5324L42.9644 33.6316H39.9555L47.6123 11.0648H51.1227L58.8119 33.6316H55.7009L53.2911 26.5324H45.3046ZM52.6967 24.2543L50.4912 17.7595C49.9897 16.2858 49.6554 14.9468 49.3211 13.6404H49.2561C48.9217 14.9794 48.5549 16.3508 48.1184 17.727L45.9129 24.2543H52.6967Z" fill="white"/>
<path d="M61.0918 22.7155C61.0918 20.642 61.0268 18.9636 60.9572 17.4248H63.5992L63.7338 20.2049H63.7988C65.0015 18.2291 66.9099 17.0575 69.5519 17.0575C73.4662 17.0575 76.4054 20.3723 76.4054 25.2957C76.4054 31.121 72.8626 33.9988 69.0504 33.9988C66.9099 33.9988 65.0386 33.0597 64.0682 31.4558H64.0032V40.2612H61.0918V22.7155ZM63.9985 27.0345C63.9985 27.4715 64.0635 27.8713 64.1332 28.2386C64.6671 30.2796 66.4409 31.6882 68.5489 31.6882C71.6599 31.6882 73.4662 29.1452 73.4662 25.4259C73.4662 22.1762 71.7621 19.4006 68.6511 19.4006C66.6452 19.4006 64.7739 20.8419 64.2028 23.0502C64.1007 23.4175 64.0032 23.8545 64.0032 24.2543V27.0345H63.9985Z" fill="white"/>
<path d="M79.4468 22.7155C79.4468 20.642 79.3818 18.9636 79.3121 17.4248H81.9541L82.0888 20.2049H82.1538C83.3564 18.2291 85.2648 17.0575 87.9068 17.0575C91.8211 17.0575 94.7603 20.3723 94.7603 25.2957C94.7603 31.121 91.2175 33.9988 87.4054 33.9988C85.2648 33.9988 83.3936 33.0597 82.4231 31.4558H82.3581V40.2612H79.4468V22.7155ZM82.3581 27.0345C82.3581 27.4715 82.4231 27.8713 82.4928 28.2386C83.0267 30.2796 84.8005 31.6882 86.9085 31.6882C90.0195 31.6882 91.8258 29.1452 91.8258 25.4259C91.8258 22.1762 90.1217 19.4006 87.0107 19.4006C85.0048 19.4006 83.1335 20.8419 82.5624 23.0502C82.4603 23.4175 82.3627 23.8545 82.3627 24.2543V27.0345H82.3581Z" fill="white"/>
<path d="M97.8063 9.86072H100.75V33.6316H97.8063V9.86072Z" fill="white"/>
<path d="M106.666 26.0628C106.731 30.0471 109.275 31.6882 112.214 31.6882C114.323 31.6882 115.59 31.3209 116.695 30.8514L117.197 32.9621C116.161 33.4316 114.388 33.9663 111.815 33.9663C106.833 33.9663 103.857 30.684 103.857 25.7978C103.857 20.9116 106.731 17.0575 111.448 17.0575C116.732 17.0575 118.135 21.7112 118.135 24.6913C118.135 25.2957 118.07 25.7606 118.032 26.0628H106.666ZM115.293 23.9521C115.325 22.0785 114.522 19.1635 111.212 19.1635C108.235 19.1635 106.93 21.9112 106.698 23.9521H115.293Z" fill="white"/>
</g>
<defs>
<clipPath id="clip0">
<rect width="118" height="42" fill="white"/>
</clipPath>
</defs>
</svg>
