<svg width="103" height="35" viewBox="0 0 103 35" fill="none" xmlns="http://www.w3.org/2000/svg">
<path d="M43.8318 17.9489C43.8318 22.8071 40.0488 26.387 35.4062 26.387C30.7637 26.387 26.9807 22.8071 26.9807 17.9489C26.9807 13.0565 30.7637 9.51086 35.4062 9.51086C40.0488 9.51086 43.8318 13.0565 43.8318 17.9489ZM40.1435 17.9489C40.1435 14.913 37.951 12.8359 35.4062 12.8359C32.8615 12.8359 30.669 14.913 30.669 17.9489C30.669 20.9543 32.8615 23.062 35.4062 23.062C37.951 23.062 40.1435 20.9505 40.1435 17.9489Z" fill="white"/>
<path d="M62.0083 17.9489C62.0083 22.8071 58.2253 26.387 53.5827 26.387C48.9401 26.387 45.1572 22.8071 45.1572 17.9489C45.1572 13.0603 48.9401 9.51086 53.5827 9.51086C58.2253 9.51086 62.0083 13.0565 62.0083 17.9489ZM58.32 17.9489C58.32 14.913 56.1274 12.8359 53.5827 12.8359C51.038 12.8359 48.8455 14.913 48.8455 17.9489C48.8455 20.9543 51.038 23.062 53.5827 23.062C56.1274 23.062 58.32 20.9505 58.32 17.9489Z" fill="white"/>
<path d="M79.4274 10.0206V25.1696C79.4274 31.4011 75.7694 33.9462 71.4449 33.9462C67.3741 33.9462 64.9241 31.2109 64.0001 28.9739L67.2113 27.631C67.7831 29.0043 69.1842 30.625 71.4411 30.625C74.2092 30.625 75.9246 28.9092 75.9246 25.6793V24.4658H75.7959C74.9704 25.4891 73.3799 26.3831 71.3729 26.3831C67.1734 26.3831 63.326 22.7081 63.326 17.9793C63.326 13.2163 67.1734 9.51086 71.3729 9.51086C73.3761 9.51086 74.9666 10.4049 75.7959 11.3978H75.9246V10.0245H79.4274V10.0206ZM76.1859 17.9793C76.1859 15.0081 74.213 12.8359 71.7024 12.8359C69.1577 12.8359 67.0257 15.0081 67.0257 17.9793C67.0257 20.9201 69.1577 23.062 71.7024 23.062C74.213 23.062 76.1859 20.9201 76.1859 17.9793Z" fill="white"/>
<path d="M85.2022 1.14136V25.8696H81.6048V1.14136H85.2022Z" fill="white"/>
<path d="M99.2208 20.7261L102.084 22.6435C101.16 24.0169 98.933 26.3832 95.0857 26.3832C90.3143 26.3832 86.751 22.6777 86.751 17.9451C86.751 12.9272 90.3446 9.50708 94.6729 9.50708C99.0315 9.50708 101.163 12.9919 101.86 14.875L102.243 15.8337L91.0149 20.5055C91.8745 22.1984 93.2112 23.062 95.0857 23.062C96.9639 23.062 98.2665 22.1337 99.2208 20.7261ZM90.409 17.6902L97.9144 14.5593C97.5016 13.5055 96.2596 12.7712 94.7979 12.7712C92.9234 12.7712 90.3143 14.4337 90.409 17.6902Z" fill="white"/>
<path d="M13.3635 15.7538V12.1739H25.3713C25.4887 12.7979 25.5493 13.5359 25.5493 14.3348C25.5493 17.0207 24.8185 20.3419 22.4631 22.7082C20.1721 25.1049 17.2449 26.3832 13.3673 26.3832C6.18 26.3832 0.136322 20.5017 0.136322 13.281C0.136322 6.06035 6.18 0.178833 13.3673 0.178833C17.3434 0.178833 20.1759 1.74622 22.304 3.78916L19.7896 6.31525C18.2636 4.8772 16.196 3.75872 13.3635 3.75872C8.11504 3.75872 4.01018 8.00818 4.01018 13.281C4.01018 18.5538 8.11504 22.8033 13.3635 22.8033C16.7678 22.8033 18.7066 21.4299 19.9487 20.1821C20.956 19.1701 21.6186 17.7245 21.8799 15.75L13.3635 15.7538Z" fill="white"/>
</svg>
