<svg id="svg2291" xmlns="http://www.w3.org/2000/svg" viewBox="0 0 115.19 176"><defs><style>.cls-1,.cls-2{fill:#fff;}.cls-2{fill-rule:evenodd;}</style></defs><title>al-jazeera</title><g id="g15972"><path id="path3297" class="cls-1" d="M55.07,144.73c-4.31-1.42-8.39-5.43-11.29-11.09a25.14,25.14,0,0,1-1.22-2.59c0-.33,2-1.45,2.12-1.16,0,.13.61,1.09,1.26,2.14,4.9,7.84,11.61,8.7,14.79,1.9.89-1.91,1.32-3.67,1.83-7.57.73-5.58,1.87-12.41,2.37-14.32,1.42-5.36,4.47-9.58,12.09-16.79,6.63-6.26,9.83-11.14,10.2-15.56a4.07,4.07,0,0,0,0-1.62,11.7,11.7,0,0,0-1.6,1.26c-.79.7-2.64,2.17-4.11,3.27-3.76,2.82-5.39,4.27-6.51,5.8a6.47,6.47,0,0,1-1.12,1.34A15.62,15.62,0,0,1,72.79,87a12.42,12.42,0,0,1-.92-4.27c0-1.78.31-2.5,2.12-4.75a15.21,15.21,0,0,0,3.58-9.62c0-3.65-1.6-6.82-6.28-12.45C69.2,53.39,63.16,47,62.9,47a15.66,15.66,0,0,0-.11,3.19C62.92,57.42,61.52,63,57.55,71a57.38,57.38,0,0,0-4.08,9.41,26.16,26.16,0,0,0-1.55,8.21l-.12,2.84-.94.92c-.52.51-1,.87-1.06.8-.3-.3-.57-4.65-.46-7.41.21-5.09,1.41-9.65,4.36-16.53,5.59-13,7-17.88,6.74-22.5-.13-1.92-.3-2.51-2.21-7.65a13.68,13.68,0,0,1,1.36-12.64c.64-1,.72-1.26.53-1.72-.13-.3-.62-1.44-1.1-2.53a18.14,18.14,0,0,1-1.86-8.82c0-3.47.25-4.93,1.27-7.16C59.32,4.25,61.78,2,63,2c.87,0,.74.37-.46,1.27C60,5.19,59.11,8.53,60,12.74c.9,4.37,2.7,7.47,8.65,14.9C82.7,45.2,89.78,55.5,95.33,66.49c3.53,7,5,10.64,6.41,16.47A47.42,47.42,0,0,1,103.3,99c-1,11-5.38,18.75-13,22.58a25.06,25.06,0,0,1-18.22,1.18c-2.23-.68-2.16-.53-1.64-3.62s.88-4.27,1.3-4.23c.17,0,1.23.2,2.35.41a20,20,0,0,0,14.48-3,28.26,28.26,0,0,0,4.9-4.74A26.8,26.8,0,0,0,98,97.9a37.92,37.92,0,0,0,.52-11.23,45.66,45.66,0,0,0-2.74-9.14c-4.49-11-12.31-22.71-29.22-43.87-.76-.95-2.16-2.78-3.11-4a18.51,18.51,0,0,0-1.89-2.33c-.29,0-1.27,1.67-1.64,2.8a7.1,7.1,0,0,0-.26,2.78c.19,3.23,1.55,5.25,8.37,12.41a71.48,71.48,0,0,1,8.6,10.36c3.86,5.88,5.25,11.77,3.94,16.64a2.4,2.4,0,0,0-.14,1c.29.29,4.45-3.48,5.7-5.17.43-.58.85-1,1-.86a64.63,64.63,0,0,1,2.12,8.59A41.24,41.24,0,0,1,90,85.22a14.42,14.42,0,0,1-2,7.11c-1.49,2.88-3.47,5.3-9.2,11.25s-7.66,8.33-8.38,10.24a60.86,60.86,0,0,0-2.06,11.46c-.73,7.07-1.42,12-1.94,13.75a8.21,8.21,0,0,1-4.16,5.41,6.37,6.37,0,0,1-3.51.77A8.45,8.45,0,0,1,55.07,144.73Z" transform="translate(-2.4 -2)"/><path id="path3295" class="cls-1" d="M76.77,135.74c-1.64-.81-2.82-2.58-4.07-6.09-.43-1.23-.53-1.75-.36-1.93.38-.37.8.11,1.31,1.51.66,1.76,1.36,2.91,2,3.26a1,1,0,0,0,1.19,0c.51-.25.65-.46.7-1.11.13-1.53,1-.73,1.64,1.55.47,1.61.44,1.9-.28,2.62S78,136.33,76.77,135.74Z" transform="translate(-2.4 -2)"/><path id="path3291" class="cls-1" d="M46.12,38.13a4.39,4.39,0,0,0,4.35,4.35,4.34,4.34,0,0,0,2.82-1l.57-.4-.09,1.5c-.11,2-.86,3.49-2.7,5.48-2,2.15-3.92,3.54-10.23,7.35-8.63,5.22-11.56,7.27-14.66,10.27a28.39,28.39,0,0,0-8,13.42c-1.67,6.69-1.13,13.12,1.69,20.52.81,2.11.83,2.23.95,5.83.32,9.56,2.72,16.14,7.69,21.08a12.59,12.59,0,0,0,7.83,4.07,14.74,14.74,0,0,0,2.44.08c7.21-.61,10.36-6.57,11.9-22.53a39,39,0,0,1,.61-4.47c.16-.46,1.59-1.91,4.38-4.46,4.38-4,5.26-5.15,5.26-6.83a62.81,62.81,0,0,0-1.06-7.41c-.07-.09-.57.44-1.1,1.17a67,67,0,0,1-7.42,7.2c-2.42,2.12-2.88,3.24-3.7,9.09C46.22,112.59,44.4,118,41.34,121a9.66,9.66,0,0,1-11,1.71c-3.67-1.86-6.38-7.43-6.71-13.76l-.13-2.49L25.15,108c2.22,2.08,4,3,6,3s2.41-.18,3.36-1c1.39-1.22,2-3.17,2-6.1,0-5.85-3.14-12.87-6.57-14.67a4.77,4.77,0,0,0-4.55.17,8.83,8.83,0,0,0-3.19,4.43,5.13,5.13,0,0,1-.7,1.51c-.4.2-.78-2.46-.79-5.51a23.31,23.31,0,0,1,.45-5.22c1.25-6.1,3.66-10.45,8.43-15.2,3.22-3.22,6.55-5.75,14-10.67,5.76-3.8,8.23-5.85,9.59-8,.61-.94.73-1,.79-.63.2,1.44-1.54,5.91-5.54,14.2a121.64,121.64,0,0,0-6,13.74,77.52,77.52,0,0,0-4.12,16.41A97.77,97.77,0,0,0,38,110c.26,4.14,1.18,10.61,1.55,11,.14.15.45,0,.94-.53l.74-.75-.39-2.37a66.33,66.33,0,0,1,1.62-27.72c1.79-6.79,3.93-12.2,9-22.74C56,57.55,56.76,54.41,56.55,47c-.18-6.19-1-9.8-2.65-11.64a4,4,0,0,0-3.11-1.52C47.73,33.79,46.12,35.77,46.12,38.13ZM29.94,96.46a2.81,2.81,0,0,1,1.19.31,4.9,4.9,0,0,1,1.93,2.89,4.73,4.73,0,0,1-.64,1.66A3.57,3.57,0,0,1,30.65,103a5.6,5.6,0,0,1-4.83.06c-1.66-.77-1.71-.92-1-2.47C26.06,98,28.13,96.41,29.94,96.46Z" transform="translate(-2.4 -2)"/><path id="path3285" class="cls-1" d="M60.91,115.75a39.3,39.3,0,0,1-7.46-10.51l-.82-1.67.95-1a4.49,4.49,0,0,1,1.2-1,3.94,3.94,0,0,1,1.09,1.24,49.1,49.1,0,0,0,6.64,6.91c1.31,1.08,1.46,1.28,1.33,1.77-.08.31-.37,1.67-.65,3a23.36,23.36,0,0,1-.62,2.57A7.6,7.6,0,0,1,60.91,115.75Z" transform="translate(-2.4 -2)"/><path id="path3279" class="cls-1" d="M31.68,82c-.79-.82-1-1.86-.77-3.72a8.49,8.49,0,0,1,1-3c1.42-2.71,5.91-6.66,5.91-5.2a20.92,20.92,0,0,1-2,2.24c-3,3.1-4,5.37-2.92,6.74.75.95,2.14.68,2.14-.42,0-.61.72-1.5,1-1.3s.31.92-.06,2.16C35.16,82.21,33.07,83.44,31.68,82Z" transform="translate(-2.4 -2)"/><path id="path3277" class="cls-1" d="M61.59,79c-.55-2-.38-2.24,4.94-8,2.18-2.36,4.25-4.67,4.58-5.13.66-.89.69-.88,1,.66A2.27,2.27,0,0,1,72,68.21a53.92,53.92,0,0,1-4.35,5.13c-2.2,2.39-4.34,4.82-4.75,5.39a4.87,4.87,0,0,1-.91,1C61.89,79.79,61.72,79.43,61.59,79Z" transform="translate(-2.4 -2)"/><path id="path3326" class="cls-1" d="M49.17,45.53a4.35,4.35,0,1,1-8.69,0h0a4.35,4.35,0,1,1,8.69,0Z" transform="translate(-2.4 -2)"/><rect id="rect3340" class="cls-1" x="63.91" y="91.37" width="7.16" height="6.2" transform="translate(-49.34 112.11) rotate(-64.19)"/><rect id="rect3344" class="cls-1" x="82.2" y="103.07" width="7.16" height="6.2" transform="translate(-49.55 135.18) rotate(-64.19)"/><rect id="rect3346" class="cls-1" x="52.29" y="117.92" width="7.25" height="6.2" transform="translate(-75.57 85.68) rotate(-50.72)"/><rect id="rect3348" class="cls-1" x="51.2" y="127.68" width="7.25" height="6.2" transform="translate(-83.52 88.42) rotate(-50.72)"/></g><g id="g16954"><path id="path3350" class="cls-2" d="M7.39,158.32l-5,14.21H6.09L7,170H11.7l.72,2.54h3.89l-4.9-14.21Zm2,4.16,1.34,4.21H8Z" transform="translate(-2.4 -2)"/><path id="path5294" class="cls-2" d="M41.19,158.32l-5,14.21h3.68l.86-2.54h4.76l.71,2.54h3.89l-4.89-14.21Zm2,4.16,1.35,4.21h-2.7Z" transform="translate(-2.4 -2)"/><path id="path5296" class="cls-2" d="M108.67,158.32l-5,14.21h3.68l.87-2.54H113l.72,2.54h3.89l-4.9-14.21Zm2,4.16,1.34,4.21h-2.69Z" transform="translate(-2.4 -2)"/><path id="path5298" class="cls-2" d="M18.8,172.5h8.09v-3H22.33V158.33h-3.5Z" transform="translate(-2.4 -2)"/><path id="path6269" class="cls-2" d="M66,158.33V172.6h9.55v-2.92H69.46V167h4.75v-2.89H69.49v-2.79H75.1v-3Z" transform="translate(-2.4 -2)"/><path id="path7240" class="cls-2" d="M78.7,158.33V172.6h9.55v-2.92H82.16V167h4.76v-2.89H82.2v-2.79h5.6v-3Z" transform="translate(-2.4 -2)"/><path id="path7242" class="cls-2" d="M52.81,158.33v3h5.06L52.61,169v3.6H62.7v-3.09H57.4l5.16-7.58v-3.6Z" transform="translate(-2.4 -2)"/><path id="path8213" class="cls-2" d="M30.31,158.3H33.9v14.61a5.49,5.49,0,0,1-1.31,3.94c-2.14,2.35-6,.37-6,.37l.81-3a2.17,2.17,0,0,0,1.15.34,2.05,2.05,0,0,0,1.78-2.11Z" transform="translate(-2.4 -2)"/><path id="path11122" class="cls-2" d="M91.41,158.33v14.2H95v-5.3c.84,0,1.43-.09,1.8.35a50,50,0,0,1,2.14,4.95h3.68l-2.21-5.64s-.47-1.14-1-1.14c.54-.38,1.21-.93,1.21-.93s1-.6,1-2.57a3.65,3.65,0,0,0-3.46-3.92Zm3.54,3h1.73A1.44,1.44,0,0,1,98,162.78a1.39,1.39,0,0,1-1.27,1.39H95Z" transform="translate(-2.4 -2)"/></g></svg>