<svg id="Layer_1" data-name="Layer 1" xmlns="http://www.w3.org/2000/svg" viewBox="0 0 187.09 137.17"><defs><style>.cls-1{fill:#fff;fill-rule:evenodd;}</style></defs><title>albertsons</title><path class="cls-1" d="M110.68,0S65.1,54.16,47.23,74.94C42.67,80.78,41.76,90.26,45,97a30.7,30.7,0,0,0,3.28,5.1l-36.47-.18c-5.1-6-8.39-14-6.2-21.15,1.28-5.11,5.29-8.75,8.57-13C33.55,45,52.7,22.61,72,0Z"/><path class="cls-1" d="M114.33.55c21.52,25.53,41,49.23,62.55,74.76,3.64,5.1,4.74,13.49,1.82,19.51a17.85,17.85,0,0,1-5.65,7.48c-12,0-24.26.18-36.11,0,5.11-5.47,6.57-14.77,3.65-22.25-2.37-6-7.84-10.39-11.85-15.86L94.82,23.89v-.37c6.56-7.47,13-15.13,19.33-23Z"/><path class="cls-1" d="M102.3,46.5c3.46,6.38,2.55,15.32-1.65,20.6-2.73,4.38-6,8.57-8.2,13.13-3.65-9.66-14.22-16.77-11.12-29,2-7.29,7.65-12.58,11.3-19,3.28,4.74,6.75,9.48,9.67,14.22Z"/><path class="cls-1" d="M81.69,71.11A25.67,25.67,0,0,1,92.63,86.43a24.69,24.69,0,0,1,20.79-19c5.1-.18,10.58,0,15.68,0a20,20,0,0,1-7.84,19.87c-4.92,4-11.67,4.2-18.23,4.2a13.16,13.16,0,0,0-10,8.93c-.19.55-.37.91-.55,1.46h0a12.59,12.59,0,0,0-8.39-9.85c-5.47-1.27-11.85,0-16.77-2.73A20.75,20.75,0,0,1,55.8,72.57,25.48,25.48,0,0,1,56,67.29c8.94.18,18.78-1.28,25.71,3.82Z"/><path class="cls-1" d="M100.29,112.33c.36,1.45-.36,3.09.36,4.19,1.1.36,2.56-.18,3.1.91a8.42,8.42,0,0,1,0,2.19c1.46-3.83,6-3.65,9.85-3.65,2,0,4.38.37,5.65,2a5.76,5.76,0,0,1-2.18,5.29,2,2,0,0,1-2,.36c-.55-.18-.91-.18-1.09-.73.18-.91,1.27-2.19.36-3.28-.73-.73-2.37-.73-3.46-.37-.55.19-.73.73-.92,1.1-.36,1.64.73,2.37,2,2.92,3.1,1.45,7.66,2,8,6.38,0,2.55-.36,5.1-2.55,6.38-3.46,1.82-8.75,1.09-12.4.18-2-.91-1.82-3.64-1.64-5.65a1.46,1.46,0,0,1,.91-.91,2.43,2.43,0,0,1,1.83,1.09c.72,2.19,2.73,2.55,4.74,2.92a2.91,2.91,0,0,0,2.73-.37c.37-.54.18-1.09.37-1.82-1.65-2.19-4.93-2.37-7.3-3.83a4.65,4.65,0,0,1-2.73-3.1,21.93,21.93,0,0,1-.19-4.92c-.72,1.46-3.1.55-3.82,1.82a56,56,0,0,0,.18,11.13c.54,1.64,2.92,1.27,2.19,3.28-1.46,1.46-4,.73-6,.91-1.46-.18-3.1-.73-3.65-2.19-.55-2.19-.18-4.38,0-6.56v-6c-.73-1.46-2.73-.73-3.83-1.09-1.46.18-3.1.18-4,1.45l-.55.92c-.18,3.83-.73,6.92.19,10.39.18.73,1.09,1.09.91,2-2.19,2.37-5.65.72-8.21,1.09-.54-.18-1.46-.37-1.64-1.09-.18-1.1,1.1-1.46,1.28-2.56.36-3.83.18-8.2.18-12,.36-1.83-2.92-2.37-1.09-4a14.66,14.66,0,0,1,6.92-.55c1.1.73.37,2,.92,2.92,1.09-.92,2-2,3.46-2.37,2-.73,4.74.54,6.38-1.28,2-1.28,3.47-2.74,5.29-4a1.15,1.15,0,0,1,1.46.55Z"/><path class="cls-1" d="M34.46,109.41c.19,4.37-.18,8.57-.18,12.94a100.26,100.26,0,0,0,.18,10.4c0,1.46,2.56,2.19.91,3.46a4.73,4.73,0,0,1-2.18.55l-15.68-.18c-.55-.19-1.46-.55-1.28-1.28.18-1.09,1.46-2,.91-3.1-.55-1.46-.36-3.28-1.28-4.74-2.73-.36-6,.55-7.47-2.37l-.37.18c-.73,2.92-2.55,5.65-2,8.94a2,2,0,0,1,.73,1.64c-1.1,1.46-3.29.54-4.93.73-.73-.37-1.46-.37-1.82-1.1l.18-1.27h0c2.74-7.3,5.47-14.41,8-21.52.36-1.28-1.65-2.74,0-3.65,3.1-.36,6.74-.54,9.48.55l.73,1.09c2.19,7.12,4,14.23,5.83,21.52.37.73.73,2,2,2a3,3,0,0,0,.91-1.83A91.8,91.8,0,0,0,27,115.06c0-1.28-2.37-2.19-.91-3.65l6.56-2.73c.73,0,1.64,0,1.82.73Zm-23.15,6.2c-1.1,2.19-1.46,4.74-2.19,7.11.91.91,2.55.36,3.83.55.73-.19,2,.36,2-.73-.36-2.19-1.09-4.38-1.46-6.57a1.5,1.5,0,0,0-2.18-.36Z"/><path class="cls-1" d="M179.79,117.07c1.46.91.55,3.1.37,4.55a4.15,4.15,0,0,1-3.65,2.19c-.36-.18-.91.19-1.09-.36-.55-1.28,1.46-3.28-.37-4.38a3.52,3.52,0,0,0-2.73.37,2,2,0,0,0-.55,2.18c2.55,3.83,9.3,2.19,10,7.48.36,2.74-.37,5.47-2.37,6.75a19.65,19.65,0,0,1-13.31.18c-.37,0-.55-.55-.91-.55-1.83,1.83-4.93,1.1-7.48,1.1-2-.19-2-2.56-2.55-4-1.1-3.47-1.46-7.3-3.1-10.58a2,2,0,0,0-2-.37,2.52,2.52,0,0,0-.91,1.46,86.83,86.83,0,0,0,.36,9.67c0,1.27,2,1.64,1.28,3.1-.73,1.27-2.37.91-3.83.91-1.82-.18-4,.36-5.29-.91-.36-1.1.55-1.83.91-2.56.37-3.82,0-7.84,0-12,.19-1.64-3.28-3.1-.54-4.19,2.19-.73,5.1-1.28,6.93-.37.36.55,0,1.64.73,1.64,2.37-1.27,5.28-3.46,8.2-1.82.91.73.91,2.19,1.64,3.1,1.1,4.38,2.19,8.75,3.47,13.13a2.9,2.9,0,0,0,1.64,1.64c.55-1.46-.55-2.92.55-4,2.55-.91,2.55,2.91,4.92,2.91,1.46.37,3.46.92,4.74,0a2,2,0,0,0,.55-2c-1.64-2-4.56-1.64-6.57-2.92-1.46-.73-3.1-1.64-3.64-3.28-.37-2.37-.55-4.74.54-6.93,2.74-2.55,6.75-2.37,10.4-2.19,1.27.37,2.55.37,3.64,1.1Z"/><path class="cls-1" d="M138.76,119.07a31.06,31.06,0,0,1,1.46,13.68,4.61,4.61,0,0,1-2.91,3.64c-3.1,1.28-7.12.55-10.76.73a6.3,6.3,0,0,1-4.93-4.55c-.91-4.56-1.64-10.76,1.1-14.59,3.46-3.1,9.3-2.19,13.49-1.28a6.36,6.36,0,0,1,2.55,2.37Zm-9.84.37c-1.28.54-1.1,2.18-1.28,3.28.18,3.65-.18,7.47,1.64,10.57a3.29,3.29,0,0,0,2.92.37,2.21,2.21,0,0,0,1.64-1.46,41.67,41.67,0,0,0-1.27-11.85c-.55-1.46-2.38-1.1-3.65-.91Z"/><path class="cls-1" d="M44.67,110.14c.37,2.55-.18,5.28.19,7.84,1.64-.18,2.55-1.46,4.19-1.64a3.45,3.45,0,0,1,2.74.73c3.1,3.83,4.19,9.11,3.83,14.4A5.13,5.13,0,0,1,52.15,136c-4,1.28-9.12.55-13.68.73-.36-.37-1.27-.37-1.45-.91-.19-.91.54-1.46.73-2.19a118.43,118.43,0,0,0,0-17.87c.18-1.28-1.83-1.09-1.1-2.55a20.89,20.89,0,0,1,6.75-3.83,1.21,1.21,0,0,1,1.27.73Zm1.1,11.12a1.16,1.16,0,0,0-1.1.91c-.72,2-.18,4.74-.36,7.11a6.49,6.49,0,0,0,.73,4.2,4,4,0,0,0,2.55.18A1.75,1.75,0,0,0,49.05,132a17,17,0,0,0-2-10.4,1.06,1.06,0,0,0-1.28-.36Z"/><path class="cls-1" d="M73.3,119.25a9.78,9.78,0,0,1,1.28,6.57c-.37,1.28-1.82,1.46-2.92,2,.37.55,1.28.73,1.83,1.1,1.27.55.91,2,.91,3.1a6.18,6.18,0,0,1-3.83,4.37,18.54,18.54,0,0,1-9.48-.18c-1.83-.36-2.74-2.19-3.29-3.64a25.41,25.41,0,0,1,.73-13.32c1.64-3.64,6.2-3.28,9.85-3.1a5.83,5.83,0,0,1,4.92,3.1Zm-7.47-.18c-.55,0-1.1.55-1.46,1.1a11.11,11.11,0,0,0-.18,6c1.45.55,3.1-.18,4.19-.91a7.58,7.58,0,0,0-.55-5.65,2.58,2.58,0,0,0-2-.55ZM70,128.55a17,17,0,0,0-5.29,1.1.67.67,0,0,0-.73.73c.19,1.46.55,2.91,2,3.64a4.86,4.86,0,0,0,3.28-.54,4.56,4.56,0,0,0,1.28-4.2l-.55-.73Z"/><path class="cls-1" d="M182,115.79a2.56,2.56,0,0,1,5.11,0,2.56,2.56,0,0,1-5.11,0Zm4.92,0a2.41,2.41,0,0,0-2.37-2.37,2.26,2.26,0,0,0-2.18,2.37,2.1,2.1,0,0,0,2.18,2.19,2.26,2.26,0,0,0,2.37-2.19Zm-1.09,1.46h-.36l-.92-1.46H184v1.46h-.37v-2.92h1.28a1.11,1.11,0,0,1,.73.18c.18,0,.18.37.18.55,0,.55-.36.73-.91.73l.91,1.46Zm-1.28-1.64c.37,0,1.1,0,1.1-.55,0-.36-.55-.55-.91-.55H184v1.1Z"/></svg>