<svg id="Layer_1" data-name="Layer 1" xmlns="http://www.w3.org/2000/svg" viewBox="0 0 1426.54 225.6"><defs><style>.cls-1{fill:#fff;}</style></defs><title>doubleclick</title><path class="cls-1" d="M.27,222V11.79H58.94a93.09,93.09,0,0,1,35.91,6.85,79.53,79.53,0,0,1,28.51,19.19A89.14,89.14,0,0,1,142,68c4.38,11.79,6.3,24.67,6.3,39.48v19.18c0,14.26-1.92,27.69-6.3,39.48a93.46,93.46,0,0,1-18.64,30.15c-7.68,8.5-17.82,14.8-28.51,19.19a101,101,0,0,1-37,6.85H0V222ZM18.09,27.14v180.1h40a75.86,75.86,0,0,0,30.71-6A72.62,72.62,0,0,0,112.12,185c6.3-6.85,11.24-15.9,14.8-25.76s4.93-20.84,4.93-32.63V106.91a96.81,96.81,0,0,0-5.48-33.17,73.9,73.9,0,0,0-14.8-25.22A65,65,0,0,0,88.82,32.35a73.18,73.18,0,0,0-29.61-6H18.37v.82ZM169.68,141.72c0-11.24,1.37-21.65,4.94-31.52A78.32,78.32,0,0,1,188.87,85a62.92,62.92,0,0,1,22.2-16.18,70,70,0,0,1,28.51-6c11,0,20.29,1.92,29.06,6A68.17,68.17,0,0,1,290.84,85a64,64,0,0,1,13.71,25.22c3.56,9.87,4.93,20.28,4.93,31.52v4.94c0,11.23-1.37,21.65-4.93,31.52a88.76,88.76,0,0,1-13.71,25.22,62.89,62.89,0,0,1-22.2,16.17,69.84,69.84,0,0,1-28.51,6c-10.14,0-20.28-1.92-28.51-6a68.24,68.24,0,0,1-22.2-16.17,72.92,72.92,0,0,1-14.26-25.22c-3.56-9.87-4.93-20.29-4.93-31.52v-4.94ZM187,146.66a82.6,82.6,0,0,0,3.57,24.67,67.45,67.45,0,0,0,10.41,20.28,45.62,45.62,0,0,0,16.18,13.71,46.57,46.57,0,0,0,22.75,5.48,48.14,48.14,0,0,0,22.75-5.48,52,52,0,0,0,16.17-13.71,74.68,74.68,0,0,0,10.42-20.28,81.3,81.3,0,0,0,3.56-24.67v-4.94a79,79,0,0,0-3.56-24.12,61.66,61.66,0,0,0-10.42-20.29c-4.38-6-9.87-10.41-16.72-14.25a46.57,46.57,0,0,0-22.75-5.48,44.43,44.43,0,0,0-22.2,5.48,53.75,53.75,0,0,0-16.18,14.25,74.71,74.71,0,0,0-10.41,20.29A80.28,80.28,0,0,0,187,141.72v4.94ZM436.68,202.3c-4.94,6.86-11.24,12.89-19.74,16.72s-18.37,6-30.15,6c-8,0-14.81-1.09-20.84-3.56a35.19,35.19,0,0,1-16.17-10.42,51.87,51.87,0,0,1-10.42-18.36c-2.46-7.4-3.56-16.72-3.56-27.14v-100h17.27v100.6c0,8.5,1.1,15.35,3,20.83a34.14,34.14,0,0,0,8,13.43c3.56,3.57,6.85,6,11.23,7.41A44.87,44.87,0,0,0,389,209.7a74.55,74.55,0,0,0,18.37-2.46,45.2,45.2,0,0,0,13.7-6.31,39.33,39.33,0,0,0,9.32-9.87,63.79,63.79,0,0,0,6-12.33V65.79h17.27V222.31H437ZM617.6,145.56a126.83,126.83,0,0,1-3.84,32.07c-2.47,9.87-6.3,18.37-11.79,25.22A52.78,52.78,0,0,1,583.33,219a54.35,54.35,0,0,1-25.22,6c-11.23,0-21.1-1.91-29.6-6.3s-14.8-10.42-20.29-17.82L507.68,222h-15.9V0h17.27V88.27c5.48-8,11.78-14.26,19.73-18.64s17.82-6.86,29.06-6.86a60.13,60.13,0,0,1,25.77,5.49c7.4,3.83,13.7,8.77,18.64,16.17,4.93,6.85,8.77,15.35,11.79,25.22a136.47,136.47,0,0,1,3.83,33.17v3h-.27v-.27Zm-17.27-3a155,155,0,0,0-2.47-25.76c-1.92-8-4.38-14.81-8.5-20.84a39.92,39.92,0,0,0-14.25-13.7c-5.76-3.29-12.88-4.94-20.83-4.94A65.51,65.51,0,0,0,537,79.77c-4.94,1.92-9.32,3.84-12.89,6.85A42.62,42.62,0,0,0,514.8,97a81.16,81.16,0,0,0-6,11.79v70.45c1.92,3.83,3.84,7.95,6.85,11.78,3,3.57,6,6.86,9.87,9.32a46.9,46.9,0,0,0,12.89,6.31,60.51,60.51,0,0,0,16.17,2.47c8,0,14.8-1.37,20.29-4.94a42.64,42.64,0,0,0,14.25-13.7c3.84-6,6.3-12.89,8.5-20.29,1.92-7.95,2.46-16.17,2.46-25.77ZM665,222H647.75V0H665Zm101.15,3c-10.41,0-19.73-1.91-28.23-6s-15.9-8.77-22.21-15.9A68.69,68.69,0,0,1,701.48,179,86.09,86.09,0,0,1,696,148.3V142c0-11.79,1.92-23.3,5.48-32.63a74,74,0,0,1,14.8-25.21,64.82,64.82,0,0,1,21.11-15.9,58.82,58.82,0,0,1,25.77-5.49,63.92,63.92,0,0,1,26.59,5.49,49.48,49.48,0,0,1,19.19,14.8,63.91,63.91,0,0,1,11.78,22.75,105.28,105.28,0,0,1,3.84,28.51v10.42H713v3.56a76.57,76.57,0,0,0,3.84,24.12,60.22,60.22,0,0,0,11,19.74,65.37,65.37,0,0,0,16.72,13.43c6.3,3.57,13.7,4.94,21.65,4.94,9.32,0,17.27-1.37,24.67-4.94A58,58,0,0,0,810,189.42l11,8.5a81.32,81.32,0,0,1-8.77,11,52.64,52.64,0,0,1-11.79,8.77,77.56,77.56,0,0,1-15.35,6A129.15,129.15,0,0,1,766.17,225.05ZM762.88,77.58a46,46,0,0,0-18.36,3.83,43.59,43.59,0,0,0-14.81,11A49.62,49.62,0,0,0,719.3,109.1c-3,6.31-4.39,13.71-5.48,21.66h93.75v-1.92c0-6.31-1.37-12.89-3-19.19a56.77,56.77,0,0,0-8.5-16.17,41.31,41.31,0,0,0-13.7-11.24C776.59,79,770.29,77.58,762.88,77.58Zm244.25,78.94a87.17,87.17,0,0,1-7.4,28.51c-3.84,8.5-8.78,15.9-15.36,21.66-6.3,6-14.25,10.42-23.3,13.43a95.13,95.13,0,0,1-31,4.93,79.79,79.79,0,0,1-32.62-6.85A69.34,69.34,0,0,1,872.26,199a93.13,93.13,0,0,1-16.17-30.15c-3.84-11.79-5.49-24.67-5.49-38.38V103.89A133.27,133.27,0,0,1,856.09,65c3.83-11.79,8.77-21.66,16.17-30.16a66.58,66.58,0,0,1,25.22-19.18,81.82,81.82,0,0,1,33.44-6.86c11.24,0,21.11,1.37,30.15,4.39a65.5,65.5,0,0,1,23.3,13.43c6.31,6,11.24,13.43,15.36,21.66a94.42,94.42,0,0,1,7.4,29.05H989.31a79.26,79.26,0,0,0-6-22.75c-3-6.85-6.31-12.34-11.24-16.72a51.91,51.91,0,0,0-17.27-10.42C947.92,25,940,23.85,931.2,23.85c-9.87,0-18.65,1.92-26.05,6a56.44,56.44,0,0,0-19.73,16.17c-5.49,6.86-9.32,15.35-12.34,25.22a112,112,0,0,0-4.38,32.62v26.59a134,134,0,0,0,3.83,32.08c2.47,9.86,6.31,18.36,11.79,25.21s11.79,12.89,19.19,16.73a56.23,56.23,0,0,0,26,6c18.64,0,32.62-4.39,41.94-13.44,9.32-8.77,15.35-22.2,17.27-40h18.37v-.55ZM1057.84,222h-17.27V0h17.27Zm42.49-201.21a12.87,12.87,0,0,1,3-8.49c1.92-2.47,4.94-3.57,8.78-3.57a11.19,11.19,0,0,1,8.77,3.57c1.92,2.46,3.56,4.93,3.56,8.49a11,11,0,0,1-3.56,8.5,12.35,12.35,0,0,1-8.77,3.56,11.19,11.19,0,0,1-8.78-3.56A13.47,13.47,0,0,1,1100.33,20.83ZM1120.61,222h-17.27V65.52h17.27Zm96.22-11.79a60.26,60.26,0,0,0,15.9-2.46,41.69,41.69,0,0,0,13.43-6.86,38.81,38.81,0,0,0,9.87-11.24c2.47-4.38,3.84-9.87,4.39-15.9h16.72a60.24,60.24,0,0,1-5.48,20.84,55.13,55.13,0,0,1-13.44,16.17,83.24,83.24,0,0,1-18.64,11,68.47,68.47,0,0,1-22.75,3.83c-11,0-20.83-1.92-29.06-6a51.9,51.9,0,0,1-20.83-16.72,78,78,0,0,1-12.88-24.67,100,100,0,0,1-4.39-30.7v-6a101.2,101.2,0,0,1,4.39-30.7c3-9.32,6.85-17.82,12.88-24.68a63.22,63.22,0,0,1,20.83-16.72,68.1,68.1,0,0,1,28.51-6,70.27,70.27,0,0,1,23.3,3.84,49.29,49.29,0,0,1,18.64,11.24c5.49,4.93,9.32,11,12.89,17.82a69.33,69.33,0,0,1,5.48,23.3h-16.72a69,69,0,0,0-3.84-17.27,44.44,44.44,0,0,0-9.32-12.89A46.29,46.29,0,0,0,1233,80.87a47.6,47.6,0,0,0-16.72-3c-8.77,0-16.72,1.92-22.75,5.48A53.13,53.13,0,0,0,1178.18,97a63.69,63.69,0,0,0-8.5,20.28c-1.92,7.41-2.47,15.9-2.47,23.58v6a138.35,138.35,0,0,0,2.47,24.12,49.93,49.93,0,0,0,8.5,20.29,37.2,37.2,0,0,0,15.35,13.7c6.31,3.84,13.71,5.21,23.3,5.21Zm125.82-66.61-19.73,19.19v59.76h-17.27V.55h17.27v142l16.17-17.81,59.76-58.67h21.65l-66.06,66.34,72.1,90.19H1405.7Z"/></svg>