<svg id="Layer_1" data-name="Layer 1" xmlns="http://www.w3.org/2000/svg" viewBox="0 0 216.06 42.76"><defs><style>.cls-1{fill:#fff;}</style></defs><title>facebook</title><path class="cls-1" d="M111.23,20.77A9.8,9.8,0,0,0,106.86,22V35.44a30.72,30.72,0,0,0,3.15.11c4.28,0,4.87-2,4.87-4.69V24.41C114.88,22.39,114.21,20.77,111.23,20.77ZM82.79,20c-3,0-3.65,1.63-3.65,3.65v1.14h7.3V23.68C86.44,21.66,85.76,20,82.79,20Zm-55.09,14a2.13,2.13,0,0,0,2.42,2.43,8.87,8.87,0,0,0,4.15-1.18v-3.2H30.36C28.51,32.12,27.7,32.46,27.7,34.07Zm111.19-13.3c-3,0-4,1.62-4,3.64v7.38c0,2,1,3.66,4,3.66s4-1.63,4-3.66V24.41C142.9,22.39,141.86,20.77,138.89,20.77ZM13.12,42.34H4.37V21.17H0v-7.3H4.37V9.49C4.37,3.54,6.84,0,13.85,0h5.84V7.3H16c-2.73,0-2.91,1-2.91,2.92v3.65h6.61L19,21.17H13.12ZM43,42.4H35.73l-.32-1.85a16.67,16.67,0,0,1-8.26,2.15C21.8,42.7,19,39.12,19,34.19c0-5.83,3.32-7.91,9.26-7.91h6.05V25c0-3-.35-3.85-4.92-3.85H21.87l.73-7.3h8.18C40.82,13.87,43,17,43,25.08ZM67.81,21.7a42.19,42.19,0,0,0-8-.94c-3.93,0-5.11.86-5.11,4.19v6.3c0,3.33,1.18,4.2,5.11,4.2a41.05,41.05,0,0,0,8-1v7.12a38.81,38.81,0,0,1-8.75,1.13c-9.39,0-13.13-4.94-13.13-12.08V25.55c0-7.14,3.74-12.09,13.13-12.09a38.81,38.81,0,0,1,8.75,1.13Zm27.38,9h-16v.59c0,3.33,1.19,4.2,5.11,4.2a50.38,50.38,0,0,0,10.2-1v7.12a46,46,0,0,1-10.93,1.13c-9.39,0-13.12-4.94-13.12-12.08V24.82c0-6.24,2.77-11.36,12.39-11.36s12.4,5.06,12.4,11.36Zm28.43.14c0,6.89-2,11.92-13.91,11.92a66.25,66.25,0,0,1-11.6-1.11V2.19L106.86.73V14.52a19.88,19.88,0,0,1,6.56-1.06c8.75,0,10.2,3.92,10.2,10.22Zm28,.15c0,5.95-2.46,11.72-12.74,11.72S126.14,36.9,126.14,31V25.2c0-5.95,2.5-11.72,12.78-11.72s12.74,5.77,12.74,11.72Zm28,0c0,5.95-2.46,11.72-12.73,11.72S154.15,36.9,154.15,31V25.2c0-5.95,2.5-11.72,12.79-11.72s12.73,5.77,12.73,11.72Zm28.75,11.39h-9.48l-8-13.38V42.34h-8.75V2.19L190.92.73V26.58l8-12.71h9.48l-8.75,13.87ZM166.91,20.77c-3,0-4,1.62-4,3.64v7.38c0,2,1,3.66,4,3.66s4-1.63,4-3.66V24.41C170.92,22.39,169.87,20.77,166.91,20.77Z"/><path class="cls-1" d="M213.41,37.35a2.71,2.71,0,1,1-2.68,2.7,2.67,2.67,0,0,1,2.68-2.7Zm0,.42a2.29,2.29,0,1,0,2.17,2.29,2.22,2.22,0,0,0-2.17-2.29Zm-.5,3.85h-.48v-3a4.93,4.93,0,0,1,.85-.07,1.52,1.52,0,0,1,.93.23.71.71,0,0,1,.28.62.74.74,0,0,1-.59.73v0c.26.05.44.28.5.73a2.59,2.59,0,0,0,.19.74h-.5a2.24,2.24,0,0,1-.2-.77.56.56,0,0,0-.65-.52h-.33Zm0-1.66h.34c.4,0,.73-.15.73-.52s-.19-.53-.73-.53l-.34,0Z"/></svg>