<svg id="svg17847" xmlns="http://www.w3.org/2000/svg" viewBox="0 0 396 71.82"><defs><style>.cls-1{fill:#fff;fill-rule:evenodd;}</style></defs><title>johnson-and-johnson</title><g id="layer1"><g id="Footer-1440"><g id="Logo"><path id="Fill-1" class="cls-1" d="M145.69,28a.94.94,0,0,1,1-1c.94,0,2.36,1,3.16,3-.28,0-.72.08-1,.08-1.71,0-3.15-.81-3.15-2.09ZM41.86,28a.94.94,0,0,1,1-1c.92,0,2.28,1,3.08,3C43.3,30,41.86,29.43,41.86,28Zm20-10.34C61.89,7,64,5.31,64.62,5.31c1.15,0,1.29.72,1.29,4.83a24.59,24.59,0,0,1-4,12.77Zm72.89,10.56a12.4,12.4,0,0,0-2.23,7.31c0,6,3.44,11.79,10.12,11.79,6.46,0,11-5.1,11-12.22a15.28,15.28,0,0,0-.21-3.21,17.56,17.56,0,0,0,3.8-2.46,4,4,0,0,1,2-1c.64,0,.92.51.92,1.44V44c0,2.29.73,3.37,2.52,3.37a3.9,3.9,0,0,0,3.44-2.51c2.38-5,5.82-11.57,7.32-14.07.36-.58.66-1,.86-1s.44.22.44,1.15V42.08c0,3.16,1.44,5.24,4.59,5.24,3.31,0,4.95-3.17,7.84-8a1.6,1.6,0,0,0,.2-.71,1.05,1.05,0,0,0-1.14-1c-.65,0-1,.65-3.16,3-.43.45-.86,1.07-1.65,1.07-.29,0-.51-.34-.51-.78V28.28c0-3.38-1.51-4.74-3.45-4.74-1.57,0-2.87.65-4.23,2.66a126.21,126.21,0,0,0-6.32,11.27c-.15.3-.36.73-.5.73s-.21-.22-.21-.73V28.28c0-2.65-.72-4.74-3.52-4.74-3,0-4.46,2-6.61,3.52a20.18,20.18,0,0,1-3.51,2.16c-1.45-3.67-4.1-5.52-6.32-5.47a3.62,3.62,0,0,0-3.82,3.75,4.94,4.94,0,0,0,3.38,4.73,8.86,8.86,0,0,0,3.52.52,4.24,4.24,0,0,0,1.14-.09,14,14,0,0,1,.08,2.52c0,3.53-2.08,7-5.95,7-4,0-6.39-3.88-6.39-8.33a12.4,12.4,0,0,1,2.64-8.11c.66-.72,1.15-1.16,1.15-1.82,0-.34-.49-.42-.93-.42a18.37,18.37,0,0,0-7.82,2.3A46.83,46.83,0,0,0,124.65,32c-1.29-2.88-2.87-5.39-3.67-7.34-.28-.79-.49-1.7-1.07-1.7s-.73.5-1.08,1.49c-1.29,3.81-8.19,15-9.69,16.46-.15.2-.35.43-.42.43s-.24-.07-.24-.51V28.28c0-3.38-1.36-4.74-3.22-4.74-1.58,0-2.94.65-4.23,2.66-2.37,3.6-5.25,8.84-6.61,11.42-.22.44-.44.58-.51.58s-.13-.29-.13-.73V28.28c0-3.38-1.37-4.74-3.24-4.74a4.69,4.69,0,0,0-4.31,2.66c-3,5.1-8,12.93-9,14.21a1.2,1.2,0,0,1-.43.44c-.15,0-.23-.14-.23-.5V28.28c0-3.38-1.36-4.74-3.22-4.74-2.59,0-4,2.38-5,3.88-1.3,2.08-3,4.89-4.37,7.48-.94,1.73-1.73,3.3-2,3.3s-.14-.65-.14-1.87V26.71a26.86,26.86,0,0,0,7.32-18c0-3.88-1.72-6-4.37-6-5,0-8.76,7.76-8.76,17v7.47A19.86,19.86,0,0,1,49,29.8c-1.36-4-4.24-6.1-6.53-6.05a3.61,3.61,0,0,0-3.8,3.75c0,3.8,3.73,5.38,7,5.38h.93a12.42,12.42,0,0,1,.14,2.3c0,3.53-2.08,7-5.95,7s-6.39-3.88-6.39-8.33A12.35,12.35,0,0,1,37,25.78,3.78,3.78,0,0,0,38.2,24c0-.34-.51-.42-1-.42-2.72,0-8.75,3.68-15.93,10.86A154.54,154.54,0,0,1,20,17.58,62.47,62.47,0,0,1,21.45,4.81a14,14,0,0,0,.24-1.94c0-.57-.31-.87-1.08-.87C14.78,2,2,11.27,2,25.13,2,35,5.6,39.7,11.83,45.81,8.05,51.91,5,59.16,5,65.63c0,4.66,1.09,8.19,4.53,8.19,7.18,0,12.56-14.93,12.56-26,0-3.3-.13-6.61-.41-9.91,2.64-2.81,6.74-6.61,7.74-7a17.07,17.07,0,0,0-.72,4.58c0,6,3.45,11.79,10.13,11.79,6.25,0,11-5.1,11-12.22,0-.92-.07-1.72-.13-2.58a18.77,18.77,0,0,0,6.39-2.22V44.73a2.39,2.39,0,0,0,2.51,2.59c1.66,0,2.52-1.15,3.73-3.8,1-2.16,3.73-7.11,5.38-10.06,1.3-2.31,2-3.81,2.6-3.81.13,0,.29.36.29,1.22V43.15c0,3.31,1.72,4.17,3.21,4.17s2.38-.79,3.31-2.08c3.74-5.32,7.7-11.63,9.26-14.37.3-.49.65-.86.94-.86s.43.15.43,1.07V44c0,2.29.72,3.37,2.52,3.37a3.8,3.8,0,0,0,3.36-2.51c2.38-5,5.89-11.5,7.41-14.07.35-.58.71-1.09.92-1.09s.37.36.37,1.3v12.2c0,3.31,1.72,4.17,3.24,4.17,2,0,3.3-1.44,4.59-3.09,2.36-3.1,5.81-8.6,7.89-12.14a29,29,0,0,1,2.16,4c-1.72,2.08-3.45,4.44-3.45,7a4,4,0,0,0,3.81,4.25c3.29,0,6.31-3.17,6.31-7.54a15.44,15.44,0,0,0-1.14-5.24c2.93-2.88,6.45-5.68,9-6.32ZM16.5,43.87a75.6,75.6,0,0,1,1.08,10.49c0,6.88-2.29,14.93-6.24,14.86-1.53,0-2.81-1.53-2.87-4.17C8.32,56.44,12.41,49.11,16.5,43.87ZM121.34,39a9.44,9.44,0,0,1,.66,3.24c0,1.15-.44,2.3-1.23,2.3-.57,0-1.14-.65-1.14-1.66A8.5,8.5,0,0,1,121.34,39ZM19.09,4.73c0,.44-1,2.44-2.29,6A45,45,0,0,0,14.13,26.2c0,3.81.94,8.84,1.74,13.93l-2.3,3.1c-3.67-4.46-6-9.48-6-18.1C7.61,12.92,15,4.46,18.8,4.46,19,4.46,19.09,4.52,19.09,4.73Z" transform="translate(-2 -2)"/><path id="Fill-4" class="cls-1" d="M356.29,28a.93.93,0,0,1,1-1c.93,0,2.37,1,3.15,3-.28,0-.71.08-1,.08C357.72,30.09,356.29,29.28,356.29,28ZM252.45,28a.94.94,0,0,1,1-1c.94,0,2.32,1,3.09,3C253.88,30,252.45,29.43,252.45,28Zm20-10.34c0-10.7,2.07-12.35,2.72-12.35,1.15,0,1.29.72,1.29,4.83a24.67,24.67,0,0,1-4,12.77ZM227.11,43.87a78.8,78.8,0,0,1,1.08,10.49c0,6.88-2.29,14.93-6.25,14.86-1.51,0-2.8-1.53-2.87-4.17C218.92,56.44,223,49.11,227.11,43.87ZM332,39a9.38,9.38,0,0,1,.64,3.24c0,1.15-.43,2.3-1.22,2.3-.57,0-1.16-.65-1.16-1.66A8.37,8.37,0,0,1,332,39ZM229.68,4.73c0,.44-1,2.44-2.3,6a45.57,45.57,0,0,0-2.65,15.43c0,3.81,1,8.84,1.74,13.93l-2.3,3.1c-3.66-4.46-6-9.48-6-18.1,0-12.21,7.41-20.67,11.21-20.67.21,0,.27.06.27.27Zm-12,35.91a43.74,43.74,0,0,0,4.73,5.17c-3.81,6.1-6.82,13.35-6.82,19.82,0,4.66,1.09,8.19,4.53,8.19,7.18,0,12.56-14.93,12.56-26,0-3.3-.14-6.61-.43-9.91,2.66-2.81,6.74-6.61,7.76-7a16.7,16.7,0,0,0-.73,4.58c0,6,3.45,11.79,10.13,11.79,6.24,0,11-5.1,11-12.22,0-.92-.06-1.72-.14-2.58a18.63,18.63,0,0,0,6.39-2.22V44.73a2.39,2.39,0,0,0,2.5,2.59c1.67,0,2.53-1.15,3.75-3.8,1-2.16,3.73-7.11,5.39-10.06,1.29-2.31,2-3.81,2.6-3.81.13,0,.26.36.26,1.22V43.15c0,3.31,1.72,4.17,3.23,4.17s2.37-.79,3.32-2.08c3.72-5.32,7.68-11.63,9.25-14.37.29-.49.66-.86.93-.86s.44.15.44,1.07V44c0,2.29.71,3.37,2.51,3.37a3.83,3.83,0,0,0,3.38-2.51c2.37-5,5.88-11.5,7.39-14.07.36-.58.72-1.09.94-1.09s.36.36.36,1.3v12.2c0,3.31,1.71,4.17,3.22,4.17,2,0,3.31-1.44,4.6-3.09a144.84,144.84,0,0,0,7.9-12.14,31.23,31.23,0,0,1,2.16,4c-1.74,2.08-3.44,4.44-3.44,7a3.94,3.94,0,0,0,3.8,4.25c3.29,0,6.3-3.17,6.3-7.54a15.21,15.21,0,0,0-1.14-5.24c2.94-2.88,6.46-5.68,9.05-6.32a12.47,12.47,0,0,0-2.23,7.31c0,6,3.45,11.79,10.13,11.79,6.46,0,11-5.1,11-12.22a14.83,14.83,0,0,0-.2-3.21,17.9,17.9,0,0,0,3.81-2.46,4,4,0,0,1,2-1c.65,0,.95.51.95,1.44V44c0,2.29.71,3.37,2.51,3.37a3.92,3.92,0,0,0,3.45-2.51c2.35-5,5.8-11.57,7.31-14.07.36-.58.65-1,.86-1s.44.22.44,1.15V42.08c0,3.16,1.42,5.24,4.59,5.24s5-3.17,7.84-8a1.75,1.75,0,0,0,.2-.71,1.07,1.07,0,0,0-1.15-1c-.64,0-1,.65-3.15,3-.43.45-.87,1.07-1.65,1.07-.3,0-.5-.34-.5-.78V28.28c0-3.38-1.53-4.74-3.47-4.74-1.57,0-2.85.65-4.22,2.66a121,121,0,0,0-6.31,11.27c-.16.3-.36.73-.52.73s-.21-.22-.21-.73V28.28c0-2.65-.71-4.74-3.51-4.74-3,0-4.46,2-6.61,3.52a20.6,20.6,0,0,1-3.53,2.16c-1.42-3.67-4.09-5.52-6.3-5.47a3.61,3.61,0,0,0-3.81,3.75,4.94,4.94,0,0,0,3.36,4.73,9,9,0,0,0,3.54.52,4.39,4.39,0,0,0,1.14-.09,15,15,0,0,1,.07,2.52c0,3.53-2.09,7-6,7s-6.38-3.88-6.38-8.33a12.4,12.4,0,0,1,2.64-8.11c.66-.72,1.17-1.16,1.17-1.82,0-.34-.51-.42-.94-.42a18.5,18.5,0,0,0-7.83,2.3A46.77,46.77,0,0,0,335.25,32c-1.29-2.88-2.86-5.39-3.66-7.34-.3-.79-.5-1.7-1.09-1.7s-.72.5-1.07,1.49c-1.3,3.81-8.19,15-9.69,16.46-.15.2-.36.43-.44.43s-.21-.07-.21-.51V28.28c0-3.38-1.36-4.74-3.24-4.74-1.58,0-2.93.65-4.23,2.66-2.38,3.6-5.24,8.84-6.61,11.42-.21.44-.42.58-.49.58s-.15-.29-.15-.73V28.28c0-3.38-1.36-4.74-3.23-4.74a4.69,4.69,0,0,0-4.31,2.66c-3,5.1-8,12.93-9,14.21a1,1,0,0,1-.43.44c-.13,0-.22-.14-.22-.5V28.28c0-3.38-1.36-4.74-3.23-4.74-2.59,0-4,2.38-5,3.88-1.29,2.08-3,4.89-4.37,7.48-.93,1.73-1.72,3.3-2,3.3-.14,0-.14-.65-.14-1.87V26.71a26.81,26.81,0,0,0,7.32-18c0-3.88-1.72-6-4.39-6-4.95,0-8.75,7.76-8.75,17v7.47a19.86,19.86,0,0,1-7.12,2.66c-1.35-4-4.23-6.1-6.51-6.05a3.62,3.62,0,0,0-3.82,3.75c0,3.8,3.73,5.38,7,5.38h.94a13.36,13.36,0,0,1,.13,2.3c0,3.53-2.08,7-6,7S245,38.34,245,33.89a12.41,12.41,0,0,1,2.65-8.11A3.82,3.82,0,0,0,248.79,24c0-.34-.51-.42-.94-.42-2.73,0-8.75,3.68-15.94,10.86a157.08,157.08,0,0,1-1.36-16.82,62,62,0,0,1,1.51-12.77,14.77,14.77,0,0,0,.22-1.94c0-.57-.29-.87-1.07-.87-5.82,0-18.6,9.27-18.6,23.13,0,5.66,1.22,9.7,3.37,13.21a10.87,10.87,0,0,0-2-.14,26.51,26.51,0,0,0-5.79.86V37.62c0-3.08-.73-7.32-2-8.76a.79.79,0,0,0-.57-.21,4.71,4.71,0,0,0-2.08.71c-.87.44-1.73.87-1.73,1.15a1.08,1.08,0,0,0,.21.64,10.66,10.66,0,0,1,2.37,5.55,11.7,11.7,0,0,0-8.88-3.53c-4.32,0-5.62,1.93-5.62,3.88,0,3.73,5,5.6,11.22,5.6a17.63,17.63,0,0,0,3.72-.51c0,1.15.14,2.17.14,3,0,1.23.21,2.16,1,2.16,1.22,0,1.94-2.45,2.08-6a27.19,27.19,0,0,1,6.47-1.07,17.07,17.07,0,0,1,3.23.35Zm-14.15-.72a24.25,24.25,0,0,1-3.22.14c-2.81,0-4.88-1.08-4.88-2.65,0-1,.49-1.58,1.93-1.58C199.69,35.83,201.55,37.41,203.56,39.92Z" transform="translate(-2 -2)"/></g></g></g></svg>