<svg xmlns="http://www.w3.org/2000/svg" xmlns:xlink="http://www.w3.org/1999/xlink" viewBox="0 0 1399.57 945.99"><defs><style>.cls-1{fill:none;}.cls-2{clip-path:url(#clip-path);}.cls-3{fill:#fff;}</style><clipPath id="clip-path" transform="translate(0 0)"><rect class="cls-1" width="1399.57" height="945.99"/></clipPath></defs><title>just-eat</title><g id="Layer_1" data-name="Layer 1"><g class="cls-2"><path class="cls-3" d="M1368.29,2.49H1097.86c-38.44,0-38.44,0-46.48,45.59s-7.15,45.58,26.81,45.58h88.1l-49,284.23c-8.94,55.42-8.17,55.42,41.89,55.42,45.66,0,48.37,0,54.62-39.33L1265.5,93.66h84c37.92,0,38,0,45.82-45.58s7.81-45.59-27-45.59" transform="translate(0 0)"/><path class="cls-3" d="M628.74,2.49c-47.1,0-48,.31-54.7,39.44l-35.63,207c-9.83,59.89-26.09,95-84.18,95s-78-34.85-69.05-88.48L419,57.58c8.94-55.41,7.3-55.09-41.86-55.09-48,0-49.26-.38-55.52,38.94L286,249.18C265.63,366.73,338,439.56,441.71,439.56c116.2,0,174.68-51.81,194.35-176.06l35.4-205.65C681,2.49,678.79,2.49,628.74,2.49" transform="translate(0 0)"/><path class="cls-3" d="M229.68,2.54H111.24c-38.72,0-38.72,0-46.64,44.88S57.64,93.66,92,93.66h70.25l-39,227.43c-8.8,51-31.68,85.36-100.32,106.48C5.28,432.85,0,439.89,0,447.81c0,8.8,3.52,17.59,10.56,36.07,10.56,27.28,17.6,32.57,27.28,32.57s27.28-5.29,33.44-7.05C169,477.72,207.67,402.93,223.51,313.17l44-256.07C277.2,3.42,277.2,2.54,229.68,2.54" transform="translate(0 0)"/><path class="cls-3" d="M846.33,342.39c38.17-2.24,58.19-18.56,58.19-37.33,0-22.34-27.71-30.39-64.36-41.12-72.4-22.34-136.75-47.7-136.75-124.56C703.41,49.1,777.59,0,871.44,0c39.35,0,84.5,2.3,113.77,5,26.27,2.42,31.1,11.77,24.34,51.05s-15.91,43.36-37.67,41.49A1020.74,1020.74,0,0,0,869,93.26c-48.25.61-61.93,16.95-61.93,33.93,0,20.56,18.77,32.18,63.46,43.8,83.12,24.13,137.65,56.88,137.65,128.38,0,84-62.58,133.18-162.67,137.09a767.1,767.1,0,0,1-142.92-7.92c-31.86-4.64-33-5.19-25.08-51,7.27-41.76,8.23-44.64,37.53-41.15,56.43,6.72,93.1,8.24,131.27,6" transform="translate(0 0)"/><path class="cls-3" d="M818,759.19l62.56-136.75c5.37-11.63,5.37-11.63,12.52-11.63,8,0,8,0,9.83,12.52l18.77,135.86ZM986.91,568.8c-9.84-53.62-9.84-53.62-85.81-53.62-71.51,0-70.61,0-92.06,43.79L647.26,894.15C624,942.41,627.59,946,687.48,946c46.48,0,45.59,0,65.25-42.9l25.92-57.21H934.17l8.05,57.21c6.25,42.9,8,42.9,54.52,42.9,52.29,0,57.3-3.74,47.37-55.41Z" transform="translate(0 0)"/><path class="cls-3" d="M615.32,606.34c38,0,38.12-.42,45.87-45.58,7.81-45.47,7.76-45.58-27.1-45.58H441c-67.93,0-66.64,0-78.26,68.82L313.31,871.8C300.8,946,301.59,946,371.31,946h188.6c39.32,0,38.43,0,46.47-44.69,8-46.48,8-46.48-27.71-46.48H416l13.41-83.12h135c36.64,0,36.64,0,42.89-42.91C614.43,685,614.43,685,564.38,685H443.71l13.4-78.66Z" transform="translate(0 0)"/><path class="cls-3" d="M1368.29,515.18H1097.85c-38.43,0-38.43,0-46.47,45.58s-7.15,45.59,26.81,45.59h88.1l-49,284.22c-8.94,55.42-8.17,55.42,41.89,55.42,45.66,0,48.37,0,54.62-39.33l51.74-300.31h84c37.92,0,38,0,45.82-45.59s7.81-45.58-27-45.58" transform="translate(0 0)"/></g></g></svg>