<svg id="svg2" xmlns="http://www.w3.org/2000/svg" viewBox="0 0 426 327"><defs><style>.cls-1{fill:#fff;}</style></defs><title>mtv</title><g id="layer1"><g id="g19319"><path id="path19321" class="cls-1" d="M136.22,173.72V287.23l19.14-14.42V193.06Z" transform="translate(0 0)"/></g><g id="g19323"><path id="path19325" class="cls-1" d="M177.35,200.23l24.93-5.7,10.06-8.25v-15Z" transform="translate(0 0)"/></g><g id="g19327"><path id="path19329" class="cls-1" d="M174.22,19.7,139,3.47l31.84,35.68,12-11.9Z" transform="translate(0 0)"/></g><g id="g19331"><path id="path19333" class="cls-1" d="M0,295.59H11.06l3.6,18.05h.07l3.6-18.05H29.39v30.69H22V306.59H22l-4.37,19.69H11.8L7.42,306.59H7.35v19.69H0Z" transform="translate(0 0)"/></g><g id="g19337"><path id="path19339" class="cls-1" d="M55.12,314.4c0,8.52-3.78,12.59-11.47,12.59s-11.52-4.07-11.52-12.59V295.59H39.9v16.73c0,3.13,0,7,3.77,7s3.7-3.9,3.7-7V295.59h7.75Z" transform="translate(0 0)"/></g><g id="g19341"><path id="path19343" class="cls-1" d="M65.15,316a6.82,6.82,0,0,0,.28,2c.57,1.84,2.26,2.23,3.71,2.23,1.27,0,3.21-.51,3.21-2.8,0-1.58-1.08-2-5.44-3.51-4-1.38-8.55-2.71-8.55-8.9,0-7.08,5-10.14,10.18-10.14,5.47,0,10.32,2.54,10.53,10H71.73a2.63,2.63,0,0,0-.93-2.47,3.7,3.7,0,0,0-2.3-.76c-1.06,0-2.79.34-2.79,2.07.14,2.18,3.75,2.65,7.31,3.86s7.1,3.23,7.1,8.84c0,8-6,10.58-11.64,10.58-2.88,0-11-1.25-11.1-11.05Z" transform="translate(0 0)"/></g><path id="path19345" class="cls-1" d="M82.62,295.6h7.77v30.68H82.62Z" transform="translate(0 0)"/><g id="g19347"><path id="path19349" class="cls-1" d="M110,307c-.14-1.12-.85-4.52-4.08-4.52-3.63,0-4.79,4.31-4.79,8.44s1.16,8.42,4.79,8.42c2.63,0,3.66-2.25,4.12-5.12h7.62c0,6.19-4.12,12.76-11.51,12.76-8.16,0-12.8-7-12.8-16.06,0-9.67,5-16.08,12.8-16.08,6.93,0,10.73,4.47,11.41,12.16Z" transform="translate(0 0)"/></g><g id="g19351"><path id="path19353" class="cls-1" d="M137.85,303.45h-7.07v-7.86h21.9v7.86h-7.06v22.83h-7.77Z" transform="translate(0 0)"/></g><g id="g19355"><path id="path19357" class="cls-1" d="M154.94,295.59H175.8v7.86H162.71v3.84H174.6v7.29H162.71v3.84h13.5v7.86H154.94Z" transform="translate(0 0)"/></g><g id="g19359"><path id="path19361" class="cls-1" d="M178.59,295.59h7.75v22.83h11.18v7.86H178.59Z" transform="translate(0 0)"/></g><g id="g19363"><path id="path19365" class="cls-1" d="M199.45,295.59h20.87v7.86h-13.1v3.84h11.91v7.29H207.22v3.84h13.49v7.86H199.45Z" transform="translate(0 0)"/></g><g id="g19367"><path id="path19369" class="cls-1" d="M239,326.27H230.3l-7.53-30.68h7.85l4.14,18.6h.05l4.09-18.6h8Z" transform="translate(0 0)"/></g><path id="path19371" class="cls-1" d="M249.78,295.6h7.78v30.68h-7.78Z" transform="translate(0 0)"/><g id="g19373"><path id="path19375" class="cls-1" d="M268.36,316a6.49,6.49,0,0,0,.29,2c.56,1.84,2.26,2.23,3.71,2.23,1.26,0,3.21-.51,3.21-2.8,0-1.58-1.11-2-5.45-3.51-4-1.38-8.55-2.71-8.55-8.9,0-7.08,5-10.14,10.19-10.14,5.47,0,10.3,2.54,10.51,10h-7.34a2.61,2.61,0,0,0-.93-2.47,3.62,3.62,0,0,0-2.28-.76c-1.06,0-2.8.34-2.8,2.07.15,2.18,3.75,2.65,7.31,3.86s7.11,3.23,7.11,8.84c0,8-6,10.58-11.65,10.58-2.87,0-11-1.25-11.1-11.05Z" transform="translate(0 0)"/></g><path id="path19377" class="cls-1" d="M285.83,295.6h7.77v30.68h-7.77Z" transform="translate(0 0)"/><g id="g19379"><path id="path19381" class="cls-1" d="M309,294.86c7.68,0,12.8,6.71,12.8,16.08S316.71,327,309,327s-12.78-6.7-12.78-16.06,5.13-16.08,12.78-16.08m0,24.5c2,0,5-1.59,5-8.42s-3-8.44-5-8.44-5,1.61-5,8.44,3,8.42,5,8.42" transform="translate(0 0)"/></g><g id="g19383"><path id="path19385" class="cls-1" d="M324.72,295.59h7.95L340,312h.08V295.59h7.33v30.69h-7.54l-7.75-16.76h-.06v16.76h-7.35Z" transform="translate(0 0)"/></g><g id="g19391"><path id="path19393" class="cls-1" d="M417.63,38c-3.22-2.2-9-3.3-14.67-2.8-5.42.46-9,3.11-12,5.56,0,0-7.71,7.66-7.71,7.66l-2.08,3.31-6.92,8.66-.08.09V12.72L353,0V86.81l-.27.42-5.07,6V0H216.93L170.42,46.28,129.1,0H.13V286.92H131.3V160.53l38.61,39.82,47.42-40.41v127h130.4l0-121.08c1-1.74,1.86-3.12,1.86-3.12s1.11-1.62,1.11-1.62,1.17-1.85,2.39-3.79V286.92l21.1-14.58V119.47l2.31-3.45c.2-.32,3.25-4.89,3.25-4.89S384.6,104,384.6,104s1.86-2.4,1.86-2.4L391,95.22c.89-2,3.42-3.41,4.39-3.92l.45-.24.62-.45,2.33-2.36s4.07-3.45,4.07-3.45l6.86-3.2,6.42-3.52L422,70.85l3.12-9.69s.92-9.38.92-9.38c-.2-4.77-3.8-10.67-8.37-13.75m-157.13,78c.14.92.64,9.4.61,10.8,0,4.21.26,8.84.13,10.71-.1,1.42.09,6.33.09,6.33.35,3.88,1.19,8.12,1.27,8.88.17,2-.58,9.52-.35,11.23a31,31,0,0,1,.51,4.25c-.34,2,.23,4.32.17,5.21-.11,1.55-.17,3.33-.23,5.22-.1,2.81-.19,5.71-.45,8.24-.08.64,0,5.07,0,5.07-.51,4.45-1.06,9-.3,13.65.14.93,0,4,0,4.51.12.69,1.1,4.27,1.24,5.05.21,1.18.65,6.62,1.24,7.88s2.91,6.81,3.12,7.48c.69,2.1,1.75,7.17.8,9.75s-2.26,8.26-3.22,9.71c-.82,1.26-2.06,2-2.65,2.92a6.06,6.06,0,0,1-2.59,2,20.52,20.52,0,0,1-12.38.56c-1.79-.53-4.5-.36-7.54-2.21-2.48-1.5-3.33-5.61-3.68-7.82-.17-1,.13-3.78.06-4.22-.07-.62-1-4.7-1-6a33.86,33.86,0,0,0-.08-5.23c-.38-2.33-1.52-6.13-1.52-6.13-.31-1.56-1.15-4.93-1.19-5a33.08,33.08,0,0,1-1.6-7.07c-.49-3.83.47-7,1.32-9.87a29.88,29.88,0,0,0,1.13-4.7c.13-1.11-.73-6.37-.56-8.13.05-.72.64-3,.67-3.31.22-1.49.27-5.46.28-6.07a71.84,71.84,0,0,0,.49-7.6,29.29,29.29,0,0,1,0-4.19,37.28,37.28,0,0,0,0-7.17,27.26,27.26,0,0,1-.29-5.29,67,67,0,0,1-.19-8.42c0-.41-.47-4.74-.49-6.09,0-.84-.07-6.16-.13-6.79-1.13-13.22-2.92-15.76-3.64-16.24a5,5,0,0,0-3.77.08c-.85.39-3.06,2.31-4.93,3.31s-5.23,2.59-6.39,3.45a56.76,56.76,0,0,1-7.85,5.08,16.2,16.2,0,0,0-2.89,2.48,36.22,36.22,0,0,1-8.39,6.13,21.59,21.59,0,0,0-5.52,3.77c-.62.63-2.93,4.49-4.42,5.94a13.08,13.08,0,0,0-2.63,3.93,11.39,11.39,0,0,1-3.17,4.63c-2.47,1.84-7.85,2.18-11.1.82a15.63,15.63,0,0,1-8-8.46c-1.81-4.81-.3-11,3.29-15,2.37-2.62,6.05-3.68,9.63-4.69a28.23,28.23,0,0,0,5.93-2.13c.79-.44,3.34-2.35,3.87-2.7.81-.53,3.7-1.93,4.26-2.3a61.15,61.15,0,0,1,5.6-4.15c3.37-1.88,6.05-3.39,7.63-4.39a46.59,46.59,0,0,0,7.64-5.45c.68-.66,3.56-1.73,6.72-3.52.8-.45,4.1-1.56,4.94-1.93.57-.27,2.87-2,3.55-2.31,3-1.54,4.45-3.38,3.62-8a17.65,17.65,0,0,1-.62-5.13,20.93,20.93,0,0,1,1.83-5.34c.55-1,1.41-1,1.9-1.93s2.18-1.78,3.3-2.07a8.8,8.8,0,0,1,4.3-1.89c4.15-.69,9.49,2.35,10.26,2.51a13.16,13.16,0,0,0,5.25-.28c.26,0,2-1.16,2.58-1.39.84-.32,3.52-1,4.07-1.24.82-.29,4.63-2.29,5.6-2.65s3.29-.8,4.42-1.06c1.82-1.3,5.23-2.41,6.53-3.53a34.31,34.31,0,0,0,3.89-4.93c.78-1,4.54-3.56,5.07-4a22.65,22.65,0,0,1,5.94-3.49c.92-.26,3.59.29,5.23.28,1.82,0,4.38.1,6.32,3,1,1.47,2.58,3,3,5,1.25,6.36-3.5,12.67-7.1,14.91-.37.23-2.12.73-3.19,1.09-1.5.49-3,1.59-4,1.86-2,.54-3,2-3.85,2.39s-3.62,2.16-4.52,2.65c-.69.37-1.83,2-3.88,2.59a17.08,17.08,0,0,0-6.56,3.27c-1,.83-4.84,1.63-5.95,1.88-.41.1-5.36,2.19-5.86,5.09s-.09,3.85-.67,8.21a32.51,32.51,0,0,0,.06,7.6m161.23-55.6A37.79,37.79,0,0,1,419,69.2c-.62,1.13-3.06,4.74-4.91,6.12a27.41,27.41,0,0,1-5.51,3c-1,.37-6,2.69-7.36,3.41a17.36,17.36,0,0,0-5,4.17A22.63,22.63,0,0,1,394.13,88c-.3.26-4.72,2.07-6.33,5.82-1,2.27-5.39,7-6.14,8.34-1.09,2-2.71,4.91-4.33,6.49a12.76,12.76,0,0,0-1.56,2c-.5.76-1,1.6-1.59,2.53l-.44.71a37.56,37.56,0,0,1-2.9,4.4,19.83,19.83,0,0,0-3.46,6.08c-.31.75-3.08,4.7-4.13,7.46-.45,1.24-2.86,5.26-3.12,5.87-.51,1.3-3.6,4.3-3.9,4.89a27.35,27.35,0,0,0-1.27,3.41c-.37,1.16-1.32,3.44-1.65,4.33-.4.67-.92,1.52-1.47,2.42l-.07.09c-.4.67-.81,1.33-1.24,2-1,1.57-1.94,3.11-2.58,4.1-.43.55-.86,1.19-1.24,1.77-.62.9-5.11,8.56-6.14,10.39-.46.84-1,1.67-1.59,2.55a22.33,22.33,0,0,0-3.46,6.75,40.53,40.53,0,0,1-1.77,4.53,45.36,45.36,0,0,0-2.62,10.32,37.33,37.33,0,0,0-.12,6.42,28.67,28.67,0,0,1-.19,6.29,27.69,27.69,0,0,1-3.87,9.75,30.12,30.12,0,0,1-4.22,5c-1.47,1.37-3.89,1.93-8.32,2-6,0-8.56-2.19-11.75-6.88a50.35,50.35,0,0,1-2.78-5.38,63,63,0,0,1-4-10.55c-.36-1.23-.85-2.59-1.31-3.9s-1.65-5.49-1.74-6.15-1.51-5.38-1.6-5.84c-.55-2.89-1.31-5.56-2.05-8.15a72.28,72.28,0,0,1-1.92-7.78,79.2,79.2,0,0,0-2.75-9.46s-1.88-6-2.48-8.09c-.82-2.89-3.51-10.85-3.51-10.85-1-2.72-3.38-9.09-3.55-10.11-1.41-8.28-1.4-15,.09-17.87.67-1.33,3-2.59,4.79-3.61a45.77,45.77,0,0,1,4.3-2.48,24.1,24.1,0,0,1,7.68-.4c.35,0,3.6.07,4.78.91,4.37,3,4.68,7,5.26,14.11,0,0,.76,7.68,1.12,10.57.26,2.12.55,4.33.77,6.51.15,1.5.22,3.15.29,4.73.12,2.86,1.1,8.32,1.1,8.32,1,3.27,1.92,6.4,5.76,8a3.75,3.75,0,0,0,3.35-.27c2.63-1.4,5-5.65,5.93-10.56a5.73,5.73,0,0,1,.82-1.39,14.78,14.78,0,0,0,2.8-5.89,31.48,31.48,0,0,1,3-4.59,47.2,47.2,0,0,0,2.65-3.91c.2-.35,4.56-7.15,4.56-7.15s1.68-3.75,2.4-5.15a23.75,23.75,0,0,0,1.41-3.41c.35-1.46,1.07-4.53,2.51-6.23,2-2.31,4.09-7.5,4.19-7.73.47-.88,1.75-3.09,2.94-5l.26-.35h0l.09-.11c.52-.69,1.2-1.6,1.72-2.23l3.77-4.45a31.71,31.71,0,0,0,2.23-2.64c.73-1,2.28-3.25,3.65-5.28.84-1.26,3.26-4.41,4-5.19s6.22-8.14,7.07-9.26c.35-.46,2.59-2.74,3.95-4.12,0,0,0,0,0,0,1.89-1.89,2.58-2.59,2.83-2.91,1.09-1.48,2.28-2.92,3.43-4.31s2.32-2.82,3.45-4.32c.49-.63,1.76-2.9,2.1-3.35,1.19-1.56,7-6.93,7.17-7.08,2.7-2.23,5.69-4.41,10.08-4.79,4.8-.42,9.92.5,12.46,2.22,3.63,2.44,6.7,7.41,6.85,11.05a28.23,28.23,0,0,1-.83,8.54" transform="translate(0 0)"/></g></g></svg>