<svg id="svg2" xmlns="http://www.w3.org/2000/svg" viewBox="0 0 535.4 205.87"><defs><style>.cls-1{fill:#fff;}</style></defs><title>ubs</title><path id="path2195" class="cls-1" d="M485.53,168.41a79.24,79.24,0,0,1-23.6-5.5c-1.56-.65-2.66-6.58-3.44-6.88l-1.62-7.94c-.21-7.08-.47-14.89-.59-17.37l-.21-4.5h5.77l.73,5.54c2.74,20.7,13.68,31.12,32.66,31.12,12.6,0,20.42-4.73,24.35-14.74,1.23-3.12,1.42-4.73,1.45-12.3,0-8.61,0-8.75-2-12.86-3.53-7.21-7.09-9.6-24.85-16.67-5.26-2.1-11.52-4.79-13.89-6-15.51-7.82-23.19-18.9-23.16-33.42,0-18.57,10.38-32,28.41-36.82,6.27-1.69,21.56-1.51,28.1.34,6.14,1.72,14.25,4.94,15.11,6,.37.44.79,5.7,1,12.21.18,6.29.43,12.9.55,14.7l.23,3.26h-5.84L523.38,60c-3-15.23-10-23.26-22.07-25.27-9.78-1.63-21.63,2.14-26.29,8.37-3.55,4.73-4.62,8.44-4.62,16,0,6,.15,6.82,1.84,10.17,2.19,4.35,5.3,7.19,11.13,10.17,4.09,2.09,17.88,7.62,19,7.62s13.48,6.18,16.68,8.32c8.91,6,13.87,13.93,15.64,25.16A34.42,34.42,0,0,1,535,133c-1.44,11.52-4.8,18.66-11.89,25.27C514,166.69,502.92,169.69,485.53,168.41Zm-219.21-.84c-19.66-3.77-29-14.12-31.55-35.12-.4-3.25-.65-22.75-.65-50.8V36.12H219.29V30.53H268.1v5.55l-7.88.18-7.88.17-.18,40.39c-.23,52.55.36,61,4.94,70.37S270.34,161,283.34,161c14.75,0,23-5.51,27.41-18.38,2.83-8.23,3.05-12.58,3.05-61V36.12H299V30.53h35.83v5.59H321.27l-.19,49.55c-.2,49-.21,49.61-1.57,54.53-4,14.53-12,22.67-25.78,26.4C287.28,168.34,273,168.85,266.32,167.57ZM343,164l.19-2.67,7.41-.1,7.42-.1.15-62.48.16-62.48L350.72,36l-7.57-.18L343,33.17l-.19-2.64h30.34c19.19,0,32,.25,34.78.69q16.1,2.51,22,14.22a36.38,36.38,0,0,1,2.85,23.07C431,77,427.54,82.18,420.51,86.7a37,37,0,0,1-13.73,5.67,31.24,31.24,0,0,0-5.46,1.57c-.28.24,1.39.63,3.71.86,23.86,2.43,34.31,12.94,34.31,34.52,0,11.88-2.8,19.48-9.75,26.42-4.27,4.26-9.44,7.09-16.73,9.14-4.67,1.32-6.08,1.38-37.47,1.58l-32.62.2Zm56.28-3.91c10.55-2.76,17.6-10.07,19.94-20.66,1.48-6.66,1-18.87-1-24.08-2.38-6.32-6.41-11.39-11.31-14.24s-8.46-3.47-20-3.47H376.2V161H386C392.6,161,396.83,160.72,399.24,160.08Zm0-69.51c10.21-3.32,16.17-13.52,16.07-27.52-.11-14.59-7.49-25.1-18.8-26.76A104.31,104.31,0,0,0,384.69,36l-8.49.19V63.7c0,15.13.21,27.73.46,28C377.47,92.54,396,91.61,399.21,90.57Z" transform="translate(0 0)"/><path id="path2191" class="cls-1" d="M90.34,205.28c-1.94-.57-2-.69-2-3.94s0-3.35-2-3.74a38.57,38.57,0,0,1-13-5.95c-10.89-8.58-14.62-22-9.72-34.94,3.14-8.28,11.79-15.68,21.14-18.08,4.52-1.17,4.31-2.47-.47-2.87l-3.71-.31v-6.21l3.86-.19,3.87-.18V113.05c0-8.7-.13-15.81-.29-15.81s-4.82,3.7-10.36,8.23S66.87,114.3,65.94,115s-1.69,1.57-1.69,1.86a12.65,12.65,0,0,0,2.11,3c2,2.41,2.06,2.53,1.1,4.17a6,6,0,0,1-2.69,2.29c-1.56.55-1.91.35-4.16-2.31-1.77-2.1-2.64-2.72-3.13-2.24s-.14,1.83,1.29,4.92c1.72,3.68,2,5.09,2.26,10.61.23,5.23,0,7.11-1,10.61a28.66,28.66,0,0,1-19.47,19.58c-3.48,1.07-5.29,1.25-10.19,1-6.82-.36-10.75-1.68-16.3-5.49a22.91,22.91,0,0,0-4-2.41,10.89,10.89,0,0,0-2.58,1.83c-2,1.71-2.19,1.76-3.85.9S0,159.64,0,158c0-.44,1-1.67,2.28-2.73l2.28-1.93-1.64-3.82c-7.24-16.77.13-35.1,16.58-41.24,3-1.11,4.87-1.35,10.15-1.3,7.64.09,11.38,1.26,17.75,5.56,5.05,3.4,6.29,2.83,2.91-1.33C48,108.4,48,108.28,49,106.66a6.12,6.12,0,0,1,2.66-2.27c1.52-.56,1.88-.36,4.21,2.33l2.56,2.94L71.66,98.82c7.3-6,13.28-11.13,13.28-11.48S79.1,82,72,76.16L59,65.63l-1.7,1.63c-2.18,2.09-2.14,3.32.16,5s2.28,2,.22,4.43l-1.63,2-1.95-1.9c-2.33-2.27-2.59-2.3-4.12-.5-2.5,2.94-2.52,3.33-.23,4.9,1.18.81,2.14,1.78,2.15,2.16,0,.81-2.37,4-3,4S36.8,78,36.57,77.37c-.1-.27,2.75-2.11,6.33-4.08s6.52-3.81,6.52-4.07-.8-1.06-1.79-1.76l-1.78-1.28-6,3.43a41.86,41.86,0,0,1-6.25,3.21A47.56,47.56,0,0,1,35.45,66l2.09-6.63L36,58.07A4,4,0,0,0,33.8,57c-.33.11-1.54,3.25-2.7,7s-2.22,6.89-2.36,7S16.06,61.23,16.06,60.78c0-.6,2.76-3.93,3.25-3.93A10,10,0,0,1,22,58.51l2.17,1.67L26,58.24a9.2,9.2,0,0,0,1.81-2.38,10,10,0,0,0-2.29-2.42l-2.29-2,1.52-1.93c1.86-2.36,2.11-2.38,4.41-.44a8.13,8.13,0,0,0,2.3,1.56c.6,0,3.77-3.56,3.73-4.19,0-.26-2.36-2.29-5.22-4.51-5.78-4.5-6.24-5.56-3.68-8.62,3.21-3.84.16-5.83,36.73,24,19.77,16.12,24.63,20,25,20s.37-7.13.37-15.84V45.67H82.16v6.21H76.6V45.67H70.42v6.21H64.86V35.12l2.94,1.17c1.61.64,4.72,1.89,6.9,2.78a33.93,33.93,0,0,0,4.48,1.63c.28,0,.51-1.05.5-2.33V36L72.8,33.3l-6.88-2.73,6.89-2.77L79.69,25V22.61a5.25,5.25,0,0,0-.3-2.42c-.16,0-3.15,1.15-6.64,2.55l-7.12,2.87c-.59.24-.77-1.63-.77-8.15V9h5.56v6.21H76.6V9h5.56v6.21h6.18V1L90.72.33A6.83,6.83,0,0,1,95,.37L97,1.05V39.27c0,32.32.14,38.17.86,37.89s17.63-13.91,46.72-37.7c5.28-4.31,9.93-8,10.35-8.31,1.18-.73,3.07.12,4.37,2,2.57,3.67,2.44,4-3.28,8.58-2.9,2.32-5.27,4.45-5.27,4.74,0,.79,2.63,4.2,3.24,4.2A10.12,10.12,0,0,0,156.7,49l2.19-1.68,1.75,2.14,1.75,2.15L160,53.74l-2.43,2.18L159.46,58c1.32,1.45,2.17,1.94,2.69,1.55,4.18-3.12,4-3.07,5.57-1.44a8.05,8.05,0,0,1,1.65,2.21c.22.79-11.81,10.88-12.46,10.47a47.7,47.7,0,0,1-2.47-7.12c-1.13-3.77-2.36-6.85-2.73-6.84a5.44,5.44,0,0,0-2.11,1.22l-1.43,1.2,2.13,6.86A43.64,43.64,0,0,1,152.14,73c-.17,0-3.08-1.57-6.47-3.49L139.5,66l-1.8,1.73-1.79,1.73,3.86,2.15c2.12,1.17,5.2,2.9,6.84,3.83l3,1.7-6.45,5.29-6.44,5.29L135,85.59l-1.73-2.18,2.36-2,2.36-2-1.73-2.27a10.76,10.76,0,0,0-2-2.28,16.22,16.22,0,0,0-2.64,1.86l-2.33,1.86-1.68-2.21-1.67-2.21,2.33-2,2.33-2-1.79-2.26c-1.54-1.94-2-2.16-2.86-1.51-2.62,1.87-25.77,20.68-25.8,21a21.28,21.28,0,0,0,3.51,3.11c2,1.53,8.08,6.49,13.62,11s10.17,8.23,10.3,8.23a16.79,16.79,0,0,0,2.25-2.79c2.36-3.31,3.65-3.5,6.22-.92l1.87,1.89-1.62,2c-2.11,2.59-3.14,4.69-2.59,5.24.24.24.79.17,1.22-.16,4.11-3.12,9.09-6,11.72-6.73,15.25-4.33,29.12,1.48,35.78,15l2.62,5.32v7.82c0,8.07,0,8.27-3.76,16.53-.16.36.83,1.48,2.2,2.49,2.07,1.52,2.44,2.1,2.14,3.39a9.64,9.64,0,0,1-4.15,5.06c-.86.47-1.65.12-3.61-1.56l-2.51-2.16-2.81,2.16a29.46,29.46,0,0,1-19,6.43c-8.56,0-14.77-2.57-20.41-8.34-4.38-4.49-6.72-8.61-8-14.07a29.91,29.91,0,0,1,2-20c1.17-2.67,1.4-3.78.88-4.3s-1-.32-1.87.8c-3.78,4.82-3.36,4.56-5.52,3.44a7.22,7.22,0,0,1-2.63-2.29c-.71-1.33-.55-1.68,2.47-5.63l1.26-1.63L110,107.1c-6.44-5.25-12-9.64-12.36-9.76s-.58,4.88-.47,15.53l.16,15.75,3.69.19c4,.2,4.63.68,4.63,3.53s-.63,3.33-4.63,3.54c-5.26.27-4.88,1.54,1,3.24A30,30,0,0,1,119.7,152.2c5.33,8.14,5.91,19.82,1.45,29.07-3.05,6.3-11.17,13.17-17.88,15.12-6.45,1.88-6.29,1.75-6.29,5.16,0,2.87-.12,3.1-1.94,3.74C92.84,206.06,93,206.06,90.34,205.28Zm-1.89-17.93c.18-2.53.37-2.82,2.2-3.35a7.83,7.83,0,0,1,4,0c1.85.53,2,.81,2.31,3.66s.43,3.08,1.86,2.93c3-.32,9.08-3.86,12-7,4.53-4.88,6.16-9.05,6.18-15.83a33.6,33.6,0,0,0-.8-7.94c-3-8.78-13.79-11.25-18.45-4.24-2.78,4.18-1.24,10.64,3,12.87,1.9,1,6.46,1,8.67,0,1-.43,1.08-.09,1.08,2.94,0,3.28-.08,3.45-1.94,4.11-4.44,1.55-11.12.05-13.76-3.11a8.87,8.87,0,0,0-1.78-1.8,15.92,15.92,0,0,0-2.42,2.05,13.73,13.73,0,0,1-13.54,2.82l-2.38-.72v-3.39c0-3,.11-3.32,1.08-2.86a17.43,17.43,0,0,0,4.9.54c3.39,0,4-.2,5.73-1.84a9.32,9.32,0,0,0,0-13.41c-5.72-5.37-15.11-.93-17.28,8.18-2.24,9.38,1.5,19.61,9.08,24.86,3.08,2.12,8.92,4.42,9.58,3.76A8.75,8.75,0,0,0,88.45,187.35Zm-49.18-26.7c6.6-2.33,12.47-7.92,13.89-13.22a10.43,10.43,0,0,0-2.79-10.88c-2.36-2.37-2.95-2.65-5.53-2.65-5,0-8.68,3-9.43,7.72-.52,3.21,1.7,7.4,4.73,8.9l2.4,1.2-2.54,2a10.44,10.44,0,0,1-3.37,2c-.46,0-2.06-1.14-3.56-2.53-3.39-3.14-5-7-4.45-10.77L29,139.6l-3-.42c-4.68-.65-9.3-4.52-11.11-9.32-.59-1.56-.44-1.9,1.68-3.78a15.69,15.69,0,0,1,2.7-2.1c.2,0,.68,1.06,1.08,2.38,1,3.23,4.84,6,8.43,6a9.12,9.12,0,0,0,9-9.06c0-5.4-4.56-9.27-10.89-9.26-11.44,0-21.36,13.43-19.32,26.14.69,4.34,2.05,8,3,8a7.64,7.64,0,0,0,2.48-1.59c1.8-1.52,1.94-1.54,3.77-.59a8,8,0,0,1,2.95,3.2l1.05,2.2-2.3,2.13a16.83,16.83,0,0,0-2.31,2.36c0,.69,6.74,4.43,9.19,5.1A26.08,26.08,0,0,0,39.27,160.65Zm124.24-.93a19.86,19.86,0,0,0,4.94-3c1.09-1.21,1.06-1.29-.89-2.93-2.33-1.95-2.53-3.56-.73-5.86,2.38-3,3.49-3.22,6.21-1l2.43,2,1.37-3c1.13-2.46,1.37-4.1,1.37-9.21,0-5.56-.18-6.59-1.74-9.78-2.62-5.37-7.2-10.08-11.28-11.62-7.29-2.74-13.52-1-16.23,4.48-1.92,3.9-1.46,6.53,1.72,9.73,4,4.07,9.26,3.94,13-.32a7.53,7.53,0,0,0,1.88-3.69c0-2,.47-1.93,3.26.37,2.63,2.19,2.75,2.85,1.13,6A13.15,13.15,0,0,1,159.29,139l-2.49.1.4,2.63c.59,4-.74,7.51-4.11,10.92-1.61,1.63-3.37,2.95-3.92,2.95a9.28,9.28,0,0,1-3.43-2l-2.45-2L145,151c3-1.3,4.64-3.66,5-7.19.39-4.09-1.06-7-4.3-8.67-4.77-2.45-9.29-1.14-12,3.5-3.72,6.37-.16,15,8.19,19.95,4.38,2.58,7.46,3.32,12.86,3.11A20,20,0,0,0,163.51,159.72Z" transform="translate(0 0)"/></svg>