<svg id="svg4841" xmlns="http://www.w3.org/2000/svg" viewBox="0 0 1001.25 154.76"><defs><style>.cls-1{fill:#fff;}</style></defs><title>viacom</title><path id="path4200" class="cls-1" d="M190.28,1.63h0V135c0,10.4,6.1,18,19.53,18H231V1.63ZM893.61,110.11h0S867.94,36.5,863.06,22.63c-3-9.38-7.51-21-28.48-21H786.75v151.3h16.09c12.39,0,20.13-5.51,20.13-18.35V29h.62l46.61,124h43.53L960.34,29H961V134.78c0,10.6,5.7,18.15,20.13,18.15h20.16V1.63h-45c-15.87,0-25.63,4.49-30.52,18.56-3.25,9.38-31.33,89.92-31.33,89.92ZM86.9,111.53h0s-35-91.75-37-97C47.21,7.34,43.55,1.63,30.12,1.63H0l62.07,151.3h45.18l64.3-151.3H144.9c-11.4,0-15.88,4.89-18.73,12.24L87.51,111.53ZM532.16,33.44h20.75c14.87,0,23.63-5.51,23.63-19V1.63h-59c-49.24,0-72.86,29.16-72.86,75.65,0,57.91,36,75.65,72.86,75.65h59V139.88c0-13.26-9.17-18.76-22.6-18.76H532.16c-23.38,0-45.17-8.36-45.17-43.84C487,46.49,503.49,33.44,532.16,33.44ZM374,96.24h0c0,15.09-6.91,26.92-27.26,26.92H325.61c-14.86,0-23.6-4.08-23.6-16.11,0-11.62,8.14-16.31,23.6-16.31H374ZM354.31,1.63H271.07V13.25c0,10.2,5.28,20.19,19.74,20.19h53.11c22.38,0,30.11,7.34,30.11,25.08v2.65H317.88c-41.94,0-57.19,19.37-57.19,45.68,0,32,21.38,46.08,57.19,46.08h37.44c49,0,59.62-24.67,59.62-57.1V58.32C414.94,23.24,401.92,1.63,354.31,1.63ZM671.78,122.75h0c26.45,0,41.92-18.35,41.92-45.47,0-28.75-16.5-45.47-41.92-45.47-27.07,0-42.34,18.15-42.34,45.47C629.44,103.38,644.3,122.75,671.78,122.75ZM671.78,0h0c49.43,0,84.64,26.91,84.64,77.28,0,48.12-32.55,77.48-84.64,77.48-50.89,0-84.88-28.14-84.88-77.48C586.9,28.55,620.49,0,671.78,0Z"/></svg>