<svg width="16" height="16" viewBox="0 0 16 16" fill="none" xmlns="http://www.w3.org/2000/svg">
<path fill-rule="evenodd" clip-rule="evenodd" d="M13.1577 1.6L7.3128 7.44486C6.9697 7.78797 6.9692 8.34565 7.31286 8.68931C7.65582 9.03228 8.21368 9.033 8.55731 8.68937L14.4 2.84668V4.80063C14.4 5.24118 14.7582 5.6 15.2 5.6C15.6409 5.6 16 5.24211 16 4.80063V0.799368C16 0.579201 15.9105 0.379445 15.7659 0.234687C15.621 0.0896821 15.4213 0 15.2006 0H11.1994C10.7588 0 10.4 0.358172 10.4 0.8C10.4 1.24093 10.7579 1.6 11.1994 1.6H13.1577ZM16 9.6V5.79703V14.0059C16 15.1072 15.2066 16 14.2266 16H1.77341C0.793984 16 0 15.1055 0 14.0059V1.99406C0 0.892771 0.793442 0 1.77341 0H10.3133H6.4C6.84183 0 7.2 0.358172 7.2 0.8C7.2 1.24183 6.84183 1.6 6.4 1.6H2.05556C1.80106 1.6 1.6 1.83895 1.6 2.1337V13.8663C1.6 14.1557 1.80396 14.4 2.05556 14.4H13.9444C14.1989 14.4 14.4 14.1611 14.4 13.8663V9.6C14.4 9.15817 14.7582 8.8 15.2 8.8C15.6418 8.8 16 9.15817 16 9.6Z" fill="#E5E5E5"/>
</svg>
