<svg xmlns="http://www.w3.org/2000/svg" viewBox="0 0 507 507"><path d="M253.5 0C113.5 0 0 113.5 0 253.5S113.5 507 253.5 507 507 393.5 507 253.5 393.5 0 253.5 0zM420 131.6l-26.2 25c-2.2 1.7-3.4 4.5-2.9 7.3v184c-.5 2.8.7 5.6 2.9 7.3l25.6 25v5.5H290.8v-5.5l26.5-25.7c2.6-2.6 2.6-3.4 2.6-7.3V198.7l-73.7 186.7h-10l-85.7-186.7v125.1c-.8 5.3 1 10.6 4.7 14.3l34.4 41.7v5.5H92v-5.4l34.4-41.7c3.7-3.8 5.4-9.1 4.4-14.3V179.2c.4-4-1.2-8-4.1-10.7l-30.6-36.8v-5.5h95.1L264.7 287l64.6-160.8H420v5.4z" fill="#fff"/></svg>