<svg width="37" height="35" viewBox="0 0 37 35" fill="none" xmlns="http://www.w3.org/2000/svg">
<path d="M9.72963 34.3873C9.82099 34.4782 9.91235 34.5236 10.0494 34.5236H36.5432C36.8173 34.5236 37 34.3419 37 34.0693V7.72238C37 7.54068 36.9086 7.4044 36.7716 7.35897L24.4383 0.0908514C24.3926 -8.79966e-08 24.3012 0 24.2099 0H15.6679H7.6284H0.45679C0.182716 0 0 0.181703 0 0.454258V24.0757C0 24.2119 0.0456791 24.3028 0.137037 24.3936L9.72963 34.3873ZM36.0864 33.6151H10.5062V8.17664H19.642V14.9905C19.642 15.2631 19.8247 15.4448 20.0988 15.4448H26.037C26.3111 15.4448 26.4938 15.2631 26.4938 14.9905V8.17664H28.0012H36.0864V33.6151ZM20.5556 14.5362V8.17664H25.5802V14.5362H20.5556ZM24.0728 0.908515L34.8531 7.26812H26.6309L17.0383 0.908515H24.0728ZM15.3938 0.908515L24.9864 7.26812H20.2358L10.6432 0.908515H15.3938ZM8.99877 0.908515L18.5914 7.26812H10.1864L1.82716 0.908515H8.99877ZM0.91358 1.36277L9.59259 7.94951V32.9337L0.91358 23.894V1.36277Z" fill="#333333"/>
</svg>
