<svg id="Layer_1" data-name="Layer 1" xmlns="http://www.w3.org/2000/svg" viewBox="0 0 389.82 65.73"><defs><style>.cls-1{fill:#fff;}</style></defs><title>barclays</title><path id="path21" class="cls-1" d="M388.52,19a13.37,13.37,0,0,0-11.47-6.65c-4.29,0-8.07,1.76-8.07,6.32,0,3.84,4.76,6.44,9.71,9.64,5.4,3.39,11,7.55,11,14.78,0,9.45-9.19,15.25-19.81,15.25a39.12,39.12,0,0,1-14.06-2.8l.84-12.58c2.48,5,7.1,9,13.94,9,5.28,0,9.18-2.54,9.18-7,0-3.78-3.19-6.12-7.1-8.46-8.21-5-13.41-8.93-13.41-16.09,0-10.75,9-14.33,18.3-14.33,5.4,0,8.79,1,12.24,1L388.52,19M343,30.23c-1.17,2-2.66,4.62-3.58,6.58a72.3,72.3,0,0,0-1.17,14.13c0,2.28.39,5.34,1.43,6.39H326.06c2.41-2.28,3.39-16.28,3.26-20.71a108.09,108.09,0,0,0-8.08-19.74c-2.41-4.62-5.21-9-7-9.84,3.06-.25,7-.45,8.86-.45,3.38,0,4.3.45,6.38,5,3.26,7.36,5.67,12.89,7.1,17,3.45-5.41,5.86-9.12,9-14.2a8.48,8.48,0,0,0,1.43-4.3A5.31,5.31,0,0,0,346.32,7H359.8c-2.61.59-14.33,19-16.81,23.19M295.64,18.84l-8.07,17.51h13.15l-5.08-17.51m15.83,38.94c-4.3,0-4.62-.13-8.08-12l-1.23-4.36c-2.09,1-5.8,1.43-11.73,1.43h-6l-1,2.21c-1.5,3.33-3.52,7.23-3.52,10a8,8,0,0,0,.33,2.28H244.64c2-2.28,2.68-9.64,3.65-23l.2-3.19c.52-7.63.91-13.49.84-17.59-.06-3.38-.39-5.54-1.3-6.51h13.75c-2,1.5-2.68,9.57-3.59,22.93l-.26,3.19c-.33,4.95-1,10-1,15,0,2.27.91,2.8,3.25,2.8,8.34,0,10.43-.2,14.2-2.74,2.34-4.3,5-9.71,7.62-15.31l3.52-7.49c3.32-7,6.58-14.2,6.58-15.56A7.12,7.12,0,0,0,291.48,7h10.94s4.43,16.42,5.41,19.93l2.14,8c3.71,13.36,6.06,19.87,9.19,22.41-2.61.32-6.32.45-7.69.45m-88.64.53c-13,0-20.46-10.69-20.46-22.67,0-16.67,9-29.57,26.32-29.57,5.4,0,7.94,1,12.3,1l-1.3,12.84c-2.47-4.5-6.51-7.56-11.92-7.56-10.74,0-15.11,11.6-15.11,21.56,0,10.81,6.06,16.74,14.14,16.74,4.36,0,8.2-1.18,14.65-5.67-2.6,8.34-8.66,13.36-18.62,13.36M177.89,13.17a38.59,38.59,0,0,0-3.91.13c-.39,2.15-.72,5.86-1.18,11.85l-.26,3.52a12.48,12.48,0,0,0,2.28.2c6.25,0,10.55-3.78,10.55-9.51,0-3.91-2.73-6.19-7.48-6.19m18.16,46.31c-3.71,0-4.62-.59-5.86-2.28L176.12,37.66c-1.1-1.5-2-2.74-3.71-2.74h-.32l-.26,3.78c-.33,5.14-.53,9.25-.53,12.31.07,3.39.46,5.47,1.37,6.32H159.06c1.95-1.76,2.67-7.62,3.78-23l.19-3.19c.53-7.55.92-13.41.85-17.52-.07-3.58-.45-5.79-1.43-6.58H181c6.05,0,14.39,1,14.39,10.88,0,8.08-5.41,12.51-12.11,14.59a33.51,33.51,0,0,1,2.54,3l10.22,13.55c6.39,8.4,6.91,8.79,9.19,10a91,91,0,0,1-9.19.46M132.62,18.84l-8.15,17.51h13.22l-5.07-17.51m15.82,38.94c-4.29,0-4.62-.13-8.07-12l-1.24-4.36c-2.09,1-5.8,1.43-11.73,1.43h-6l-1,2.21c-1,2.35-3.58,7.17-3.52,10a8.34,8.34,0,0,0,.33,2.28H105.13C108.58,53.88,113,45.87,119,32.91l3.52-7.49c3.19-6.78,6.58-14.46,6.58-15.57a7,7,0,0,0-.65-2.8h10.94S142.26,17.92,144.8,27L147,34.92c3.71,13.36,6.05,19.87,9.18,22.41-2.8.32-6.32.45-7.69.45m-62-44.68a34.2,34.2,0,0,0-3.51.13c-.52,3.52-.85,6.91-1.11,10.62,0,0-.19,3.19-.19,3.06h1.3c6.38,0,12.25-2.21,12.25-8.07,0-3.39-2.81-5.74-8.74-5.74M84.81,33H81.23l-.52,7.43c-.26,3.26-.39,6-.46,9.25,0,.45,1.43,1.43,4.82,1.43,7,0,11.66-3.52,11.66-9.31,0-6.45-5.28-8.8-11.92-8.8m.78,24.3H68c2.22-2,2.81-9.58,3.78-23l.2-3.12c.52-7.62.91-13.48.85-17.59-.07-3.51-.46-5.79-1.44-6.58H91.06c4.69,0,14.07.27,14.07,10,0,6.52-6.06,10.56-11.59,12,7.81.78,13.68,4.56,13.68,12.64,0,8.72-8.21,15.63-21.63,15.63" transform="translate(0 0)"/><path id="path4050" class="cls-1" d="M28.42,0c-1.74,0-2.1.31-2.67.94-.22,0-.45,0-.69,0A8.1,8.1,0,0,0,20.53,2.1c-1.42.93-2.1,2.59-1.34,3.8,0,0,.51-.74,2.17-.74.24,0,.5,0,.77,0,2.31.27,4,1.48,3.81,4.69s-1.39,6.76-6.3,6.81c0,0-.63,0-1.3-.07a3.73,3.73,0,0,1-3-1.68,3,3,0,0,0,2-3c0-1.71-1.5-3.27-3.64-3.9a8.3,8.3,0,0,0-2.27-.3,9.13,9.13,0,0,0-7.28,3.55C-.2,17-.56,25.34.5,33.1s6,15,6.14,15.17.2.22.31.22a.29.29,0,0,0,.17-.08,26.1,26.1,0,0,0,5-6.78c.93.74.44,2.32-.07,4A25.71,25.71,0,0,1,10,50.38c-.42.72-1,1.56-.22,2a.49.49,0,0,0,.28.07c1,0,3.2-1.66,5.71-5A38.29,38.29,0,0,0,20,40.34c.21,0,.55.39.49,1.34a23.41,23.41,0,0,1-2.95,7.87,45.45,45.45,0,0,1-4.1,5.88c-.23.27,0,.45.11.56a48.08,48.08,0,0,0,8.58,6c5.92,3.16,8.55,3.72,8.55,3.72s2.62-.55,8.54-3.7A45.72,45.72,0,0,0,47.79,56a.34.34,0,0,0,.12-.55,45.36,45.36,0,0,1-4.09-5.88,23.31,23.31,0,0,1-3-7.85c0-1,.28-1.28.48-1.35a38.79,38.79,0,0,0,4.25,7.1c2.51,3.34,4.74,5,5.7,5a.56.56,0,0,0,.3-.07c.72-.44.18-1.29-.24-2a29.39,29.39,0,0,1-2.1-4.74c-.49-1.7-1-3.28,0-4a25.68,25.68,0,0,0,5,6.77.26.26,0,0,0,.19.08.38.38,0,0,0,.28-.2c.16-.21,5.1-7.4,6.15-15.18S61.55,17,57.22,11.27a9.14,9.14,0,0,0-7.3-3.57,8.11,8.11,0,0,0-2.25.3c-2.16.65-3.64,2.23-3.62,3.91A3,3,0,0,0,46,15a3.68,3.68,0,0,1-3,1.68,9.46,9.46,0,0,1-1.28.08,5.22,5.22,0,0,1-4.66-2.52c-1.34-1.87-1.3-5.74-1.38-7S35.34,2.92,34,1.72A7.67,7.67,0,0,0,28.84,0h-.42" transform="translate(0 0)"/></svg>