<svg id="Default" xmlns="http://www.w3.org/2000/svg" viewBox="0 0 324 103.36"><defs><style>.cls-1{fill:#fff;}</style></defs><title>conservation-international</title><path class="cls-1" d="M18,64.5v0a9.93,9.93,0,0,1,10.19-10.1,10.11,10.11,0,0,1,7.7,3l-2.74,3.15a7.22,7.22,0,0,0-5-2.2,5.78,5.78,0,0,0-5.67,6.08v.06c0,3.35,2.32,6.14,5.67,6.14a7.06,7.06,0,0,0,5.13-2.29L36,71.06a10,10,0,0,1-8,3.49,9.86,9.86,0,0,1-10-10" transform="translate(-18 -23.32)"/><path class="cls-1" d="M37,64.5v0a10.1,10.1,0,0,1,10.41-10.1,10,10,0,0,1,10.36,10v.06a10.1,10.1,0,0,1-10.41,10.1A10,10,0,0,1,37,64.5m16.27,0v0a5.93,5.93,0,0,0-5.91-6.14,5.85,5.85,0,0,0-5.87,6.08v.06a5.94,5.94,0,0,0,5.92,6.14,5.85,5.85,0,0,0,5.86-6.09" transform="translate(-18 -23.32)"/><polygon class="cls-1" points="42.63 31.36 46.59 31.36 55.74 43.39 55.74 31.36 59.98 31.36 59.98 50.9 56.33 50.9 46.87 38.48 46.87 50.9 42.63 50.9 42.63 31.36"/><path class="cls-1" d="M81.43,71.37l2.54-3A9,9,0,0,0,89.8,70.7c1.75,0,2.82-.7,2.82-1.84V68.8c0-1.09-.67-1.65-3.94-2.48-3.93-1-6.47-2.1-6.47-6v-.05c0-3.54,2.85-5.89,6.84-5.89a11.31,11.31,0,0,1,7.25,2.49l-2.23,3.23A9.15,9.15,0,0,0,89,58.2c-1.64,0-2.51.75-2.51,1.7V60c0,1.29.83,1.71,4.21,2.57,4,1,6.19,2.46,6.19,5.86v.06c0,3.88-3,6-7.17,6a12.38,12.38,0,0,1-8.28-3.12" transform="translate(-18 -23.32)"/><polygon class="cls-1" points="82.65 31.36 97.38 31.36 97.38 35.19 86.92 35.19 86.92 39.15 96.12 39.15 96.12 42.97 86.92 42.97 86.92 47.08 97.52 47.08 97.52 50.9 82.65 50.9 82.65 31.36"/><path class="cls-1" d="M120,54.68h8.93a7.75,7.75,0,0,1,5.69,2,6.11,6.11,0,0,1,1.68,4.46v0a6.07,6.07,0,0,1-4.19,6.06l4.77,7h-5L127.63,68h-3.38v6.26H120V54.68Zm8.65,9.49c2.09,0,3.29-1.12,3.29-2.76v-.06c0-1.84-1.28-2.79-3.38-2.79h-4.26v5.61Z" transform="translate(-18 -23.32)"/><polygon class="cls-1" points="119.82 31.36 124.56 31.36 129.66 45.12 134.77 31.36 139.41 31.36 131.51 51.04 127.71 51.04 119.82 31.36"/><path class="cls-1" d="M164,54.54h4l8.37,19.68h-4.49L170,69.83h-8.26L160,74.22h-4.37ZM168.5,66l-2.6-6.34L163.3,66Z" transform="translate(-18 -23.32)"/><polygon class="cls-1" points="163.08 35.33 157.14 35.33 157.14 31.36 173.33 31.36 173.33 35.33 167.38 35.33 167.38 50.9 163.08 50.9 163.08 35.33"/><rect class="cls-1" x="176.54" y="31.36" width="4.29" height="19.53"/><path class="cls-1" d="M202.3,64.5v0a10.38,10.38,0,0,1,20.76-.06v.06a10.38,10.38,0,0,1-20.76,0m16.27,0v0a5.94,5.94,0,0,0-5.92-6.14,5.84,5.84,0,0,0-5.86,6.08v.06a5.94,5.94,0,0,0,5.92,6.14,5.85,5.85,0,0,0,5.86-6.09" transform="translate(-18 -23.32)"/><polygon class="cls-1" points="208.6 31.36 212.56 31.36 221.72 43.39 221.72 31.36 225.96 31.36 225.96 50.9 222.31 50.9 212.84 38.48 212.84 50.9 208.6 50.9 208.6 31.36"/><rect class="cls-1" x="2.67" y="58.66" width="2.15" height="19.02"/><polygon class="cls-1" points="10.03 58.66 12.05 58.66 24.03 73.91 24.03 58.66 26.12 58.66 26.12 77.68 24.41 77.68 12.13 62.08 12.13 77.68 10.03 77.68 10.03 58.66"/><polygon class="cls-1" points="36.17 60.65 29.79 60.65 29.79 58.66 44.74 58.66 44.74 60.65 38.35 60.65 38.35 77.68 36.17 77.68 36.17 60.65"/><polygon class="cls-1" points="48.41 58.66 62.16 58.66 62.16 60.62 50.55 60.62 50.55 67.11 60.93 67.11 60.93 69.07 50.55 69.07 50.55 75.73 62.29 75.73 62.29 77.68 48.41 77.68 48.41 58.66"/><path class="cls-1" d="M84.26,82h8.18a7.51,7.51,0,0,1,5.4,1.9,5.23,5.23,0,0,1,1.47,3.75v.05c0,3.16-2.17,5-5.16,5.55L100,101H97.35l-5.51-7.39H86.41V101H84.26Zm8,9.7c2.85,0,4.89-1.47,4.89-3.92v-.05c0-2.34-1.79-3.75-4.86-3.75H86.41v7.72Z" transform="translate(-18 -23.32)"/><polygon class="cls-1" points="85.55 58.66 87.56 58.66 99.54 73.91 99.54 58.66 101.64 58.66 101.64 77.68 99.92 77.68 87.64 62.08 87.64 77.68 85.55 77.68 85.55 58.66"/><path class="cls-1" d="M131.7,81.85h2L142.38,101h-2.31l-2.23-5H127.49l-2.26,5H123ZM137,94l-4.32-9.7L128.33,94Z" transform="translate(-18 -23.32)"/><polygon class="cls-1" points="130.36 60.65 123.97 60.65 123.97 58.66 138.92 58.66 138.92 60.65 132.53 60.65 132.53 77.68 130.36 77.68 130.36 60.65"/><rect class="cls-1" x="142.78" y="58.66" width="2.15" height="19.02"/><path class="cls-1" d="M167.3,91.55v-.06a9.71,9.71,0,1,1,19.41-.06s0,0,0,.06a9.71,9.71,0,1,1-19.41.06m17.17,0v-.06A7.55,7.55,0,0,0,177,83.64a7.47,7.47,0,0,0-7.45,7.79v.06a7.57,7.57,0,0,0,7.5,7.86,7.47,7.47,0,0,0,7.44-7.8" transform="translate(-18 -23.32)"/><polygon class="cls-1" points="172.89 58.66 174.9 58.66 186.89 73.91 186.89 58.66 188.98 58.66 188.98 77.68 187.27 77.68 174.98 62.08 174.98 77.68 172.89 77.68 172.89 58.66"/><path class="cls-1" d="M219.05,81.85h2L229.73,101h-2.31l-2.23-5H214.84l-2.27,5h-2.19ZM224.34,94,220,84.34,215.68,94Z" transform="translate(-18 -23.32)"/><polygon class="cls-1" points="215.12 58.66 217.27 58.66 217.27 75.7 227.97 75.7 227.97 77.68 215.12 77.68 215.12 58.66"/><path class="cls-1" d="M271.83,93.48a41.1,41.1,0,1,1,29.07,12h0a41,41,0,0,1-29.05-12M283,46.56a25.25,25.25,0,1,0,17.86-7.39A25.19,25.19,0,0,0,283,46.56" transform="translate(-18 -23.32)"/><rect class="cls-1" x="252.46" y="87.51" width="60.87" height="15.85"/></svg>