<svg id="Ebene_1" data-name="Ebene 1" xmlns="http://www.w3.org/2000/svg" viewBox="0 0 175.75 24.85"><defs><style>.cls-1{fill:#fff;}</style></defs><title>dhl</title><path class="cls-1" d="M56.67,16.21c-.77,1-2.06,2.84-2.84,3.9-.4.54-1.11,1.51,1.26,1.51H67.61l3.71-5c2.3-3.12.19-9.62-8-9.62H30.91l-5.62,7.63H55.9C57.44,14.59,57.42,15.18,56.67,16.21Zm-9.2,7.29c-2.38,0-1.66-1-1.26-1.51.78-1.06,2.09-2.84,2.85-3.89s.78-1.61-.77-1.61h-14L23,31.82h27.5c9.08,0,14.14-6.18,15.7-8.31C66.22,23.5,50,23.5,47.47,23.5Zm17.89,8.32H81.49l6.12-8.32H71.48S65.36,31.82,65.36,31.82ZM107,7l-6.19,8.4H93.6L99.78,7H83.65L72.86,21.62h39.46L123.11,7ZM88.69,31.82h16.13l6.12-8.31H94.81S88.69,31.82,88.69,31.82ZM0,26.78v1.77H22.47l1.3-1.77ZM26.18,23.5H0v1.77H24.88ZM0,31.82H20.06l1.29-1.76H0Zm152.07-3.27h23.68V26.78H153.37Zm-2.4,3.27h26.08V30.06H151Zm6.11-8.32-1.29,1.77h21.26V23.5Zm-21.12-1.88L145.45,7H128.37s-10.8,14.65-10.8,14.65ZM116.19,23.5l-1.76,2.39c-2,2.74-.23,5.93,6.38,5.93h25.9l6.12-8.32Z" transform="translate(0 -6.96)"/></svg>