<svg id="svg2" xmlns="http://www.w3.org/2000/svg" viewBox="0 0 466.89 466.89"><defs><style>.cls-1{fill:#fff;}</style></defs><title>general-electric</title><path id="path16" class="cls-1" d="M305,186.21c0-27.86,18.86-54.88,29.15-49.79,11.73,5.88-8.79,32.12-29.15,49.79M176.71,196.36c0-22.4,22.1-65,35.6-60.46,16,5.32-13.22,48.25-35.6,60.46M154.3,356.56c-10.16.46-17-6-17-16.89,0-29.15,40.45-57,71-71.95-5.42,40.7-19.17,87.27-54,88.84m186.62-95c-23.07,0-40.7,17-40.7,37.32,0,17,10.2,30.54,23.73,30.54,4.79,0,9.53-2.73,9.53-8.79,0-8.87-11.7-11-10.82-24.19.59-8.7,8.79-14.52,16.93-14.52,16.27,0,23.88,15.77,23.88,32-.66,25.13-19.16,42.58-40.84,42.58-28.52,0-46.84-27.12-46.84-56.31,0-43.46,28.52-60.42,43.46-64.47.14,0,39,6.91,37.81-10.23-.56-7.54-11.77-10.44-19.87-10.75-9-.35-18.11,2.89-18.11,2.89-4.72-2.4-8-7.09-10-12.49,27.83-21.06,47.51-41.4,47.51-64.48,0-12.21-8.16-23.07-23.77-23.07-27.83,0-48.87,35.29-48.87,67.19,0,5.41,0,10.86,1.4,15.6-17.66,12.88-30.79,20.91-54.52,35.16A121.11,121.11,0,0,1,233.42,215c8.13-8.83,19.3-22.06,19.3-32.25,0-4.74-2.69-8.83-8.17-8.83-13.55,0-23.71,20.38-26.43,34.63-6.11,7.5-18.33,17-28.53,17-8.13,0-10.86-7.47-11.55-10.2,25.8-8.83,57.7-44.12,57.7-76,0-6.77-2.72-21.72-23.07-21.72-30.54,0-56.3,45.49-56.3,80.74-10.89,0-14.94-11.52-14.94-20.35s3.39-17.63,3.39-20.36-1.36-6.1-5.45-6.1c-10.16,0-16.27,13.57-16.27,29.18.7,21.72,14.94,35.33,33.93,36.66,2.72,12.91,14.24,25.13,28.48,25.13,8.84,0,19.69-2.72,27.16-9.49-.66,4.74-1.32,8.83-2,12.88-29.88,15.64-51.6,26.49-71.28,44.13C123.8,304.33,115,323.32,115,338.23c0,20.39,12.88,39.38,39.34,39.38,31.2,0,55-25.1,66.53-59.73,5.41-16.27,7.58-40,9-61.72,31.18-17.67,46-27.85,62.28-39.41a27.29,27.29,0,0,0,6.77,8.13c-14.24,7.47-48.17,28.52-48.17,78.05,0,35.29,23.73,74.67,70.59,74.67,38.68,0,65.14-31.91,65.14-62.46,0-27.8-15.62-53.57-45.5-53.57m116.69,58.3c-.1.21-.48.49-1.25.24-.6-.21-.73-.49-.73-.88s8.2-24.54,8.13-52.22c-.07-29.92-12.21-48.25-27.78-48.25-9.53,0-16.31,6.81-16.31,17,0,18.32,22.38,19.69,22.38,59.72,0,16.27-3.39,31.88-8.79,48.84C408.12,429.15,328,468.53,250,468.53c-36,0-61.55-7.4-69.15-10.81a1.14,1.14,0,0,1-.35-1.37c.17-.45.7-.8,1-.66,3.08,1.19,25,8.1,52.19,8.1,29.85,0,47.51-12.21,47.51-27.16a16.8,16.8,0,0,0-17-17c-18.33,0-19.72,23.07-59.07,23.07-17,0-31.9-3.39-49.53-8.84C71.5,408.12,31.43,328.74,31.46,250c0-38.36,10.79-68.91,11-69.19a1.07,1.07,0,0,1,1.21-.2.91.91,0,0,1,.7.87,179.62,179.62,0,0,0-8.1,52.23c0,29.88,12.21,47.51,27.82,47.51A16.06,16.06,0,0,0,80.32,265c0-18.35-22.41-20.38-22.41-59.75,0-17,3.42-31.91,8.83-49.54C92.54,71.52,172,32.08,250,31.47c36.27-.28,68,10.58,69.22,11.55a1.08,1.08,0,0,1,.21,1.19c-.29.66-.71.73-.91.69-.38,0-21-8.66-52.26-8.66-29.18,0-47.51,12.19-47.51,27.82,0,8.8,6.81,16.27,17,16.27,18.33,0,19.69-22.38,59.07-22.38,16.92,0,31.87,3.35,49.5,8.8C429.15,92.54,467.76,172.62,468.49,250c.4,39.63-10.77,69.61-10.88,69.86M250,16.55C121.07,16.55,16.56,121,16.56,250S121.07,483.44,250,483.44,483.45,379,483.45,250C483.45,121.73,378.94,16.55,250,16.55" transform="translate(-16.56 -16.55)"/></svg>