<svg id="Layer_1" data-name="Layer 1" xmlns="http://www.w3.org/2000/svg" viewBox="0 0 250 40.94"><defs><style>.cls-1{fill:#fff;}</style></defs><title>novartis</title><g id="_Group_" data-name=" Group "><path id="_Path_" data-name=" Path " class="cls-1" d="M25,18.34l-.1.26c1.69.75,5.49,3.7,5.49,9.65,0,5.6-4.72,11.25-12.14,11.25C9,39.5,5.83,34.1,5.83,29.14c0-6.36,4.44-10.59,4.44-16.38A9,9,0,0,0,3.15,4L3,4.29A7.51,7.51,0,0,1,5.27,9.71C5.27,16,0,20.41,0,27.59,0,34.2,4.62,40.94,18,40.94c11.92,0,18.21-5.84,18.21-12.06C36.2,23.55,32.39,19,25,18.34Z" transform="translate(0 0)"/><path id="_Compound_Path_" data-name=" Compound Path " class="cls-1" d="M77.39,39.87,61.53,19.43V37.85l3.24.77v.85H57.4v-.85L60,37.85V17.78a5.74,5.74,0,0,0-2.26-1.29L57,16.35V15.5h6.26L76.82,33.11v-16l-3.23-.78v-.85H81v.85l-2.64.78V35.41c0,1.69.12,4.15.14,4.47Zm33.14-13c0,8.47-5.93,13.37-12.4,13.37A12.35,12.35,0,0,1,85.71,27.51,12.38,12.38,0,0,1,98.07,14.75a12.06,12.06,0,0,1,12.45,11.66c0,.15,0,.3,0,.45Zm-4.12,1.27c0-6.22-3.73-12.25-8.79-12.25-5.38,0-7.81,5.2-7.81,10.77s3.07,12.48,8.85,12.48C104.1,39.12,106.41,33.61,106.41,28.12Zm9.24-11-2.54-.78V15.5h9.72v.84l-3,.78,6.71,18.3,6.71-18.3-3.05-.78V15.5h7.2v.84l-2.54.78-8.41,22.81h-2.15Zm57.46,10.11h-1.54V16.76c5.08,0,8.1,1.16,8.1,5.31C179.65,25.15,177,27.23,173.11,27.23Zm43.51,11.39,3.39-.77V17.13l-3.39-.78V15.5h10.55v.85l-3.38.78V37.85l3.38.77v.85H216.62Zm17-5.73h.67l2.24,5.16a10.15,10.15,0,0,0,4.29,1.07c2.91,0,5.57-1.7,5.57-4.73,0-2.3-1.49-3.67-3.9-4.93l-2.39-1.24c-2.85-1.48-5.7-3.58-5.7-6.95,0-3.68,2.54-6.51,8-6.51a18.79,18.79,0,0,1,5.62.92l.57,5.55h-.72l-2.08-4.45a7.17,7.17,0,0,0-3.51-.91c-2.75,0-4.62,1.69-4.62,4,0,2.13,1.42,3.47,3.84,4.72l2.82,1.47c3.86,2,5.69,3.85,5.69,7.28,0,4.23-4,6.86-8.9,6.86a21.19,21.19,0,0,1-6.85-1Zm-97.83,5.73,2.71-.77,8.39-22.36,2.8-.72,8.66,23.08,2.72.77v.85H150.81v-.85l3.48-.77-2.45-6.64h-9.23l-2.44,6.64,3.48.77v.84h-7.84Zm7.44-9.18h8l-4-10.7ZM178,27.75c.85-.21,5.6-1.42,5.6-5.92,0-3.62-2.77-6.42-9.59-6.42-4.23,0-8.46.09-9,.11v.85l2.79.78v20.7l-2.79.77v.85h9.85v-.85l-3.23-.77V28.49h2.78l7.12,11h6.31v-.85l-3.19-.84Zm20.81-11v21.1l-3.39.77v.85h10.55v-.85l-3.38-.77V16.76h5.69l1.88,4h.73l-.54-5.27H191l-.54,5.27h.73l1.86-4ZM18.16,32,21.55,0h-7l3.39,32Z" transform="translate(0 0)"/></g></svg>