<svg id="svg2759" xmlns="http://www.w3.org/2000/svg" viewBox="0 0 1052.36 744.1"><defs><style>.cls-1{fill:none;}.cls-2{fill:#fff;}</style></defs><title>philips</title><rect class="cls-1" width="1052.36" height="744.1"/><g id="g2853"><path id="path2859" class="cls-2" d="M169.53,1.83H142.68v35H114.73v-35H87.88v88h26.85V55.19h28v34.6h26.85Zm93.4,70.29V1.83H236.08v88h48.55l4-17.67ZM216.23,1.83H189.38v88h26.85Zm108.85,0H298.24v88h26.84ZM457.46,24.28c0-4.79,4.78-7,12.5-7a67.2,67.2,0,0,1,23.91,4.44l-2.2-19.15A104.71,104.71,0,0,0,467,0c-21.7,0-36.41,8.56-36.41,26.5,0,30.91,41.94,24.66,41.94,39,0,5.52-4.07,8.45-14,8.45C449.76,74,436.13,71,428,67L431,87.22c8.09,3,19.12,4.41,27.95,4.41,22.43,0,40.82-7.36,40.82-29.45,0-29.43-42.3-23.91-42.3-37.9M381.72,68.82c25,0,40.81-12.89,40.81-35.34C422.53,8.83,405.62,0,378,0a302.94,302.94,0,0,0-32.72,1.84v88h26.85v-21Zm14.33-35c0,11.4-5.51,19.14-19.5,19.14h-4.4V16.64c1.57-.09,3-.09,4.4-.09,13.24,0,19.5,6.25,19.5,17.3M36.4,68.82c25,0,40.82-12.89,40.82-35.34C77.22,8.83,60.3,0,32.73,0A303.32,303.32,0,0,0,0,1.83v88H26.84v-21Zm14.35-35c0,11.4-5.52,19.14-19.5,19.14H26.84V16.64c1.56-.09,3-.09,4.41-.09,13.24,0,19.5,6.25,19.5,17.3" transform="translate(281.62 278.32)"/></g></svg>