<svg id="Layer_1" data-name="Layer 1" xmlns="http://www.w3.org/2000/svg" viewBox="0 0 306.1 57.73"><defs><style>.cls-1{fill:#fff;}</style></defs><title>sainsburys</title><path class="cls-1" d="M73.63,9c-2.86,0-4.77-1.75-4.77-4.4,0-2.2,1.54-4.12,4.77-4.12s4.63,2,4.63,4.2c0,2.7-1.75,4.4-4.63,4.4M46.2,46.6c-6.17,0-11.44-3.48-11.44-10.1,0-8,8.88-9.75,12.76-10.27,6.38-.8,7-1.24,7-2.93,0-3.58-.64-6.5-5.13-6.5a14.49,14.49,0,0,0-7.74,2.25l-1.2.8c-.4.3-1.1,1.1-1.9,1.1a1.37,1.37,0,0,1-1.2-1.47V16.2a2,2,0,0,1,1.1-1.78,28.42,28.42,0,0,1,11.5-2.27c10.4,0,13.5,4.1,13.5,10V45a.81.81,0,0,1-.9.86h-6.7a.83.83,0,0,1-.7-.86l-.2-1.9a12.65,12.65,0,0,1-8.5,3.5M54.71,29c-8.1,0-11.2,3.65-11.2,7.62,0,2.76,1.5,5.57,5.4,5.57,3.4,0,5.9-2.56,5.9-3.53V29m106.9,17.7a19.12,19.12,0,0,1-11.7-3.8,4,4,0,0,1-1.3-3.4V1.77a.87.87,0,0,1,.7-.9h7.1a.88.88,0,0,1,.9.9V16.35a14.43,14.43,0,0,1,9.6-3.74c7.6,0,12.4,6.6,12.4,15.4,0,11.3-7.8,18.8-17.5,18.8m-4.6-6.6a2,2,0,0,0,1,1.9c.7.5,1.8.8,4,.8,4.67,0,8-4.8,8-13,0-3-.7-11.7-7.37-11.7a9.46,9.46,0,0,0-5.7,2.3v19.8m90,17.7a11.69,11.69,0,0,1-3-.3,1.61,1.61,0,0,1-1.47-1.5V52a1,1,0,0,1,1-1,9.12,9.12,0,0,1,2.24.4,19,19,0,0,0,3.9.5c4.1,0,7.1-2.1,7.2-6.2l-13.3-30.8a4.77,4.77,0,0,1-.4-1.2.63.63,0,0,1,.7-.7h8a1,1,0,0,1,1.1.8l8,21,7.7-21a1,1,0,0,1,1-.8h3.3a.67.67,0,0,1,.6.7c0,.3-.2.5-.3.9L260,49.2A14.28,14.28,0,0,1,247.2,58M13.3,46.87a28.3,28.3,0,0,1-12.08-2.7,1.5,1.5,0,0,1-.87-1.5V39c0-.67.23-1.33,1.47-1.33.66,0,1.1.35,2,1a18.41,18.41,0,0,0,10.4,3.7c5.12,0,8.6-3.1,8.6-6.94C22.9,25.43,0,28.5,0,13.7,0,6.85,5.28.86,15,.86a34.81,34.81,0,0,1,11.73,1.9,1.18,1.18,0,0,1,.8,1.32V8.33c0,.65-.2,1.16-1,1.16-.65,0-1.17-.4-2-1-2.93-2.1-5.73-3.4-9.4-3.4-4.1,0-7.32,2.2-7.32,5.6,0,8.4,23.23,7.5,23.23,21,0,10.2-8.5,15-17.8,15m63.9-1h-7.1a.88.88,0,0,1-.8-.9v-31a.89.89,0,0,1,.7-.9h7a.9.9,0,0,1,.9.9V45a.85.85,0,0,1-.9.87m120.6.7c-7.3,0-14.6-3-14.6-11.3V13.9a.81.81,0,0,1,.7-.9h7.1a.9.9,0,0,1,.9.9V37c0,3.44,2.2,5.57,5.9,5.57,4.5,0,6-2.54,6-7.3V13.8a.81.81,0,0,1,.7-.9h7a.9.9,0,0,1,.9.9V34.4c0,9.1-7.4,12.16-14.7,12.16m-84.1-.62h-7.1c-.4,0-.7-.38-.7-.9V23c0-2.5-.4-5.44-5.2-5.44-2.5,0-5.5,1.45-6.9,2.25v25.2a.84.84,0,0,1-.9.9h-7a.86.86,0,0,1-.7-.9V13.85a.89.89,0,0,1,1-.9h7a.89.89,0,0,1,.92.9v1.67a21.69,21.69,0,0,1,10.6-3.3c7.1,0,10.2,4.1,10.2,10.1V45.05a.84.84,0,0,1-.9.9m17.4.8a25.32,25.32,0,0,1-10-2.13,1.85,1.85,0,0,1-1-1.88V39.86c0-1,.5-1.33,1.2-1.33a2.11,2.11,0,0,1,1.4.6,16.09,16.09,0,0,0,9.3,3.37c3.3,0,5.7-1.4,5.7-4.1,0-6.3-18.4-3.9-18.4-15.56,0-7.14,6.1-10.37,13-10.37a24.7,24.7,0,0,1,9.3,1.87,1.8,1.8,0,0,1,1.1,1.9v2.43c0,1-.4,1.32-1.1,1.32a3.88,3.88,0,0,1-1.4-.6,16.78,16.78,0,0,0-9.1-2.8c-3,0-5.4,1.1-5.4,3.5,0,5.8,18.8,3.1,18.8,14.7,0,8.8-6.4,11.8-13.1,11.8m95.5-.9h-7a.84.84,0,0,1-.7-.9v-31a.84.84,0,0,1,.7-.9h6.8a.87.87,0,0,1,.9.9l.15,3.9s.05,0,.06-.1c1.4-2.1,4.7-5.4,8.75-5.4a13.22,13.22,0,0,1,3.2.3c1,.2,1.5.8,1.5,1.5v4.6a1,1,0,0,1-1,1,8.31,8.31,0,0,1-2.45-.6,15.67,15.67,0,0,0-3.15-.3c-3.4,0-6.8,1.3-6.8,6v19.8a.86.86,0,0,1-.85.9m50.5-33.2c-1.7.5,1.7-3.6,1.15-5.8s-3-5-1.3-5.66,4.9-.66,5.8.5c2,3.84-.7,10.15-5.67,10.9ZM293,46.7a25,25,0,0,1-10-2.14,1.79,1.79,0,0,1-1.07-1.86V39.84c0-1,.45-1.33,1.17-1.33a2.4,2.4,0,0,1,1.4.6,15.78,15.78,0,0,0,9.3,3.4h0c3.22,0,5.7-1.4,5.7-4.1,0-6.3-18.5-3.9-18.5-15.5,0-7.1,6.1-10.3,13-10.3a23.24,23.24,0,0,1,9.3,1.9,1.82,1.82,0,0,1,1.1,1.9v2.5c0,1-.43,1.3-1.2,1.3a3.15,3.15,0,0,1-1.36-.6,16.87,16.87,0,0,0-9.08-2.8c-3,0-5.4,1.1-5.4,3.5,0,5.8,18.7,3.2,18.7,14.8,0,8.8-6.4,11.9-13.12,11.9" transform="translate(0 -0.28)"/></svg>