<svg id="Santander" xmlns="http://www.w3.org/2000/svg" viewBox="0 0 238.2 41.5"><defs><style>.cls-1{fill:#fff;}</style></defs><title>santander</title><path class="cls-1" d="M31.5,19.5a9.38,9.38,0,0,0-1.3-4.3L23.4,3.3A10.21,10.21,0,0,1,22.3.4L22,.9a9.49,9.49,0,0,0,0,9.5l5.5,9.5a9.49,9.49,0,0,1,0,9.5l-.3.5A10.21,10.21,0,0,0,26.1,27l-5-8.7-3.2-5.6a10.21,10.21,0,0,1-1.1-2.9l-.3.5a9.49,9.49,0,0,0,0,9.5h0L22,29.3a9.49,9.49,0,0,1,0,9.5l-.3.5a10.21,10.21,0,0,0-1.1-2.9L13.7,24.5a10.56,10.56,0,0,1-1.3-5.2C5.1,21.2,0,25.3,0,30c0,6.6,9.8,11.9,21.9,11.9S43.8,36.6,43.8,30C43.9,25.5,38.9,21.4,31.5,19.5ZM52.2,39.8a13.63,13.63,0,0,1,.8-4.2,18.76,18.76,0,0,0,7.5,1.6c3.8,0,6-1.2,6-3.7s-1.6-3.5-5.4-5.2L59,27.5c-3.9-1.7-6.5-3.9-6.5-8.2,0-4.7,3.3-7.7,9.9-7.7a22.68,22.68,0,0,1,7.5,1.2,15.69,15.69,0,0,1-.8,4.1,21.69,21.69,0,0,0-6.8-1.2c-3.6,0-5.2,1.4-5.2,3.6s1.6,3.4,4.5,4.6l2.2.9c5.2,2.2,7.4,4.6,7.4,8.6,0,4.7-3.6,8-10.6,8A19.38,19.38,0,0,1,52.2,39.8ZM93.3,20.1V40.7H89.1l-.2-2.5a6.39,6.39,0,0,1-5.8,3c-5.4,0-9.1-4-9.1-10.9,0-7.2,3.9-11.4,11.5-11.4A26.08,26.08,0,0,1,93.3,20.1ZM88.8,36V23.1a16.19,16.19,0,0,0-3.3-.2c-4.7,0-6.9,2.9-6.9,7.5,0,4.2,1.7,7.2,5.7,7.2A7.85,7.85,0,0,0,88.8,36Zm27.7-9.1V40.7H112v-13c0-3.3-1.1-4.8-5.6-4.8a23.8,23.8,0,0,0-3.6.3V40.7H98.3V20.1a39.54,39.54,0,0,1,8.2-1.2C114.1,19,116.5,21.9,116.5,26.9Zm12.6,10.5a9.15,9.15,0,0,0,3.5-.6c-.1,1.2-.3,2.6-.5,3.8a10.21,10.21,0,0,1-3.8.7c-4.4,0-7.2-2-7.2-7V12.6a14.08,14.08,0,0,1,4.5-.7v7.8h7.2c-.1,1.4-.2,2.7-.4,3.9h-6.8V33.7C125.6,36.3,126.9,37.4,129.1,37.4Zm24.3-17.3V40.7h-4.2l-.2-2.5a6.39,6.39,0,0,1-5.8,3c-5.4,0-9.1-4-9.1-10.9,0-7.2,3.9-11.4,11.5-11.4A26.6,26.6,0,0,1,153.4,20.1ZM148.8,36V23.1a16.19,16.19,0,0,0-3.3-.2c-4.7,0-6.9,2.9-6.9,7.5,0,4.2,1.7,7.2,5.7,7.2A7.59,7.59,0,0,0,148.8,36Zm27.8-9.1V40.7H172v-13c0-3.3-1.1-4.8-5.6-4.8a23.8,23.8,0,0,0-3.6.3V40.7h-4.5V20.1a39.54,39.54,0,0,1,8.2-1.2C174.1,19,176.6,21.9,176.6,26.9Zm22.9-15V40.7h-4.2l-.2-2.6a6.32,6.32,0,0,1-5.9,3.1c-5.4,0-9.1-4-9.1-10.9,0-7.2,3.9-11.4,11.5-11.4a18.7,18.7,0,0,1,3.4.3V12.4A16.8,16.8,0,0,1,199.5,11.9ZM195,36V23.3a22,22,0,0,0-3.6-.4c-4.5,0-6.6,2.8-6.6,7.5,0,4.2,1.7,7.2,5.7,7.2A8.13,8.13,0,0,0,195,36Zm27.3-4.1H207.8c.6,3.7,2.7,5.4,6.8,5.4a16.14,16.14,0,0,0,7.2-1.6c-.2,1.2-.4,2.8-.7,4.1a16.35,16.35,0,0,1-6.7,1.3c-7.6,0-11.2-4.2-11.2-11.2,0-6.1,2.8-11,10-11,6.5,0,9.3,4.2,9.3,9.4A20.57,20.57,0,0,1,222.3,31.9Zm-14.5-3.8H218c0-3.4-1.8-5.4-4.9-5.4C209.8,22.8,208.1,24.6,207.8,28.1Zm30.4-8.9a20.37,20.37,0,0,1-.4,3.9c-1.1-.1-2.1-.2-3.4-.2-1.1,0-2.2.1-3.3.2V40.7h-4.5V20.1a25.91,25.91,0,0,1,7.7-1.2C235.6,19,237.2,19,238.2,19.2Z" transform="translate(0 -0.4)"/></svg>