<svg id="svg2985" xmlns="http://www.w3.org/2000/svg" viewBox="0 0 999 117.84"><defs><style>.cls-1{fill:#fff;fill-rule:evenodd;}</style></defs><title>the-times</title><path id="path6054" class="cls-1" d="M66,107.82H19.28v-1.19l13-6.19V24.3h-.1a32.66,32.66,0,0,0-7.38.89,15.09,15.09,0,0,0-6.3,3.64C15.88,31.28,2,45.6,2,45.6L.5,45l2.07-24.8H81L83.63,45l-1.49.58S68.26,31.28,65.6,28.83a15.13,15.13,0,0,0-6.29-3.64,26.14,26.14,0,0,0-6.59-.83v76.08L66,106.53Z" transform="translate(-0.5 -0.5)"/><path id="path6058" class="cls-1" d="M670.35,107.82H623.64v-1.19l13-6.19V24.3h-.1a32.77,32.77,0,0,0-7.39.89,15.13,15.13,0,0,0-6.29,3.64c-2.66,2.45-16.54,16.77-16.54,16.77L604.86,45l2.07-24.8h78.46L688,45l-1.49.58S672.62,31.28,670,28.83a15.13,15.13,0,0,0-6.29-3.64,26.14,26.14,0,0,0-6.59-.83v76.08l13.24,6.09Z" transform="translate(-0.5 -0.5)"/><path id="path6062" class="cls-1" d="M177.76,27.61l10.65-6.09,0-1.3H146.84v1.2l10.77,6V60.09l-40,.28V27.61l10.66-6.09,0-1.3H86.74v1.2L97.5,27.56v73l-10.76,6v1.19h41.6l0-1.29-10.66-6.09V65.27l40,.27v35.05l-10.77,6v1.19h41.61l0-1.29-10.65-6.09Z" transform="translate(-0.5 -0.5)"/><path id="path6090" class="cls-1" d="M266.77,107.82H192.3v-1.19l10.76-6v-73L192.3,21.42v-1.2h72l1.57,22.89-1.32.46S253,31.63,250.34,29.18a15.21,15.21,0,0,0-6.3-3.64,32.38,32.38,0,0,0-7.38-.88l-13.17-.41-.05,37s13.82-.23,15.35-.41c2.09-.25,2.9-.25,5.79-3.61,2.36-2.73,6.1-7.62,6.1-7.62h1.53V79h-1.53S243.42,68.38,242.86,68a7.08,7.08,0,0,0-5.54-2c-3.82,0-13.93-.26-13.93-.26l0,37.8s7.87.1,14.2-.44,9.83-.66,14-4.15,15.06-16.27,15.06-16.27l1.64.55Z" transform="translate(-0.5 -0.5)"/><path id="path6094" class="cls-1" d="M933.22,83.27l-1.64-.55S920.66,95.5,916.51,99s-7.64,3.6-14,4.15-14.2.44-14.2.44l0-37.8s10.11.31,13.93.26a7.08,7.08,0,0,1,5.54,2c.56.36,7.83,10.93,7.83,10.93h1.52V49.62H915.6s-3.75,4.9-6.1,7.62c-2.89,3.36-3.72,3.36-5.8,3.61-1.52.19-15.35.41-15.35.41l0-37,13.18.41a32.43,32.43,0,0,1,7.38.88,15.19,15.19,0,0,1,6.29,3.64c2.65,2.45,14.17,14.38,14.17,14.38l1.32-.45-1.57-22.89h-72v1.2L868,27.56v73l-10.77,6v1.19h74.48" transform="translate(-0.5 -0.5)"/><path id="path6106" class="cls-1" d="M797.58,80.2l26.67-60h29.22l0,1.29-10.65,6.09v72.83l10.65,6.09,0,1.29H811.92v-1.19l10.78-6V38.27L791.22,106.6h-3.81L753.85,36.86v63.56l10.66,6.09,0,1.29H736.59v-1.19l10.77-6V27.43l-10.77-6V20.21h31.62Z" transform="translate(-0.5 -0.5)"/><path id="path6110" class="cls-1" d="M992.45,21.43l1.64,21.63-1.45.28s-15-16.31-16.7-17.66c-.82-.64-7.92-5.7-15.5-.39,0,0-7.38,5-2.65,14.29s18.73,15.83,22.3,18,21.47,10.83,19.21,28.57c-2.11,16.71-17,21.52-23.26,22.7-13.23,2.5-33.69-3.09-33.69-3.09L940.8,83l1.74-.2s15,17.87,20.85,20.08,14,3,18.82-3.18.82-14.88-4-18.15c-6.76-4.64-16.59-9.83-23.46-14.39-7.73-5.12-12.58-12.49-13.62-20.95a23.62,23.62,0,0,1,14.49-25c8.29-3.31,15.06-2.61,21.14-2.23a134.05,134.05,0,0,1,15.64,2.42" transform="translate(-0.5 -0.5)"/><path id="path6074" class="cls-1" d="M701.77,100.57l-10.77,6v1.19h41.6l0-1.29-10.66-6.09V27.59l10.66-6.09,0-1.29H691V21.4l10.77,6Z" transform="translate(-0.5 -0.5)"/><path id="path6078" class="cls-1" d="M440.26,30.45l.71,1.93.39-.17s.05-1.23.35-1.32,1.49-.48,1.58-.26,1,4.3,1.15,4.82.08.79-.18.88a3,3,0,0,0-.61.35l.08.4a11.72,11.72,0,0,0,1.45-.26,8.27,8.27,0,0,1,1.36-.23l0-.39a.85.85,0,0,1-.79-.52c-.18-.53-.92-4.74-.92-5s.3-.52.7-.57,1.14-.31,1.36-.09a4.48,4.48,0,0,1,.53,1l.35-.13L447.38,29s-2.55.31-3.51.57-3.61.88-3.61.88m-2.58,1.45s.57,0,.7.22,2,4.87,2.11,5.13-.36.71-.36.71l.22.44,1.8-.89,0-.3s-.57.17-.79-.17-2.06-4.79-2.24-5.23.31-.7.31-.7l-.18-.48-1.75.74ZM433.33,33c-.88.69-2.46,3.07-.79,5.13s3.47,2.73,4.83,1.89,1.93-3.51.35-5.79-3.6-1.84-4.39-1.23m.62,1a2.61,2.61,0,0,0-.22,3.73c1.27,1.71,2.59,1.75,3.2,1.32s.88-1.59-.14-3.29-2.05-2.38-2.84-1.76m-4.79,2.41,0,.44a11.35,11.35,0,0,0-1.58.44,2.55,2.55,0,0,0-1.45,2.06c0,.62,1.1,1.36,2.59,1.41s2.81-.09,3.25.3.09,1.5-1,1.63a3,3,0,0,1-2-.57l-.13.31,2.1,2.28.05-.88a5.19,5.19,0,0,1,1.53-.52c.84-.14,1-1.85.57-2.6a1.88,1.88,0,0,0-1.67-1c-.52,0-3.29.35-4.3-.26s1.32-1.63,1.8-1.63a9.09,9.09,0,0,1,1.93.62l.22-.31-1.75-2.06Zm-5.44,5.8-1.5,2.63.32.18s.61-.49.87-.27,3.95,2.59,4.26,2.72A.5.5,0,0,1,428,48l-.18.44.35.13,1.54-2.63-.4-.4a4,4,0,0,1-.66.66.85.85,0,0,1-.87,0c-.27-.18-3.29-2.24-3.47-2.42s-.35-.52-.22-.74a1.27,1.27,0,0,1,.31-.35Zm2.7,1.54,1.59.1-.69-1.39h-1.4Zm43.63,42.13-3.71,4.29,1.3,1.42.17-.12a8.87,8.87,0,0,1-.05-1.41c.05-.36,1.76-1.54,1.76-1.54l1.59,1.59a8.59,8.59,0,0,1-.7,1c-.36.42-1.18-.11-1.18-.11l-.24.23,1.89,1.53.12-.23s-.24-.53-.06-.83a6.43,6.43,0,0,1,1-.94L474,92.17l-.35.53a8.89,8.89,0,0,1-2,1.65c-.41.23-.88-.18-.88-.18l-.35.35,1.53,1.24,4.3-4.54-.3-.11a1.74,1.74,0,0,1-1.29-.12c-.53-.35-4-3.18-4.36-3.54s0-1.29,0-1.29l-.24-.23Zm2.95-3.6-.24.24.36.59s-1.42.64-1.6,1a1.74,1.74,0,0,0,.54,2.48,3.57,3.57,0,0,0,3.41-.12c.77-.35,1.95-.71,2.36-.12s0,1.36-.47,1.77a2.25,2.25,0,0,1-1.36.59,9.07,9.07,0,0,1-1.06-.12l-.41.23L477,90.7l.3-.36-.42-.77s2.24-1.41,2.3-1.94a2.9,2.9,0,0,0-.82-2.3,2.28,2.28,0,0,0-2.48-.23,7.07,7.07,0,0,1-2.23,1c-.47.06-1.89-.47-1.13-1.18s1.48-1.23,2.13-.88a5.78,5.78,0,0,0,1.06.47l.23-.53Zm2.29-6.3-.64,1.42.41.17s.23-.7.65-.47,4.12,1.3,4.12,1.3l-6.06,2.11-.36.18s6,2.83,6.24,3.06a3.94,3.94,0,0,1,.42,1.3l.23.17,1.18-2.58-.36-.06a.64.64,0,0,1-.64.47h-.83L475.41,81l7.07-2.3.7-1.41-.35-.12s-.17.82-.59.82-5.59-1.3-5.95-1.35-.52-.71-.52-.71l-.42-.24Zm1.07-4.71c0,.35-.83,3.12-.83,3.12l2.06.77.06-.48a6.73,6.73,0,0,1-1.24-.94,6,6,0,0,1,.41-1.71l2.95.48s-.18.65-.24,1-.64.42-.64.42v.47l1.88.3-.06-.42s-.47-.17-.47-.47a8.11,8.11,0,0,1,.24-1.18l2.47.36a6.41,6.41,0,0,0-.12,1.06c0,.47-.17,1.06-.53,1.11a5.19,5.19,0,0,0-.7.18v.47l1.53.36.59-5.25-.3.06s-.35.71-.7.71-5.13-.77-5.48-.88-.48-1.12-.48-1.12l-.29.06s-.11,1.11-.11,1.47m3.76-4.06s.06,1.17.06,1.47.3.53.88.53a3.62,3.62,0,0,0,1.42-.12.86.86,0,0,0,.59-1c-.06-.34-.12-1-.12-1Zm-3.83.64h.47s.06-.7.48-.7h1.7s.07,1,.07,1.53.52,1.53,1.06,1.59a9.38,9.38,0,0,0,2.23.06,2.45,2.45,0,0,0,1.53-1.95c0-.58-.06-3.18-.06-3.18h-.47s-.29.71-.71.77-4.88,0-5.35,0-.48-.65-.48-.65h-.29ZM482.48,56l-.29.12a2,2,0,0,1-.36.94,27.31,27.31,0,0,0-1.65,2.24c-.17.35-.29.64-.65.76a20.35,20.35,0,0,1-2.77.35c-.4,0-.64-.7-.64-.7l-.3.06a10.42,10.42,0,0,1,.3,1.47c0,.35.12,1.35.12,1.35l.29.06a6.59,6.59,0,0,0,.12-.82c0-.24.06-.41.35-.35s2.71-.18,2.71-.18,2.53,1.94,2.88,2.12.3.94.3.94l.41-.06s.12-.94.18-1.35a7.47,7.47,0,0,0-.06-1.36H483v.59c0,.18-.17.24-.59,0s-2.23-1.47-2.23-1.47S481.71,58.31,482,58s.83.41.83.41h.35l-.47-2.29Zm-2.06-5s.24.89-.18,1.06-4.06,1.42-4.83,1.71-1-.71-1-.71l-.41.3s.59,1.71.71,2.24.58,2.17.58,2.17l2.18-.47.12-.47s-1.82,0-1.94-.23a5.35,5.35,0,0,1-.24-1.12c-.06-.36.06-.59.3-.65s4.53-1.65,5-1.77.54.18.54.18l.58-.06-.77-2.35-.64.17Zm-6.07-3.23.77,1.7,2.65-2.41Zm-3.53-.24,1.24,1.71.35-.12s-.18-.53-.24-.83-.06-.35.36-.47a2.78,2.78,0,0,1,.82-.11c.18,0,.36.35.36.35s.58,1.35.64,1.59a1.6,1.6,0,0,1-.06.64,2.88,2.88,0,0,1-.58.54c-.24.12-.53-.71-.53-.71l-.36.17.89,2.36.41-.23s-.18-.47,0-.71,5.18-5.19,5.18-5.19l-.12-.35-6.95,1.18a2.06,2.06,0,0,1-.94-.24Zm-2.18-13-.29.41s.41.54.52.71a1,1,0,0,1-.17.88c-.18.24-2.18,3.71-2.41,4a.52.52,0,0,1-.72.12,2.47,2.47,0,0,0-.46-.18l-.18.29,1.53,1.6.35-.3a1.52,1.52,0,0,1,.12-.77c.18-.47,2.24-4.18,2.36-4.41a.71.71,0,0,1,.47-.3l-2.12,7.13,6.71-1.83s-3.3,2.71-3.65,3-.59.29-.76.12a3,3,0,0,1-.36-.48l-.35.3,1.23,1.94.54-.41a.58.58,0,0,1,.11-.65c.3-.23,3.95-3.71,4.13-3.77s.64.53.64.53l.36-.23-1-1.65-6.18,1.47,1.64-5.71Zm-3.65-2-.17.35s.29.24.46.35,0,.48-.06.77-2.06,4.18-2.18,4.59-.35.36-.59.3a5.91,5.91,0,0,1-.64-.24l-.24.36s1,.47,1.36.71,1.06.58,1.06.58l.24-.47s-.19-.47-.36-.53.12-.47.17-.71,1.95-4,2.07-4.24a.77.77,0,0,1,.76-.29l.53.12.18-.42Zm-5.42-2-2.18-.83-.11.53s.82.3.64.59-.64,2.47-1.11,4.18a2.38,2.38,0,0,0,1.41,3,2.3,2.3,0,0,0,2.59-.36c.29-.53,2.06-4.18,2.18-4.53s.94-.06.94-.06l.3-.53a2.6,2.6,0,0,1-1.07-.53,5.76,5.76,0,0,0-1.53-.76l-.17.35a3.92,3.92,0,0,0,.64.47c.18.06.24.41.18.71s-1.47,3.12-1.53,3.29a2.65,2.65,0,0,1-1.18.89,1.76,1.76,0,0,1-1.94-1.24A43.55,43.55,0,0,1,459,31.22c.12-.48.41-.24.41-.24M419.71,50.42a5.31,5.31,0,0,0-.88,1.42L419,52a.66.66,0,0,1,.71-.35c.47.12,4.59,1.59,5,1.76s.29.83.29.83l.23.12.89-2.47-.35-.18s-.18.7-.59.7a37.11,37.11,0,0,1-3.83-1.47s3.71-.52,4.42-.7a10.42,10.42,0,0,1,1.59-.24l.41-.88s-5.06-2.18-5.36-2.24-.18-.41-.06-.76l.12-.36-.41-.12s-.77,1-1,1.42-.7,1.47-.7,1.47l.41.06s1-.82,1.53-.65,4.07,1.53,4.07,1.53a18.34,18.34,0,0,0-2.95.29c-.76.24-3.65.71-3.65.71m-1.95,4.71c-.25,1.12-.64,2.77,1.77,3.42s4.83.77,5.54-1.53-1.94-3.12-3.12-3.36-3.83-.06-4.19,1.47m.95.18c-.18.57-.59,1.82,1,2.29a11.55,11.55,0,0,0,3.71.3c.29,0,.59-.82.71-1.53s-.12-.76-1.3-1.18-3.83-.83-4.12.12M450,30.22a35.87,35.87,0,0,0-.3,4.42,2.61,2.61,0,0,0,2.06,2.06c.59-.06,1.36-.17,1.36-.17l.18.23c.17.23,1.29,1.24,1.94,1.24a6.76,6.76,0,0,0,1.59-.3,7.85,7.85,0,0,1-1.41-.47A5.49,5.49,0,0,1,454,36.05a9.74,9.74,0,0,0,.77-1.41,12.52,12.52,0,0,0,.36-3.24,2.74,2.74,0,0,0-2.54-2.89c-1.12.06-2.53.65-2.59,1.71m.88.71a20.76,20.76,0,0,0-.18,3.77c.13,1.94,1.95,1.06,1.95,1.06s-.77-.88.06-1.24c.44-.19.71.47.71.47a11.48,11.48,0,0,0,.47-2.83c0-1.29-.54-2.39-1.42-2.47a1.49,1.49,0,0,0-1.59,1.24m-33.69,28s-.23,1.36-.23,1.77V62h.42s.05-.82.35-.82h1.59l.12,3.59h-1.77c-.24,0-.53-1-.53-1l-.42-.06-.05,3.18h.47s.29-.94.83-.88,4.18-.06,4.53-.06.76.88.76.88l.3.06a5.12,5.12,0,0,0,.12-1.53,5.5,5.5,0,0,1,0-1.53l-.47.06s-.17.88-.76.94a13.56,13.56,0,0,1-2-.12l.12-3.47s1.65.23,2,.23a.71.71,0,0,1,.7.59,3.32,3.32,0,0,1-.06.59l.59-.24s.06-1,.06-1.35a4.83,4.83,0,0,1,.24-1.06l-.47-.06a.45.45,0,0,1-.47.36c-.42,0-4.54-.24-5-.3s-.42-1-.42-1ZM479.25,64c1-.12.35-1.12-.3-1.06s-.7,1.17.3,1.06m-1.06-4.83c.88-.06.88-1.25-.06-1.12s-.82,1.18.06,1.12m-12.43-22a.61.61,0,1,0,.94.77c.77-.71-.41-1.41-.94-.77m-18.49-3.06c0,.53,1.3.47,1.24-.23s-1.3-1-1.24.23m16.19,34c-.11.65.32,1,.74,1.29s-.21.54-.74.21-.65-.53-1.39-.43-1,.43-.54.65,1,0,1.07.42-1.39.33-1.81.33-1,.1-.54.53.21.32.86.32h1.39s1.17.11,1.17.64v4.6a3.07,3.07,0,0,0,.75,1.6,1.25,1.25,0,0,1,.43-1.28c.64-.43.85-.11,1-.75s1.28-1.07,1.61-2,.2-2,.74-2.89A6.06,6.06,0,0,0,469.23,69c0-.54-.32-.11-.64.43s-1,1.28-1.29,1.92a14.27,14.27,0,0,0-.64,2.46c-.1.43-.74.75-.74.75s.32-2.25.32-2.78a2.17,2.17,0,0,1,.85-1.6c.64-.64,1.07-.86.75-1.29a1.4,1.4,0,0,1-.32-.75l-.75-.75-.43.75Zm-48.85,2.47c0,.64-.21,1.06,1.28,1a3.27,3.27,0,0,0,2-.65s-.11-.74.33-.85,2-.33,2.34-.43.32.64.75.64,4.07-1.07,4.71-1.28-.06-3.48,0-4.35c.18-6.53,2.69-18.65,13.49-23.14s19.15-2.33,23.1.87,11.86,10.27,11.65,22-2.56,17.85-7.37,22.45a87.39,87.39,0,0,1-6.53,5.88l6.53,8.44,1.17-.42-5.87-7.81,1-.75s6.09,8.34,6.52,8.56.85-.65.85-.65l-6.31-8.12.54-.53,7.05,8s6.84-5.24,9.31-11.44,9.72-18.38.21-42.43c-3.63-9.17-12.4-14-12.4-14a1.19,1.19,0,0,1-1.07.54c-.54,0-7.08-5-17.1-5.12-7.48-.09-16.45,3-19.35,5.65a1.59,1.59,0,0,1-2.35,0S422.5,38.85,420,44.49a68.09,68.09,0,0,0-5.34,16.77,41.63,41.63,0,0,0,0,9.31M572.06,94l.63-.43-.42-.85-.75.43ZM570.45,95l.86-.54-.54-.74-.85.54Zm-39.55.43L532,100.6l.11.32a10,10,0,0,0,2.24.43c.86,0,.54-1.93.22-2.68s-.86-2.45-1.82-3a8,8,0,0,0-1.93-.74l.11.53ZM443.51,52.56c-.06.42,0,.77.29.54s.18-1.24.12-1.72a6.3,6.3,0,0,0-.41,1.18m-1.06-2.18A4.11,4.11,0,0,0,442,52c0,.71.06.77.53.65s-.05-1.59-.11-2.12Zm-1-3.19c-.18.29.06.29.18.76s-.23.48-.23.95.17,5.67.17,6.26a1.27,1.27,0,0,0,1,1.24c.53.06.58-.47.47-.94s-.71-.53-.77-.83.18-.47.53-.35a5.46,5.46,0,0,1,1.3,2.6c0,.59-.47.23-1,0a1.48,1.48,0,0,0-1.47.23c-.47.3.53,3.6.53,4.2s-.71.47-.95.82,1.31.36,2.19.24-.12-.83-.41-1.54a4.41,4.41,0,0,1-.12-2.3c.12-.42.47.53.95,1.66a2.79,2.79,0,0,0,2,1.53c.53.18,0,.65-.47,1a5.3,5.3,0,0,1-2.25.47c-.7,0-.11.35-.17.65s-1.18.18-1.36.35.41.18,1.6.3a4.14,4.14,0,0,0,2.95-.59c.89-.59.47-3.37.35-3.78s-.88-1.66-.94-2.13.94-.59.94-.89V51a7.93,7.93,0,0,1,.3-1.72c.12-.52-.06-1-.42-.94s-.35.29-.64.94.06,1.13.17,1.6a51.26,51.26,0,0,1,.12,5.38c-.06.82-.47-1.83-.59-2.55a18.77,18.77,0,0,1-.24-2.54,10,10,0,0,1,.54-3,5.6,5.6,0,0,0,.71-2,1.13,1.13,0,0,0-.24-.78,5,5,0,0,0-.53.48,1,1,0,0,0-.3.65H444l-.24-.77-.41.29c-.24.18-.24.42-.29,1.07s.12.53.12.94.53.59.76.72-.23.64-.47,1-.29-.12-.53-.42-.65-.11-.89-.53.18-.41.3-.71a1.6,1.6,0,0,0-.12-1.12s-.65-.06-.83.24m-6.26,12.7s-.36-.35-.23.12,1.11.94,2.24.94.94.54.53.54a7.53,7.53,0,0,1-1.83-.12c-.77-.18-1-.06-1.89-.3a3.66,3.66,0,0,0-1.6-.06c-.3,0-.35.18-.59.59s-.53.83.12,1.3-.06.42-.36.66,0,.29.48.23,1.24-.65,1.3-.41-1.89,1.23-1.54,1.3.29.23,1.6-.07,1.18-.7,1.54-.94a2.6,2.6,0,0,1,1.88-.41c.72.17-.17.23-.58.47s-1.66.83-1.13.83a4.36,4.36,0,0,0,1.65-.24,7.68,7.68,0,0,1,2-.35c.6-.06,0-.59.13-.83a6.43,6.43,0,0,0,0-1.48.87.87,0,0,0-.53-.83,7.9,7.9,0,0,0-2.19-.17c-.71-.06-.94-.42-.82-.65Zm1.12-4.61a3.67,3.67,0,0,0,2,.65c.54,0,.3.47-.29.47a3.92,3.92,0,0,1-2.07-.53,4.08,4.08,0,0,0-1.54-.71c-.47-.06-.71.36-.94.83s-.36.41-.36.65.54.65.42.89-.83.77-.6,1.06.54-.12.77-.29a.87.87,0,0,1,.95-.19c.41.19-.95.72-1.06,1s0,0,.77,0a1.91,1.91,0,0,0,1.17-.35c.3-.12.77-.41,1.3-.6s1.24-.29,1,.06-1.95.54-1.83.72.59-.12,1.18-.18,1.42.29,1.83,0,.06-1.71.06-2,.12-.41.35-.77-.35-.35-1.36-.47a7.23,7.23,0,0,1-1.65-.48s-.77-.17-.12.3m-2-4.72c-4.31,4.25-4.49,15.3-4.49,15.3h18.79V43.11c-7.38.65-10,3.19-14.3,7.45m5.44-2.07c-.36.06-1.54.35-1.54.88s.59,1,.95,1.3a.66.66,0,0,1,.29.59,2.73,2.73,0,0,1-1.47,0c-.65-.23-.24-.59-.89-.76a.83.83,0,0,0-.95.47s.13.41.18.59-.18.3-.29.65-.54.3-.95.35-.29.24,0,.36a2.52,2.52,0,0,0,1.24-.12,3.08,3.08,0,0,0,1.06-.36,4.79,4.79,0,0,1,1.07-.17c.18-.06-.3.47-.06.59a3.72,3.72,0,0,0,1.18.06c.36,0,.12-.36-.06-.65a.38.38,0,0,1,.18-.59c.18-.06.18-.65-.06-1.12s-.53-.3-.83-1,.77-.47,1.24-.71c0,0,.07-.47-.29-.41m24,3.95c-.48,1.37.12,2.25.59,3.2a33.55,33.55,0,0,1,1.24,4.19h.59s.18-1.3.18-1.89a8.19,8.19,0,0,1,1.06-2.6,7.19,7.19,0,0,0,.83-3.43c-.12-1.06-2.72-2.89-2.72-2.89a22,22,0,0,0-1.77,3.42M467,59.65h.59s-.3-1.5,1.51-1.5.85,2.63.85,2.63,3.66-4.49-.23-5.14-2.72,4-2.72,4m-2.37,0s-.59-4.72-2.54-4.61a2.52,2.52,0,0,0-2.54,2.9,2.6,2.6,0,0,0,1.89,1.83c.59,0-.24-1.71,1.07-1.77s1.24,1.77,1.24,1.77Zm-.06,1c-.53,0-.53.89,0,.89h3.55a.51.51,0,1,0,0-1c-.83,0-3.55.12-3.55.12m-10-6.2V56h.77V55h.7v1h1V54.93h.83v1.12h.82V54.46Zm.23-1.24c-.41,0-.59.52-.11.52h3.95c.36,0,.48-.52,0-.52Zm-3.72-5.62c-.9.33-1.89,2.24-1.65,3.6s.47,3.19,1.42,3.73.35-2.25.83-2.66,1.29-.77,1.65-.41a2.66,2.66,0,0,1,.53.82h1.18s-.29-6.42-4-5.08m7.86,5a1.82,1.82,0,0,1,1.72-.41c.88.36.58,2.25.94,2.13a11,11,0,0,0,1.59-3c0-.18,1-4.31-1.71-4.07s-3.72,4.72-3.78,5.37Zm-4.84-7.38c-.3,1.42,1,4.6,1.36,5.32a5.79,5.79,0,0,1,.35,2H457l.18-1.6c.06-.53,1.47-3.61,1.6-5.38s-1.6-3.78-2-3.78a6.74,6.74,0,0,0-2.66,3.43m10.22,17.43v1.53h.82V63.08H466V64.2h1.24V63.14h.64V64.2h.72V62.55Zm-9.58,3.6h.6v-.77h.83v.77h.88V65.5h.95v.65h.58V65h-3.77v1ZM450.07,61c-.2,3.14,1.18,4.61,1.48,4.73s.94.06.53-.12-.35-.83-.35-1.36a2.23,2.23,0,0,1,1-2c.76-.35,1.83.95,2.06.65s-.29-1.83-1-3a2.16,2.16,0,0,0-2.6-.83c-.29.06-1-.06-1.12,1.83m8.8,2a2.58,2.58,0,0,1,1.89,0c.71.41-.18,2.72.24,2.72a4.52,4.52,0,0,0,1.78-.59,3.52,3.52,0,0,0,.35-3.19c-.54-1.54-2.61-1.36-3.55-1a2.1,2.1,0,0,0-1.18,1.94s.12.18.47.12m-4.13.77c0,.35-.06.53.53.53h3c.59,0,.71-.53,0-.53a14.78,14.78,0,0,1-3.07,0c-.21-.21-.47-.12-.47,0m1.77-.83c.77,0,1.65-1.24,1.6-2.95s-1.13-3.25-1.54-3.31-1.48,2-1.48,3.25.65,3,1.42,3m2.9,4.55c0,.36-.24,5.79-.24,5.79s1.65.12,2.12.12.66.3.66.71v4.55c0,.3,2.83,3,3.42,2.95s2.78-4.37,3.43-5.91a48,48,0,0,0,1.54-8c0-.59-.83-.65-1.48-.65h-9.28a.42.42,0,0,0-.17.47m-4,2.42a10,10,0,0,0,.06,1.84c.06.47-.89.71-1.19.71s.12-.59.24-1,.36-.53.36-.94.11-1.07.11-1.48-.59-.24-1.06-.3a3,3,0,0,0-1.72.24c-.59.3-.29,2.72-.17,3.48S453,74,453,74.3s-.47.48-.76.48,0,.59.23,1.3a5.57,5.57,0,0,1,0,1.71c.06.3,1.36-.41,1.54-.59a3.47,3.47,0,0,0,.29-1.89,5.34,5.34,0,0,1,.48-2.36c.23-.41,1.12-.53,1.18-.89s-.06-1.6-.06-2,.92-.76.41-1.06c-.29-.18-.76.59-.82.82M457.81,67l-7.5.06c-.6,0-.71.35-.71.65s0,13.35.06,13.59.11,1.12.41.89,4.67-3.44,5-3.67.48-.29.48-.53.11-3.67.11-4.14-.05-.53.53-.53h2V67.45s-.05-.47-.35-.47m-.95,8V77a2.32,2.32,0,0,0,.6,1.13,2.3,2.3,0,0,0,1.23.65c.48.12,1.66-1.3,1.78-1.48s0-.53,0-.95V74.9c0-.3-.3-.35-.71-.35H457.4a.51.51,0,0,0-.54.41m-.88,4.6a.6.6,0,0,0-.47.89,2,2,0,0,0,.83.83s0,.24-.54.35a30.92,30.92,0,0,0-3.19.12c-.53.24-.95.47-.83.71s.53.24.71.12a2.4,2.4,0,0,1,1.13-.24c.47,0,1.06,0,1.12.3s-.65,1-.83,1.48-.18.77.24.7a.73.73,0,0,0,.59-.64,2.08,2.08,0,0,1,.94-1c.35-.12,1.24,0,1.84-.18s.7-.65,1.17-.71a3.82,3.82,0,0,1,1.42.06c.54.12.83.59.36.65s-1.65,0-1.78.3-.17.47-.17.47a2,2,0,0,1,.83-.12c.58,0,1.65.42,1.77,0s.35-.41.53-.71.12-.41.3-.41.71.06.71.06a.78.78,0,0,0-.48.71c0,.53,1,.41,1,0a7.13,7.13,0,0,1,.12-1.36c.05-.24-.24-.24-.53-.18a4.15,4.15,0,0,1-1.13.24c-.3-.06-.42-.53,0-.59s.89-.18.77-.89-2.43-.83-3.19-.77-.54.53-.06.59a20,20,0,0,1,2.12.3c.36.12-.17.53-.53.71a6.16,6.16,0,0,1-2.54.06c-.47-.18-.06-1.3-.59-1.66s-.53-.24-.59,0-.53.42-.59.18-.47-.42-.47-.42m-24.52-11a1.89,1.89,0,0,0,.3,1.94c.58.83,1.77,2.49,2.12,2.55s.24,1.65.35,2.12,3.26,8,3.67,8.75.53,1.77,1.71,1.18,4-2,4-2.3.59-1.48.59-1.78,3.84-10,3.9-10.75-1.06-.83-1.42-.3-.29-1-.41-1.36.18-1-.65-1.12a3,3,0,0,0-1.77.53s-11.94,0-12.18.12a.43.43,0,0,0-.17.42m3.84,6.38a39.67,39.67,0,0,0,2.06,5.32l1.9,3.48.35-.3-.76-1.12c-.42-.59-3.32-8.45-3.32-8.45a2.84,2.84,0,0,0-.23,1.07m9.57-4.55A37.51,37.51,0,0,1,440,72c-.76.24-3.9-.35-4.43-.35s0,.59,0,.59a2.85,2.85,0,0,0,.18.77c.18.53,4.67,9.62,4.67,9.62l.47-.47-4.31-9.51.89-.06,3.9,8.74.17-.82-3.13-7.8,1.12.06,2.66,6.38.3-.94-1.95-5.56.95-.12L443,77l.53-1.47-1-3.37.94-.24.6,2.19.64-1.48-.35-1.42.71,0s.17.88.23.35a7.12,7.12,0,0,1,.48-1.48,1.37,1.37,0,0,0-.89.36m-11.76-1.24.24.65s3.54.17,4.49.17,4.73-.17,5.73-.29a7.15,7.15,0,0,0,1.6-.35l-.06-.42-2.72.24c-.77.06-9.28,0-9.28,0M418.16,87.42a1.45,1.45,0,0,0,1.36.36c.54-.18,7.92-3.19,7.92-3.19l-.53-.71s-3.6,1.24-4.67,1.65-4.08,1.89-4.08,1.89m-2-2.66a2.67,2.67,0,0,0,1.18.54c.47,0,9.16-3,9.16-3l-.3-1.18s-6.68,2.36-7.74,2.78-2.3.82-2.3.82m-.6,3.49a9.08,9.08,0,0,0,4.73,2.31c.35-.18-.47-1.43-.47-1.43l8.62-3.54a18.08,18.08,0,0,0,2.43.59c.23-.06-.18-.7-.53-1.42s-2.25-3.19-2.6-4.49a54.42,54.42,0,0,1-.65-5.49c-.06-.24-.42-.3-.65.41a34.59,34.59,0,0,0-.24,4.61l-10.64,3.78s-.11-.35-.29-1-.75-2.4-.88-2a9.11,9.11,0,0,0,1.17,7.68m6-9.1c-2.19.95-1.95-1.3-2.13-1.24a1.67,1.67,0,0,0-.64,1.42c.05.7.95,1.81,3.48,1s2.07-3.6,1.6-3.6c-.31,0-.12,1.48-2.31,2.42m.36-7.68c-.23.19-.18.71-.12,1.12s.53,1,.65,1.36.77.35,1.35.24,4-1,4.5-1,1,.42,1.06,1.6.06,2.54.06,3.19a5.81,5.81,0,0,0,.35,1.59s-1.06.36-.65,1.13,1.6.47,1.6.47a22.85,22.85,0,0,1,1.54,2.48c.29.71,1,2.83.59,3.08s-2.43.64-3,.82-8.74,3.25-9.86,3.84-2,1.24-1.54,2,1.24,2.3,4.2,1.48,12.52-4.32,12.7-6.74-.53-5-1.3-5.91-2.43-1.89-2.43-2.25.89-7-1.23-8.74-3.31-1.36-4.73-1a16.12,16.12,0,0,0-3.72,1.18m-9.34,3.19a7.68,7.68,0,0,0-.41,3.07,2.09,2.09,0,0,0,.41,1A8.76,8.76,0,0,1,415,77c1.3-.53,3.55-1.36,3.43-2.18a5.61,5.61,0,0,0-.77-1.89c-.24-.47-.95-.36-1.59-.12a17.79,17.79,0,0,0-3.55,1.89m6.85-3.07c-.53.32-.06,2.48.18,3.72a10.2,10.2,0,0,0,.89,2.78c.35.71,2.24-.36,2.07-1a39.35,39.35,0,0,0-1.78-3.6c-.47-.89-1.06-2.13-1.36-2M458,95.45c.29.36,4.9,6.27,5.37,6.45s1.54-.3,1.36-.65-5.43-7.62-5.43-7.62-1.6,1.47-1.3,1.82m-9,2.37s10.63-10.28,11.57-11.17-.23-2.48-1.47-2.18a8.45,8.45,0,0,0-2.83,1.77l-7.8.29-1.25,1.77,7.27.13-.47.76-7.45-.06-.88,1.19,7.44.23-.47.83-7.92-.06-.94,1.18,7.91.42C449,97,449,97.82,449,97.82m-4.55,3.54-.83-.29s-2.78,1.36-3.61,1.83-3.95,1.89-3.95,1.89l.82.65a21.47,21.47,0,0,0,2-1c.52-.35.94.6.52.89a11.14,11.14,0,0,1-1.53.77l.71.36s1.12-.54,1.71-.77,1.18.12.89.41a9.55,9.55,0,0,1-1.42.89l1.77.59,7.27-3.78-.95-.42s-2,.89-2.48,1.13-.76-.54-.41-.89a7.46,7.46,0,0,1,1.59-.89l-1.06-.53s-1,.53-1.48.83-1.55-.27-.94-.65,1.36-1,1.36-1m-3-1.47s-3.07,1.42-3.89,1.89-3.73,1.77-3.73,1.77l.95.77,7.56-4Zm-6.32.83c-.89.41-3.43,1.42-3.43,1.42l.89.64,3.07-1.3c1.12-.47,4.85-2.36,4.85-2.36l-.89-.71s-3.6,1.89-4.49,2.31m-.06-2.31c-.47.24-4.84,2.31-4.84,2.31l.77.64,7.67-3.72-.7-.59-2.9,1.36M428.91,103c3.85,4.73,13.42,8.27,18.68,10a34.17,34.17,0,0,0,11.52,1.77c.53-.18,1.36-1,.18-1.06a19.41,19.41,0,0,1-3.14-.6s5.74-3.07,6.33-3.54.06-1.42-1-.77-7.09,3.72-7.09,3.72l-2.36-.59s5.55-3,6.26-3.43-.35-.88-1.12-.53-6.56,3.31-6.56,3.31L449,110.7s4.85-2.36,5.79-2.89-.53-1-1.23-.6-5.79,3-5.79,3l-2.25-.83s5.79-2.78,6.26-3.25-.77-.77-1.3-.47-6.61,3.19-6.61,3.19l-1.13-.53,7.8-3.9a78.23,78.23,0,0,0,7.68,2,73.22,73.22,0,0,0,11.65.71c.88-.12,2.65-2.19,1.35-1.78s-7.86-.06-10.28-.35-6-1.3-11.76-3.78-13.47-9.87-13.76-10.28-.42-.24-1.19.35.54,3,.54,3l-1.3.88a7.51,7.51,0,0,0-1.3-.59c-.48-.12-1.42.53-1.36,1s1.53.11,1.77.47.18,1.36.83,1.3.41-1.06.41-1.06l1.77-1.07,1.13,1s-2,1.07-2.31,1.3a4,4,0,0,1-1.65.66,25,25,0,0,0-3.37,1.71l-1.12-.71s.94-.71,1.24-1-.3-1.24-.6-1a17.5,17.5,0,0,1-1.41,1.06,2.48,2.48,0,0,1-.89-.77c-.3-.47-1.72-.55-1.54.06.36,1.19,0,.77,3.84,5.5m27.36-4.9c-.59-.06-1.89.7-1.53,1.35s1.95,1,2.95,1.36,1.18-.23.83-.94a7.92,7.92,0,0,0-2.25-1.77m-13.41-3.9a5.74,5.74,0,0,0,2.48,1,11.31,11.31,0,0,0,1.24.23l1.54-1.17s-1.6-.06-2.48-.06Zm-.47-6.92a53.22,53.22,0,0,0-2.78,5.14c-.12.24.12.48.71.18s5.2-4.43,5.85-5.62.29-1.88-.77-2.06c-1.35-.24-1.77.47-3,2.36M430.63,97.76c.71.65,2-.06,1.13-.88-.6-.53-1.84.23-1.13.88m9.4,6.56c.31.64,1.36-.47,2.18.12s-.29,1,.24,1.48.77.23,1.12-.07a2,2,0,0,0-.35-2.18,2.66,2.66,0,0,0-2.6-.35c-.89.41-.77.64-.59,1m-8.34,5.37c.18-.59-.94-1.65-1.89-2s-1.89.41-1.41,2,1.18,5.15,1.18,5.15a42.06,42.06,0,0,0,6.14.41c3-.06,4.08-1.77,1.3-3.19s-5,1.53-5,1.53a7,7,0,0,1-1.18-.47,1.24,1.24,0,0,1-.53-.77,22.59,22.59,0,0,0,1.41-2.66M381.43,71.44a4.86,4.86,0,0,1-2.15,2.81c-.44.07-.89,1.48-1.4,2.15a8.74,8.74,0,0,0-1,2.15l-1.55.07s-.08-1-.3-2.45-.59-2.14-.89-2.29-1.11,1.33-1.92,2-4.75,3.56-5.71,4.22-.89,1.48-.22,1.93a3.38,3.38,0,0,0,2.44.67c.75-.23,4.52-3.19,5.11-3.41s1,.15.75.3-4.3,3.33-5,4.07A8.29,8.29,0,0,0,368,85.81c-.07.44,1.41.74,2.52.44a14.05,14.05,0,0,0,3.26-1.85c.82-.52,6.22-4.67,6.74-5.11s1.93-1,1.26-.3-3,2.82-3.77,3.41-2.38,2.15-1.49,1.93a9.09,9.09,0,0,0,2.89-1c1.33-.75,3.78-2.53,5-3.34a23.86,23.86,0,0,1,4.67-2.15,3.18,3.18,0,0,1,1.33.3l-3,2.15c-.75.51-1,1.48.22,1.25a21.24,21.24,0,0,0,4.22-1.7,14.83,14.83,0,0,1,3.93-.44A3.67,3.67,0,0,0,394.54,81c-.44,1,.9.67.75,1.19a.76.76,0,0,0,.89.89c.44-.15.44.37.44,1a5.57,5.57,0,0,1-.67,1.78l.52-.3c.52-.29,1-.52,1.11-1s.67.44.67,1.18a3.43,3.43,0,0,1-.67,1.63l.52-.15c.52-.14,1.11-1.1,1.26-1.33s.52-.29.37,1a16.31,16.31,0,0,1-.52,2.51s.82.23,1.19-.36a8.38,8.38,0,0,0,.59-2.82c0-.45-2.07-4-2.29-4.52s-.9-1.19-.3-1.19,1.41.67,2.22.89,2.52.89,2.52.89a2.83,2.83,0,0,1-.15.89c-.15.37-.66,1.41-.29,1.26a2.22,2.22,0,0,0,1-.89c.23-.37.74-.07.6.67a7.2,7.2,0,0,1-.82,1.78.87.87,0,0,0,.74-.45c.22-.44.82-1.18.74-.66a12.07,12.07,0,0,1-.59,2.07c-.15.29,0,1,.37.82s.81-1.11,1.26-1.93-.52-3.11-1-3.86a10.78,10.78,0,0,0-2.53-2.59c-.51-.22.3-1,1-.67A7.48,7.48,0,0,1,405.36,80c.22.3,1.12.15,1.26.52s-.44,1.56-.07,1.41a2.93,2.93,0,0,0,1.11-.81c.52-.53.3.88,0,1.33s-.89,1.41-.66,1.33a1.68,1.68,0,0,0,1-.74c.3-.52.89.15.81.74s-.51.9-.88,1.41-.15,1.71.44.89.89-.67,1.26-1.7-1.11-3.79-1.7-5.26-6.08-3.78-8.23-4.23S385.88,72.62,385,72.17s-.88-3.4-2.52-3.4a5.18,5.18,0,0,0-1,2.67m23.12,3c0,.67,3.85,3,4.22,3.71A11.11,11.11,0,0,0,410,80.4c.45.44,1.63.52,1.49.22a14,14,0,0,1-.53-3c0-.74.38-2.14.38-2.51s-.82-3.86-.82-3.86a6.12,6.12,0,0,0-1-1c-.51-.37-.51-.52-1-.44s-.44.52-1,1.33-1.11,1.71-1.56.82-.74-1.57-1-1.48c-.74.22-.45,3.4-.45,4.07M372.32,63.21a3.83,3.83,0,0,1-1.26,2,10.51,10.51,0,0,0-2.3,3.11c-.22.67-3.63,7.12-4,7.71s-.22,2.22-.22,2.89.67,1.18,1,.88a34.81,34.81,0,0,0,1.92-3A33.19,33.19,0,0,1,372,73.58c2-1.33,2.07-4.22,1.85-5.4a9.2,9.2,0,0,1,.37-4c.38-1.11.45-2.44-.52-2.59a5.56,5.56,0,0,0-1.33,1.63m-12.6,18.37a10.26,10.26,0,0,0-1.55,3c-.15,1,1.11.44,1.18-.22A6.93,6.93,0,0,1,361,81.88a.93.93,0,0,0-.07-1.48c-.44-.22-.82.52-1.19,1.18m-3.26-1.18c-.19.5-1,1.41-1,2a.66.66,0,0,0,1.11.52c.45-.44.22-1.26,1.11-1.63s1-1.41.37-1.41-1.48.15-1.63.52m-1.33-2.52c-.3.59-1.7,2.74-1.85,3.26s.29,1.19.89.59a32.58,32.58,0,0,0,2.07-3.63A.71.71,0,0,0,356.1,77a2.18,2.18,0,0,0-1,.89m7.63,5.85c-.14.52-.81,1.93-.89,2.3s-.52,1,0,1.18.67-.14.89-.58.82-1.86,1-2.3.59-1.26.14-1.49-1,.37-1.11.89M365,86.18c-.07.44-.29,1,.3,1.11s.82-.66.82-1.11.14-.74-.45-.67c0,0-.59.22-.67.67m-1.7-7.34c-.83-.33-1.41,3.71-1.41,3.71s2.15-3.41,1.41-3.71m-9.41-4A7,7,0,0,0,351.94,77c-.66.89.22,1.63.74,1.41A25.57,25.57,0,0,0,355.13,76c.52-.45,1.26-.82,1.11-1.34a4.91,4.91,0,0,0-2.37.22M366.17,68a5.16,5.16,0,0,0-1.56,1.41,27.89,27.89,0,0,1-2.44,2.81,15.77,15.77,0,0,0-2.45,2.45c-.59.82-2.51,3-1.85,2.89a13.89,13.89,0,0,0,3.48-1c1.41-.58,3.11-3.11,4.08-4.37a10,10,0,0,0,1.78-4.29,1.24,1.24,0,0,0-1,.07M377,62.17s-.15.67-.3,1.56S376,65.21,375.13,67s.45,4.59.75,5.33,0,5.26.29,5.11A49.9,49.9,0,0,0,379.73,70a12.6,12.6,0,0,0-.82-4.3,23.89,23.89,0,0,1-.74-3.63l-.89.08Zm24.52,2.23a3.89,3.89,0,0,0-.44,3c.37,1.41,1,3,1.4,3.26s.89-.44.67-1.26-.37-2.22-.51-2.82a14.27,14.27,0,0,0-1.12-2.14m-19.86-2.23a17.7,17.7,0,0,0,1.56,3.33c.45.9,2.3,3.49,3,4.67s1.48,1.78,2,1.56.22-3.48-.22-4.22a7.75,7.75,0,0,0-3.34-3.63c-2.29-1.26-3-1.71-3-1.71m13.86-1.26a10.48,10.48,0,0,0,.52,2.45c.37,1.56,1.48,5.93,1.48,6.29v.6s.81.29.89-.08,1.78-7.11,1.26-7.33-2.08-1.33-2.82-1.71a2.15,2.15,0,0,0-1.33-.22M400,70.77l-.22,2.59,1.18.44.82-1.77Zm-10.67-9a16.59,16.59,0,0,1,1.26,3.92,28.8,28.8,0,0,1,.44,4.6c.08.37,1,.67,1.26.07s2-6.37,2-6.59a3.29,3.29,0,0,0-2-1.34c-1-.22-3.48-2.22-3.48-2.22a4.5,4.5,0,0,0,.52,1.56m16.22,3.77c-.14.45-.73,2.3-1,2.9s.52,1.33,1,.59a17.38,17.38,0,0,0,1-2.52c.3-.74.45-1.26,0-1.4,0,0-.82,0-1,.43M374.39,46.76l-.74,2s2.08,2.37,1.48,3.34-2.81,4.37-1.55,6.14,2.59,2.38,4.89,2.67a8.57,8.57,0,0,0,4-.22c.37-.15-1.41-.81-2.08-1.93s-2-3-1.62-4.29.79-3,.22-4.3a5.1,5.1,0,0,0-4.6-3.41m33.94,19c-.07.59-.6,1.78-.45,2.3s1,.37,1,.37.15-.52.44-2.15.45-1.78-.07-2a3.81,3.81,0,0,0-1,1.48m.37-5.41c0,.59.22,1.26.81,1.26s.82-1.7.82-1.7a1.12,1.12,0,0,0,.37-.82c0-.52-.67-.67-.67-.67a1.76,1.76,0,0,0-1-.44,20.39,20.39,0,0,0-.37,2.37m-8.22-7c-.66-.05-.23,3,.37,4.52a10.48,10.48,0,0,0,2.51,3.48,4.06,4.06,0,0,0,2.3,1.41c1.11.22,1.93.37,2.07.15s-.44-1.18-1.18-1.93-2.22-3.63-3-4.74-1.26-2.74-3-2.89m-19.12.23a6.56,6.56,0,0,0-.15,2.07,10,10,0,0,0,2.37,4.22,21.49,21.49,0,0,1,3.33,3.85c.82,1.27,1.12,2.15,1.12,1.63s.37-1.7.15-2.29a28.9,28.9,0,0,1-1.71-4.45,19.74,19.74,0,0,1-.15-2.29,10.68,10.68,0,0,0-2.07-1,14.63,14.63,0,0,1-2.89-1.7m-7.26-10.6v1.48a18.63,18.63,0,0,1,3.63,1.41c.81.59,3.26,3.34,3.63,4.59s.44,1.86,1.63,2.52A9.66,9.66,0,0,0,386.25,54c.66.08-.59-1.92-1.33-2.66s-1.86-1.12-2.3-2.89-1.7-4.67-3.12-5.49-2.22-1.26-3-1.11a11,11,0,0,0-2.37,1M353.72,23.13c.15.29,1.26,2.66.89,3.77s-1.7,2.3-1.63,2.6.15.66.15.66a14.51,14.51,0,0,0-2.37,2.3c-.74,1-3,5.56-3,5.56a40.75,40.75,0,0,0,3.77-1.56c.74-.44.67.52.15,1a6.57,6.57,0,0,0-1.11,2.3c-.15.52-.59,3.25-.59,3.25a9.68,9.68,0,0,1,3-2.52,41.5,41.5,0,0,1,5.48-1c.37,0-1.11-.74-1.56-.74s-2.59-.08-2.59-.08V38a10.08,10.08,0,0,1,2.44-.3c.89.07,3.49.59,3.56,1.11s-.3,2.07-1.34,2.3a3.31,3.31,0,0,0-2.22,1.26c-.44.66-1.48,2.73-1,3.77a2.92,2.92,0,0,0,3.92,1.11c1.41-1,5-3.77,5.27-4.81a5,5,0,0,0-.08-3.56c-.59-1.26,1.48-1.41,1.85-.88s2.3,4,2.15,5.26a7.29,7.29,0,0,1-4.07,5.4c-3.12,1.71-3.49,2.23-4.23,2s-1.26,1.93,0,2.45,4.67-.22,6.3-1.7,5.26-6.45,5.19-8.75-3.63-7.7-4.6-8.37.67-.74,1.64-.15,4,4.45,4.29,5.63a9.18,9.18,0,0,0,.52,1.63l1-.29c.52-.15,2.23-1.19,4.08-.08s4.44,3.64,5.55,4.07,2.38.53,2.45.23-.82-.67-1.19-.89a30.52,30.52,0,0,1-3.7-4c-1.11-1.48-2.67-3.26-4.15-3.48a4.53,4.53,0,0,0-2.44.22l-.6-1.33s3.41,0,4.37.14,5.12,3.41,6.38,4.23,1.92.89,2.66.66.23-.89-.07-1A12.61,12.61,0,0,1,384,35.5c-1.26-2.37-3.41-5.78-6.44-5a11.61,11.61,0,0,0-4.75,2.3l-.66-1.41s3.85-2,4.81-2.59,3.19-2.52,3.41-3.71a4.3,4.3,0,0,0-.07-2.44c-.23-.6-1-1.63-1.34-1s-.89,2.67-1.77,3A16.08,16.08,0,0,0,373.5,26c-1.18.81-3.7,3-3.7,3l-1.19-1.11s2.67-1.71,3.71-2.52,2.07-.59,2.52-2.15.59-2.59,0-2.52-.67,1-1.26,1.33-2.67.52-3.78,1.12a7.29,7.29,0,0,0-2.37,1.92,4.83,4.83,0,0,0-.74,1.41h-1s2.22-2.59,2.37-3.41.15-4.29-.44-5.11-1.11-.07-1.26.45.52,2.66,0,3.4-2.74,4-2.74,4l-.6-.22a6.52,6.52,0,0,0,1.19-2.44c.07-1,.52-4-.52-4.74s-2.22-1.34-2.22-1,1.19,1.85.88,3.26a15.3,15.3,0,0,1-.66,2.52,10.52,10.52,0,0,0-.3,2.08l-1.18.14a9.44,9.44,0,0,0,.52-3A3.64,3.64,0,0,0,359,19.79c-1.11-.67-2.37-.89-2.44-.37s1.33,2.22,1.48,2.89a8.54,8.54,0,0,1,.07,2.74,6.06,6.06,0,0,0-.22,1l-.74.15s.22-.75-.67-1.85a4.37,4.37,0,0,0-2.74-1.26m10.89,21.56L363.06,46l1.55,2.22Zm3.49,10.67c-2.22,2.37-.6,5.33-.23,7.48a5,5,0,0,1-.22,3.19,8.8,8.8,0,0,0,2.82-2.23c.66-1.11,0-1.48-.15-2.89a8.12,8.12,0,0,1,.66-4c.53-1.18,1.56-4.22,1.86-4.81a13.35,13.35,0,0,0-4.74,3.26M350.76,72c1.1.63,5.9,1.55,8.22.74,2.74-1,5.26-4.22,5.48-5.26a3.49,3.49,0,0,0,.08-1.56,23.34,23.34,0,0,1-4.15,2.3c-1.55.52-4.82,1.18-5.56,1.7a6.4,6.4,0,0,1-2.44,1.26c-.89.15-3,0-1.63.82m-.82,3.55c.37.23,1.73-1.47,1.11-1.78s-1.48,1.56-1.11,1.78m6.16-8.81a12.06,12.06,0,0,0,4.14-.67c1.56-.45,3.63-3.63,3.63-3.63a4.06,4.06,0,0,0-1.41-.45c-1.11-.22-1.77.67-3,1.12s-2.15,1.78-3.56,1.78a7.19,7.19,0,0,0-2.83.78l-.21.1a6.71,6.71,0,0,0,3.27,1M363.65,56c-.44.52-.22,1.41-.82,1.78s-2.81,1.18-3.11,1.33.37.6,1.71.89,4.37-.52,4.67-2.07l.29-1.56Zm1.93-21.78-.3.29S366.46,36,367.06,37s2.59,3.12,2.52,5.64a7.56,7.56,0,0,1-1.71,4.73c-.44.45,1.41-.29,1.71-.73s2.37-4.3.74-6.6-4.74-5.85-4.74-5.85M359,35.72a19.49,19.49,0,0,1-2.66-.59l.29-2.89a9.84,9.84,0,0,1,1.33-.37,6,6,0,0,0,1.41-.52l-.37-.89a5.85,5.85,0,0,0-1.63.45,9.38,9.38,0,0,1-2.29.52l-.23,5s2.23.22,3.41.37a15.24,15.24,0,0,1,2.89.82l.37-.82a5.92,5.92,0,0,0-2.52-1m2.82,3.56c-.6-.07-.82.82-.22.82s.66-.6.07-.75c0,0,.74,0,.15-.07m-1.71,3.34c.6.51.73-1.41.3-1.41s-.89.88-.3,1.41m1.26.59c-.51.3-.74,1.84.45,1s-.08-1.26-.45-1m.74-2.45c-.45.93.22,1.86,1.26,1s-1-1.56-1.26-1m.6-1.7c-.12.73,1.11.59,1.33,0s-1.18-.89-1.33,0m.44-1.48c.82,0,1.12-1.47.08-1.41-1.34.07-.9,1.41-.08,1.41m-5.92-4.3.14,1.11s1.63.45,2.67.67a9.81,9.81,0,0,0,2.81-.08A3.42,3.42,0,0,1,364,32.91a14.27,14.27,0,0,0,1.55-1.63l-1.18-1.48a28.92,28.92,0,0,1-3,1.78c-.67.22-4.07,1.7-4.07,1.7M350,45.73c-.25.37-1.19,1.92,1,3.41s3.41,1.55,3.85.74a2.5,2.5,0,0,0-.51-3,5.88,5.88,0,0,0-2.08-.89c-.59-.15-1.93-.74-2.22-.29m34.23,1.55s1.41,2.08,2.22,3.41,1.48,1.56,1.71,2.74a14.16,14.16,0,0,0,2.14,4.38,19.81,19.81,0,0,0,1.86,2s.51-4.82.22-5.71-1.78-1.26-2.08-1.85.23-1-1-2-4.82-3.19-5.11-3m6.6,2.6c.36.88,2.44,2.59,2.88,3.4A28.15,28.15,0,0,0,397.14,58c1.26,1.25,2,1.25,1.26-1.12s-1.85-4.81-3.19-5.7a14.1,14.1,0,0,0-4.36-1.33m-.9-8.67c-.52.26-.14,3.85,1,4.59s3.33,1.48,4.22,2.08a9.37,9.37,0,0,1,2.44,2.74c.52.89.52-1.63.16-2.6a27,27,0,0,0-2.38-3.7c-.37-.52-.59-.67-1.7-1s-3-2.45-3.71-2.07m-6.29-9.12c-.09.28,1.4,1.34,2.51,2.82a17.58,17.58,0,0,0,5.19,4.22,11.64,11.64,0,0,0,5.85,1.11c1.41-.22,2.75-1.18,1.34-1.33a4.4,4.4,0,0,1-3.34-1.63C394,36,394,35.06,391.88,34.39s-8-3-8.22-2.3m-2.9-3.26c.1.59,2.82.07,5,.74a21.9,21.9,0,0,0,5.56,1.34,8.32,8.32,0,0,0,4.52-.82c1.56-.89,1.93-1.26,1.56-1.33a19.92,19.92,0,0,1-4.23-.89c-1.33-.59-3.26-1.7-5.11-1.26s-5.34.82-6.15,1.41-1.19.37-1.12.81m1.34-6.15c-.2.66,0,1.71-.15,2.23s-1.19,1.48-.15,1.63,3-.9,4.3-1.12a24.8,24.8,0,0,0,3.63-.51c1.12-.38,1.19-1,.15-1.49s-1.41-1.33-2.89-1.33-4.67-.15-4.89.59m-7.86-7.18c-1,0-1.55.81-2.14,1.47a6.71,6.71,0,0,1-2.23,1.34c-.22.08-.22,1.26-.22,1.26a10.92,10.92,0,0,1,.22,1.85c-.07.22,1-.44,1.64-.66a4.64,4.64,0,0,0,2.07-2.3c.29-1,1.55-1.26,1.63-.59s-.59,2,.15,2.22a2.4,2.4,0,0,0,2.22-1.26c.08-.52-2.22-3.33-3.34-3.33m-8,0c-1,1.77-.44,2.22-.44,2.22s.74-1.18,1.33-1.26,1,1.18,1,1.18a6.89,6.89,0,0,0,1.33-1.33c.44-.67,1.13-3.38-.07-3.78-.67-.22-2.08,1.19-3.12,3m-12.37,6.66c-.59-.29-4.3-2.07-4.74.08a2.35,2.35,0,0,0,2.44,3c1-.3,1.78-1.19,1.34-2s1-1.11,1-1.11m1-2.66a9.11,9.11,0,0,0-3.92-1c-1.71.08-3-.22-4.82,3.26s5.63,5,5.63,5A29.82,29.82,0,0,1,348,24.24c-.66-.74-.21-3.11,1.34-3.71s5.41.3,5.41.3,0-.22.07-1.33m8.52-7.26c-.32.42.6,1.4.6,1.4a2.8,2.8,0,0,0-.82,1.71,1.42,1.42,0,0,0,.6,1.4s1.48-3.26,2.88-4.29,2.38-2,3.56-1.63,1.56,2.15,1.34,2.89a8.61,8.61,0,0,1-.6,1.41s1.56-.89,1.93-1.12,2.15.6,2.15-.29-1.86-.59-1.93-.82a5.76,5.76,0,0,0-.15-.88c-.15-.38-.44-1-.44-1s1.55-.67.81-1.56-1.55.22-1.55.22l-1.48-.52s1.11-1.7-.15-1.78S369,9.2,369,9.2l-2.23.59s-.59-1.41-1.33-1,.37,2.07.37,2.07l-1.26,1.33a.8.8,0,0,0-1.19.08m-7.11,1.4a2.68,2.68,0,0,0-.89,3.56c.82,1.26,1.93,1.33,3.26.59s.89-2.14.52-2.89-1.85-1.85-2.89-1.26m-38,79.1s-.21.27-1.91.55a5.34,5.34,0,0,0-4.08,2.65,1.67,1.67,0,0,0,1.71,2.45,12.14,12.14,0,0,0,3.19-2.25c1-.88,1.57-3.27,1.63-3.88Zm-3.94-3a4.9,4.9,0,0,1-2.38-2.18c-.07-.27-2.66,1.22-3.13,2.31s2.38,4,3.74,3.47,5.3-2.72,5.3-2.72a19.67,19.67,0,0,1-3.53-.88m5.23,2.79s-.2,1.15-.47,2.38-2,1.83-1.5,3.67,2.24.68,3.33-.2,1.5-2.86.48-3.75a3.69,3.69,0,0,1-1-2.51Zm3.27-1.43A5.1,5.1,0,0,0,326.9,91a3.16,3.16,0,0,0,1.84-3.88c-.41-.88-2.38-1.63-2.85-.4s-4.9,4.07-4.9,4.07a5.23,5.23,0,0,1,1.77.28m-2-2v-.95c0-.34.47-.81.68-.2a3.36,3.36,0,0,0,.4.88h.34s.07-2.51,0-3.06,1.16-.68,1.16-.27v1.16c0,.4.14,1.29.75.74a5.51,5.51,0,0,0,1.63-2.1c.27-.82-1.36-3.07-4.56-3.07s-1.22,6.26-.95,6.95l.55-.08Zm1.56,3.07a3.49,3.49,0,0,0,3,2.85c2.25.34,2.59-.61,1.84-.88a22.44,22.44,0,0,1-3.67-1.84c-.48-.41-1.16-.61-1.16-.13M313.44,86c0-.47.88-.74.88-.2s-.14,2.52-.14,2.52a.89.89,0,0,0,.76-.27,8.38,8.38,0,0,0,.47-2.31c.07-.48.95.33.95.68v2.92a8.09,8.09,0,0,0,2.11-.13c.27-.21.27-1.23.07-2S317,84,314.66,83.9s-2.65,1.76-2.38,2.45c.18.44,1.16.13,1.16-.35M297,92.94c0,.48-.2,1.3.82,1.16a10.64,10.64,0,0,0,2.17-.61s.07.88.62.74a3.17,3.17,0,0,0,1.15-.74s-.34,1,.27.88,2-2,2-2,.68.61,1.09-.07a2.75,2.75,0,0,0,.41-1.29s.61.75.88,0a5,5,0,0,0,0-2.11,12.28,12.28,0,0,0,1.16-1.09c.2-.27-.61-.81-1.09-.54s-4.35,2.85-5.23,3.33L297,92.94m13.6-15.43-.75,1.09,1,2.37-1.36.76s-.28-1.71-.34-2.11-1.22.2-1.16.61.34,2.58.34,2.58h-1.36s-.07-1-.07-1.36-1.08-.2-1.15.07-.27,1.56-.27,1.56l-1.84.55,1.09-2-1.64.06a28.33,28.33,0,0,0-2.65,3.13c-.14.48.34.82,1.5.82s2.17-.55,3.67-.55a18.61,18.61,0,0,0,3.81-.27,12.48,12.48,0,0,0,1.9-.74c1-.41,3.27-1.16,3.47-1.78s-.47-1.15-.47-1.15a2.71,2.71,0,0,0-.55-1.23c-.41-.4.07-.6-.61-1.15s-1.29-.75-1.43-1-1.09-.27-1.09-.27m4.9-5.79c.21-.13,2.31-.54,2.92-.68s0,1.5-.33,1.43-3.75.68-3.75.68l-.2,1s2.92.21,3.33.21-.27,1.22-.47,1.15-3.81-.06-3.81-.06L312.28,77a28.36,28.36,0,0,0,3.41,2c.67.21.33.62,1.76.62s3.13-5,3.95-6.87a4.12,4.12,0,0,0-.55-4.29c-.61-.54-2.45,1.3-3.06,1.77a13.31,13.31,0,0,1-2.92,1.09l-.69.88a10.16,10.16,0,0,0,1.3-.48m-11,4.63c-.62.63.34,2.11,1.3,1s-.62-1.7-1.3-1m-.2,4.49c1.76.13,1.08-2.33.13-2.11s-1.9,2-.13,2.11m2.51-2.92c-1.22.2-1.42,1.42-.27,1.56s1.09-1.7.27-1.56m.82-.41c-.07,1.68,2.18.81,2-.07s-2-1.63-2,.07m-.27-1.43c.88.13,1.22-1.58-.07-1.5-1,.07-.82,1.36.07,1.5m2.51-1.43c-.73.42-.06,2,.82,1.7s.14-2.24-.82-1.7m-5.16-.48c-.47.93.54,1.64,1.29.75s-1-1.29-1.29-.75m-14.49,2.52s-.48.07-.41.48,3.2,1,3.2,1-1,.4-.27.68a3.62,3.62,0,0,0,1.7.06s-.34,1.43,0,1.37a16.92,16.92,0,0,0,2.92-2.65c.48-.62-.68-1.23-1.36-1.23s-6.39-.41-6.73-.41l.95.75Zm9.39-3.13a1.44,1.44,0,0,0-.69,1.5c.21.61.48,1.84.08,2.18a11.38,11.38,0,0,0-2.38,3c-.15.68-.55,1.5.4,1.63a11.26,11.26,0,0,0,3.95-.89c.54-.27,1.76-1,1.76-1a1.16,1.16,0,0,1,.14-.88l.68-.88a1.17,1.17,0,0,1-.41-.89,1.78,1.78,0,0,1,.27-.75s-1.15-.61-1.22-1.36a6.63,6.63,0,0,1,.14-1.7Zm3.67,2c.75-.06.88-1.83,0-1.76s-.75,1.83,0,1.76m4.62-2.38c-.29.67.89,1.57,1.36.68s-1.09-1.29-1.36-.68m-1.76-.81c-.25.74.13,1.63,1.08.88s-.88-1.5-1.08-.88m-1.64-.48c-.9.56-.47,1.64.34,1.16s.21-1.5-.34-1.16m5.24.41c-.13,1.16,1.63,1.63,1.63.34,0-1.84-1.57-.88-1.63-.34m1.5-5.3.88-.82-.2,2.92.54-.06a9.56,9.56,0,0,1,.34-1.43,11.63,11.63,0,0,0,.27-1.84l1.5-.13s-1.23,2.92-1.43,3.46.27.55.61.14a33.77,33.77,0,0,0,1.57-3.06l1.22.54s-.14.28-.41.89a16.88,16.88,0,0,1-1.83,2.31.45.45,0,0,0,.61.2c.41-.2,2.45-1.83,3.94-2.72s1.09-1.56.68-2.24a10.77,10.77,0,0,0-2.86-2.31,5.64,5.64,0,0,0-4.35-.41,3.66,3.66,0,0,0-2.45,3.47c0,.81.08,3.47.34,3.6s.82-.27.82-.27Zm-3.47,2.38c.61.41.82-.89,1.08-2.52s-.75-2.18-1.9-2.59-2,1.43-2.24,1.84-2,1-3.27,1.91a2.61,2.61,0,0,0-.2,3.73c.88.69,2.65-.54,2.52-.88s-.89-.61-.89-.61.82-.68,1.43-.41,1.22,1.3,1.76,1.43,1.3-.81,1-1.09a17.5,17.5,0,0,0-1.43-1,1.65,1.65,0,0,1,.34-.81s1.16.61,1.77,1m0,2.72c1.08.4,2.07-1.15,1.15-1.57-.75-.34-2.24,1.16-1.15,1.57m4.21,2.72c1.23.4,1.9-1.68.82-2-.75-.2-2,1.57-.82,2m-.54-4.56c-.53.62.41,2.24,1.43,1.36s-.62-2.31-1.43-1.36M299.23,62c-.14,2,1.42,4.15,2.17,4.08s1-1.29.75-2.79-1.5-5.64-1.5-6.59a23.16,23.16,0,0,0-1.42,5.3m-13.4,2.31a5.87,5.87,0,0,0,2,2s-.27,0-.27.48,1.16.68,1.16.68l-.42.82.89.2c.88.21,1.5.34,1.5.34l-1.43,1.09s.2.27,1.29.34l2.31.13-1,1a5.33,5.33,0,0,0,1.7,0,18.08,18.08,0,0,0,3.4-1.15,8.15,8.15,0,0,0-1.9-1.77c-.88-.47-2.25-1-2.25-1a2.7,2.7,0,0,0-.68-.68,6.89,6.89,0,0,0-2.1-.34,4,4,0,0,1-2.18-1.56,14.61,14.61,0,0,0-2.38-2.11s-.27.34.41,1.56m35.5,1.7c.27.55-.48,1-.48,1l1.7.75,1.84-1.09a16.81,16.81,0,0,1,5.64-1c1.36.14,6.39,1.91,8.91,2.18s3.81-1.9,3.88-4.22a7,7,0,0,0-5.37-6.8c-3-.72-11,1.77-11.5,2s-1.42,2.92-2.65,4.21-3.4.82-3.4.82,1.16,1.63,1.43,2.17M307.79,47.92c1-.06,5-.2,6,1.16s1.22,3.06.75,5.44,1.56,6.46,4.62,5.58,5.17-3.61,6.4-4.08,8.77-1.64,12-1.3a7.12,7.12,0,0,1,6,4.35c.61,1.84,1.36,4.9.82,6.54s1.63-.49,1.83-1.64-.88-7.89-3.81-9.65c-2.61-1.58-5.78-2.11-10.06-1.64s-6.6.75-7.69,1.64-1.77,1-1.83.61a32.93,32.93,0,0,0-.89-4.49,3.59,3.59,0,0,0-2.58-2.24,6.84,6.84,0,0,1,1.15,2.31c.08.82.41,1.84.68,3.13s.55,2.1.55,2.1l-1.29.28s-.62-2-1.36-5.1-4.4-4.21-5.31-4.36c-1.77-.27-5.85,1.16-5.85,1.16m-5.3.06c.13.62-.27,1,2,1.78a13.44,13.44,0,0,0,5.37.54,1.93,1.93,0,0,1,2,2.38c-.34,1.16-.81,4.08-.54,4.69s1.43,2.58,1.43,2.58l.88-.47s-1.7-2.86-1.22-4.49.47-4.56-.35-5.17-.88-1-2.38-.81a14,14,0,0,1-4.69-.41,11.52,11.52,0,0,1-2.51-.82l-.07.2Zm19.52,32.85c3,2.79,7.2.68,10-1.15a49.35,49.35,0,0,1,7.55-3.67l.28,1s-4.09,2.72-5.51,3.53a24.29,24.29,0,0,0-5.11,5.11c-.27.68,3.13-1.3,4.49-2.25s8.78-4.35,8.78-4.35l.88.88s-6.8,3.95-9,5.58-5.1,7.55-4.14,6.32,5.23-3.87,7.62-5.51a42.35,42.35,0,0,1,7.27-3.4l.61,1.09s-6.05,3.2-8,4.9-4.41,5.37-3.87,4.83,4.76-2.79,6.32-3.81,7.28-2.79,7.28-2.79l.27,1s-6.32,4.56-6.93,5.17-.48,1.36,1.49.75a74.61,74.61,0,0,0,7.48-3.54l.34.89-3.33,3s4.69-.68,6.12-1.09l8.91-2.58s-3.88-2.18-7-3.61-7.54-9.11-9.11-13.94-6.12-3.06-6.87-2.38-6.59,6-7.07,6.46-3.94,4-7.21,3.61-2.38-6.19-2.38-6.19-3.13,3.46-.13,6.25m7.82-10.06c-2.93-.89-4.22,1.22-5.72,3.81s2,4.56,3.4,3.33,7.15-5.78,7.15-5.78-1.91-.48-4.83-1.36m5-1a13.6,13.6,0,0,0-3.06-2.18c-2.25-.88-4.15-.27-5.78,0s-3.61,2.52-3.61,2.52l.21,3.33a10.65,10.65,0,0,1,4.42-4.35c1.68-.73,6.46.68,7.48,1Zm76.93-25.08,1,1.11,3.28-.85.52-1.18Zm.85-3.6L417,42.44l.66-1-5.76-1.7Zm-1.77-2.68,7.66,2.55.65-1-9.16-2.88Zm7.59-.46,1.31.39.85-7.85-1.83-2.62Zm2.75-.91,1-1.12.4-3.14-.92-1.44Zm0-19.24c1.17.19,1.3-1.21.13-1.51a.76.76,0,0,0-.13,1.51m.65-3.86c1.26,1.35,2.75.33,2-1s-2.88,0-2,1m2.94-2.29a1,1,0,1,0,2-.66c-.39-.91-2.69-.72-2,.66m4.52,17c-1,.46-.33,3.27,2.62,1.7a33.07,33.07,0,0,1,17.27-4.91c12.3-.19,18.38,4.71,18.38,4.71a1.24,1.24,0,0,0,.72-2.35c-4.7-3.08-11.9-4.5-19-4.58a38.28,38.28,0,0,0-19.95,5.43m-1.05-19c.2,1.71,2.29,1.18,1.9-.13a1,1,0,0,0-1.9.13M433,9.14c-.54,1.35,1,2,1.5.78s-1.24-1.43-1.5-.78m5.17,4.25c-2.42-1.7-3.32-2-7.07-1.9s-7.92,3.93-7.46,7.86,7.07,7.19,7.07,7.19l.91-.52s-3.86-2.68-4.64-4.84-.72-4.39,3.4-6.09,10.4,2.09,10.4,2.09l.27-.39Zm2.94,9s-2.82-6.28-6.67-5.56-4.12,3.66-3.6,5a4.58,4.58,0,0,0,5.3,2.42c2.55-.78,5-1.83,5-1.83m-2.75-14A26.74,26.74,0,0,0,437.11,11c-.2.65.27,1.11.52.78a1.24,1.24,0,0,1,.72-.39s1.57-.13,3.27,2.75c.76,1.28,3.47,7.72,3.47,7.72l.85-.07s-.65-5.5-2.55-8.51a17.42,17.42,0,0,0-5-4.9m8.51,5.82c-.72,0-.26.79-.07,1.57a7.79,7.79,0,0,0,.53,1.44l1.5-.2s.2.27.2-.85,1.44-.58,1.44-.06a6.64,6.64,0,0,0,.06.91l1.44.13a4.89,4.89,0,0,0,.66-1.43c.26-.92.26-1.64-1.05-1.64s-4.71.13-4.71.13m5.49,7.39c.46-1.43.53-3.33-3-3.33s-2.28,3.4-2.28,3.4,3.53.06,5.29-.07m10.93,2.16c2.69.85,4.71-.65,4.58-4S463,16.27,462,17.32,458.44,22,458.44,22s2.15.91,4.84,1.76m-3.6-6.93A30.25,30.25,0,0,1,467,14.64c3.46-.46,6,2.81,5,5.16s-4.91,5.37-4.91,5.37l.92.58s4.51-2.94,5.42-4.18,3.25-5.48-.45-8.84c-3.47-3.13-9.95-.45-11.39,1-.9.94-2.22,2.62-2.22,2.62ZM476.3,16a1,1,0,0,0,2,0c0-1.24-2-.79-2,0m-1.7-4.45c-.81.56.45,2.29,1.31,1.44s-.65-1.9-1.31-1.44m-3.34-2.35c-.82.71.13,2.15,1.11,1.17s-.59-1.63-1.11-1.17m-4.18.39a.88.88,0,1,0,1.76-.07c-.07-1.11-1.83-.91-1.76.07m-3.8,1a.86.86,0,0,0,1.7-.26c-.07-.92-2-.79-1.7.26M456,14a17.12,17.12,0,0,0-2.29,7.72l.72.06s2.05-4.92,2.56-6c1-2.29,4.18-4.51,4.18-4.51a6.22,6.22,0,0,0,.59.72c.32.32.39-.21.39-.21l-.79-3.26A21.69,21.69,0,0,0,456,14M446,13l6.93-.07c.07-2.48-2-2.94-3.53-2.94a3.52,3.52,0,0,0-3.4,3m3.4-3.6c2.22,0,1.7-2.55-.26-2.48s-2,2.48.26,2.48m2.29-1,3.41,1.37L455.23,5l-3.4,2.68Zm-8.24.91L446.92,8l-.06-.72-3.14-2.54Zm4.19-3.4a4.05,4.05,0,0,1,1.69-.46,2.89,2.89,0,0,1,1.31.59l2.82-3.27-8.25-.53ZM485.94,87s1.11-.22,1.33.34,1.22,3.54,1.55,4.65-1.66,1.22-1.66,1.22l.11.67,4.55-1.67-.22-.44s-1.22.44-1.55-.44-1.11-3.66-1.11-3.66l4.54,4.32,1.11-.11,2-5.43a36.32,36.32,0,0,1,.55,4.21c0,1.22-.89.89-.89.89l.34.66h2.21c.78,0,3.55.45,3.55.45l-.33-.56s-1.44-.55-1.77-1.44a34.6,34.6,0,0,1-.78-4.32c-.11-.66,1.77-.67,1.77-.67l-.11-.55-5-.33-1.66,3.76-3.88-3.32-4.55,1.11-.11.66Zm15.52,1.89c0,.88,1.89,5.43,5.55,5.65s3.88-1.22,4-1.88a5.1,5.1,0,0,0-.78-3.11c-.78-1.55-3.55-2.87-4.21-3-4.33-.77-4.55,1.44-4.55,2.33m3.55-.45a22,22,0,0,0,.44,3.22c.23,1,.56,1.77,1.33,2s1.22,0,1.11-.77-.33-3-.44-3.66a2.49,2.49,0,0,0-1.66-1.88c-.56-.12-.78.55-.78,1.1m5.1-.66v.66s1.33.89,1.55,1.67a26.87,26.87,0,0,1,.78,4c.11,1.22-1.55.66-1.55.66v.56l5.1,1.55v-.55s-.89-.33-.89-.89-.55-4-.55-4l5.31,6.87,2.78.78s-1.11-6-1.11-6.43,1.66.22,1.66.22v-.67l-5.32-1.66.11.67a12.06,12.06,0,0,1,1.22,1.21,26,26,0,0,1,.55,3.56l-4.21-6.1-4.87-1.67-.56-.44Zm13,8.87,2.44,2.88,1.22-2.11-2.11-2.55Zm19.95.77.78,2.55a22.54,22.54,0,0,0,2.33.44.89.89,0,0,0,.67-1.32,2.08,2.08,0,0,0-1.67-1.45,11.31,11.31,0,0,0-2.11-.22m-17.4-4s1.33.45,1.44,1.11.78,4.44.89,5.21-1.44.22-1.44.22l.11.67s7.31,1.88,8.65,1.77,2.88-1.11,2.88-1.66a17.66,17.66,0,0,0-.45-2.88c-.11-.23-1.55-2.55-3.43-2.88-1.66-.3-7.48-1.89-8.82-2.25l-.27-.08Zm11.86,2.56s1.11.43,1.33,1.1,1.55,4.88,1.77,5.54-1.21.23-1.21.23v.44l6.54,1.11-.12-.33s-1.21-.45-1.32-.78-.56-1.89-.56-1.89a11.78,11.78,0,0,1,2.44,1.22c.89.67,1.55,2.55,2,2.55s4.65.67,4.65.67l-.11-.44a4,4,0,0,1-1.44-.67c-.78-.56-1.11-1.77-1.44-2.33a4.47,4.47,0,0,0-1.44-1.11s1.66-1.55,1.44-2-.11-1.33-2.11-1.89-11-2.21-11-2.21Zm16.85,4.42c.23.89,1.67,2.89,2,3.77a3.2,3.2,0,0,0,2.33,1.67c1.55-.11,1.43-.33,1-1.33a32.81,32.81,0,0,0-1.66-3.66,2.84,2.84,0,0,0-2.33-1.44s-1.55.11-1.33,1m-2.88,1.34c1.22,3.43,4.66,5,8.09,5s4-1.67,3.77-2.44a5.94,5.94,0,0,0-1.11-3c-1.21-2-5-2.66-6.87-2.66-4.21,0-4.36,1.74-3.88,3.11m34.2-11.89s-2.32,1.58-3.59,2.22-3.48,1.9-3.48,1.9L583,97.2a52.09,52.09,0,0,1,4,3.8l.53-.32s-1.06-2-1.69-3.06a19.68,19.68,0,0,0-2.53-2.85A46.73,46.73,0,0,0,588,96.14c.95.11,2.54.11,2.54.11a7.64,7.64,0,0,0-1.27-1.16c-1-.74-4.54-3.38-4.54-3.38l1.48-1.48-.53-.42Zm3.48-8.87s-.95,5.91-1.37,8.13-.74,3.27-.74,3.27a11.1,11.1,0,0,1,3.16,1.06c1.28.74,4,2,4,2l-.53-1.9-2.85-1.69s3.8-3,5.49-4.75a10.14,10.14,0,0,0,2.32-3.69s-5.59,2.21-6.33,2.85a16.72,16.72,0,0,1-1.79,1.27Zm-8-3.06-.32.32s-1.69,3.69-2.21,4.85a23.1,23.1,0,0,1-2.54,3.48,12,12,0,0,1-.95-1.26,8.27,8.27,0,0,0-1.9-1.48,18.92,18.92,0,0,1,.74,3.7,26.82,26.82,0,0,0,.95,4.54,28.92,28.92,0,0,0,6.65-2.11,20.64,20.64,0,0,0,5.07-4.23,9.76,9.76,0,0,0-2.22-.32c-1,0-3.59.21-3.59.21a10,10,0,0,0,.53-3.27v-3.9l-.21-.53Zm-3.91-13.19c-.9.35-1.06,1.15-1.16,2.32a16,16,0,0,1-.31,3.37c-.32.85-1.48,3.28-1.48,3.28l2,.42s1.59-2.43,2-3.38A14.32,14.32,0,0,0,578.9,69l.84.42s-.84,1.9-1.15,2.43-1.17,2.22-1.17,2.22l1,.21a16.89,16.89,0,0,0,1.59-2c.42-.73,1.47-2.43,1.47-2.43l1,.32s-1.06,1.91-1.49,2.54-1.26,2.53-1.26,2.53l.74.42a25,25,0,0,0,2.54-2.74,17.1,17.1,0,0,0,1.15-2.11l.85.31a7.61,7.61,0,0,1-1.06,2.75,8.24,8.24,0,0,0-1.16,2.64l.64.1s1.9-1.89,2.32-2.32a5.83,5.83,0,0,0,.84-1.58l1.38.73s-.74,1-1.17,1.48-2.64,2.64-2.64,2.64l.85.53s2-1.26,2.64-1.79a16.62,16.62,0,0,0,1.58-1.7l.74,1.7s-1.48.94-1.9,1.26a10.43,10.43,0,0,0-1.27,1.58l1.48.43a7.62,7.62,0,0,1,2.64-2.22c1.27-.42,1.69-1.69.95-2s.32-1,.21-1.69-.84-1.06-1.79-1.06.42-1.79-.74-2.22a3.84,3.84,0,0,0-2.43-.1c-.42.1.11-1.59-.64-2a4.93,4.93,0,0,0-2.53,0s-.2-2-1.05-2a9.3,9.3,0,0,0-2.43.63s-1.27-3-3.17-2.21m-7.49,13.93-.32,2.43.53,1,1.27-2.22,1.26.63-1.16,2.64,1.8-1.47,2.64-.12a1.68,1.68,0,0,1,.42-.94L577.32,79l1.16.53s1,.31.63-.53-3-2.53-6-3.06-5.81,2.64-5.81,2.64Zm26.71,12c-1.69,1.06-1.06,1.38-.53,1.48s7.5,3.38,8,3.69,1.69-.84,1.05-1.16-5.27-3.37-5.27-3.37,2.22-1.8,3.06-2.33a8.94,8.94,0,0,0,2.43-3.06s-7.08,3.7-8.76,4.75m-1.17-17.94s0,2.63.74,2.42,2.86-2,3.91-2.21,4.44-1.48,4.44-1.48l-4.44.32a32.33,32.33,0,0,0-4.65.95m-7.17-7.08A15.93,15.93,0,0,0,590.62,70c1,1.16,1.69,1.8,2.64,1.8s4.54-2.64,5.28-3.07,3.59-1.58,3.17-1.58-5.6.32-5.6.32a17.31,17.31,0,0,0,1.48-3.8c.21-1.37.95-4.86.95-4.86a14.39,14.39,0,0,0-2.11,2.85c-.53,1.16-3.28,5.28-3.28,5.28l-5.27-3.06s.1,1.06.21,1.79m-104-21,2.75-.22,1.27-.95h-4.65ZM481.67,41l.75.94,6.43.74L490,41.46Zm2-2.43-.32.85,3.38-.75,1.38-1.89Zm6.54-5.49-6.64,3.8v.74l5.48-2.43Zm-11.4-3.27-1.26,1,.1,3.38.95.84Zm2-3.38-1.05,1.58.84,11.72,1.05-1.58Zm19.74,16.36c-.42.74-.42,2-1.79,2.64s-3.17,1.16-3.7,1.69A3.55,3.55,0,0,0,493.92,49c-.21.85.31.63,1.06.21a12.08,12.08,0,0,1,4.11-.63c1.17,0,2.64-.21,3.28-1.37a14.6,14.6,0,0,0,.95-2.75c.31-.84.73-1.9.73-1.9ZM497.3,38.5a22.53,22.53,0,0,0,1.48,2.33c.31.52.73,1.26,1.79.1s2.64-.84,3.59-.84,1.9.21,1.9-.43-1.37-1.16-2.22-1.58a2.41,2.41,0,0,0-2.11.11c-.64.21-2.43,1.15-2.74.74s-1.16-1.8-1.48-1.69a1.16,1.16,0,0,0-.21,1.26m70.11,24.22a6.13,6.13,0,0,0,0,2.56,36.94,36.94,0,0,1,1,5.93c0,1-.58,2,.49,2a5,5,0,0,0,2.93-1c.32-.43.05-2.08-.37-3.2s-1.39-4.22-2.08-4.81-.7-.37-1.07-.91a1.62,1.62,0,0,0-.86-.64m-19.22,7.85c.11.43-.05.8,1,.54a14.76,14.76,0,0,0,2.94-1.55s.75,2.35,2.35,2.4a49.12,49.12,0,0,0,5.71-.59l.11,1a20.9,20.9,0,0,0-3.31,2c-.43.54-1,2.09,0,1.71s3.37-1.44,3.37-1.44l.21,1.07a22.75,22.75,0,0,0-2.78,2.35c-.26.47-.21,1.22.7,1a13.43,13.43,0,0,1,2.83-.1l.43,1.38s-1.71,1-2.14,1.34a.82.82,0,0,0,.8,1.33c1-.1,1.92-.1,1.92-.1l.38,2.08s-1.44.74-1.87,1-.43,1.12.48,1.23a18.81,18.81,0,0,1,2.46.59l.47,1.33a8.06,8.06,0,0,1-1.44,1c-.75.38-.64,1.28.48,1.28s1.82,0,2.13.32.76,1.17.28,1.17a5.69,5.69,0,0,0-1.5.32c-.53.17-1.34,1.66.42,2a12.78,12.78,0,0,0,4.6-.53l.37.85s-1.86,1-2.35,1.28-.8,1.34.86,3,4,3.63,5.28,3.74l1.28.11s-1.12-2.56-1.44-3.2-1-2.52-1.28-3.21.59-.59.8-.21,3,4.27,3.69,4.7,1.28.26.74-1-3.52-6.2-4-7.1a10.41,10.41,0,0,1-.75-2.45,14.25,14.25,0,0,1-2.78-2.46c-.42-.8-4.32-8.81-4.85-11S563,68,561.86,67.48s-4.11-2.73-6.72-1.82a17.09,17.09,0,0,0-5.08,2.77c-.37.38-.48,1-.85,1.13s-1,1-1,1m5.66,17.78c-.58.64-1.44,1.39-2.18,2.35a2.88,2.88,0,0,0,.16,3.31c.63,1,1.33.75,1.65.59s.91-.59.75-1a9.22,9.22,0,0,1-.59-1.82,2.49,2.49,0,0,1,.8-2c.32-.33.7-.59.8-1,0,0-.8-1.12-1.39-.48m5,4.43a.61.61,0,0,0-1.12.48c.32.8.16,1,.53,1.5s1.6.58,1.34-.27a10.8,10.8,0,0,0-.75-1.71m-6.46-7.64c.16.49,1.6.06,1.6.06s1.55,2.51,1.87,3.31a2,2,0,0,1-.86,2.4c-.8.38,0,1.18.64.86s1.55-1.07,2-1.34.54-1.34,0-2.72-1.65-3.85-2-4.06a1.45,1.45,0,0,0-1.6-.1c-.85.37-1.81.85-1.81.85ZM549,80.34a5.49,5.49,0,0,0-1.77,1.5c-.59.69.11,2.29.7,4.53s1.17,2.56,2,2.3,2.57-.85,3.1-1.07-.16-.85-.16-.85a6.88,6.88,0,0,1-1.13-.22,2.18,2.18,0,0,1-1.27-1,38.59,38.59,0,0,1-1.23-3.95c0-.16-.06-.48.16-.48a7.89,7.89,0,0,0,1.28-.53,1.08,1.08,0,0,0,.11-.37c0-.17-.27-.44-.27-.44a13.55,13.55,0,0,0-1.49.54m-2.73-4.17c.11.33.64.22.64.22l1.93-.64c.16,0,.53-.22.63.11s2.41,4.8,2.46,5,.11.58,0,.64-1,.53-1,.53l.43.58a12.58,12.58,0,0,1,1.23-.42c.59-.16,1-1.39.75-2.19a23.53,23.53,0,0,0-1.82-4.59,2,2,0,0,0-2.51-.75c-.53.22-2.56.91-2.56.91a.68.68,0,0,0-.11.58m1.5-2.13a1.6,1.6,0,0,0-1.18-2.4c-1.65-.11-4.7.59-4.7,3.2s1.05,3.74,2.36,4.06c3,.75,3.09-.8,3.09-.8s-2.88-.37-2.83-2.46,1-2.14,2-2.24,1.23.64,1.23.64m-11.11,2.13s-.85,2.3-1.12,2.84-1.07,2.67-1.07,2.67l1.18.26s1-2,1.12-2.61l.75-2.73Zm-4.43.54a30.78,30.78,0,0,1-1.92,3.15l1.87.91s.85-1.87,1.06-2.19,1.61-4.22,1.61-4.22l-1.07-1.12s-1.23,2.67-1.55,3.47m-3.47-3c-.43,1-1.87,3.9-1.87,3.9l1.23.8s1.18-2,1.66-2.94c.58-1.12,1.75-3.89,1.75-3.89l-1.33-1s-1,2.19-1.44,3.15m-23.43,3,1.12.48-5.71,2.67,1.33.27,5.23-2,.64.48-3.68,1.87,1.49.48,3.2-1.76.38.75-2.09,1.23,1,.74,2-1.06.38.69s-1.29.91-.86,1.06,20.82,6.41,22.05,6.58a11.87,11.87,0,0,0,3.43-.47,11.84,11.84,0,0,1,2.2-.56,7.94,7.94,0,0,1,1.84,1c.39.23.16.68-.26,1a5.93,5.93,0,0,1-2,.55,1.54,1.54,0,0,0,.75,1,14.6,14.6,0,0,0,3,1,3.77,3.77,0,0,0,1.57-.59,16.51,16.51,0,0,0,2.93-2c.69-.83-1.29-4.31-2.23-5.36a4,4,0,0,0-2.7-1.41,15.56,15.56,0,0,0-2.92,1c-.92.39-2.79.06-3.9-.07s-6.47-2.13-7-2.29a6.67,6.67,0,0,1-3-1.68,7.27,7.27,0,0,0-4.1-2.42c-2-.47-5.58,2-5.58,2a8.54,8.54,0,0,1-1.25-.7,8.31,8.31,0,0,1-.82-1,9,9,0,0,0,1.68-.89,2.81,2.81,0,0,0,1.28-2,3,3,0,0,0-.27-1.42L516,73s-.13,1-.13,1.32.13,2.3.13,2.3l.85,0s.23-.89.27-1.18A12.42,12.42,0,0,0,517.3,74a6.2,6.2,0,0,0-.26-1.38l1.54-.82a2,2,0,0,0,.2.56c.13.2.23.59.52,1.18a9.53,9.53,0,0,1,.2,2.73l.66-.17s.19-.69.36-1.15a4,4,0,0,0-.17-2c-.16-.42-.49-1.9-.49-1.9l1-.72a6.67,6.67,0,0,1,1,.59,4.19,4.19,0,0,1,.36,1.71c0,.72-.19,3-.19,3h1.11a3.6,3.6,0,0,1,.07-.53c.06-.39.43-2.89.43-2.89a2.54,2.54,0,0,1,.65.3c.23.16,1.25,1,1.25,1s-.1.46-.29,1.08a16.28,16.28,0,0,1-.79,1.78l.85.62s.66-1.22,1-1.91,1.74-3.21,2-3.64l.89-1.64-.73-.63a4.54,4.54,0,0,0-.59.66c-.16.27-.66.89-.66.89l-.26-.33.79-2.13L527,67.5l-1.18,2.23-.52-.33a3.75,3.75,0,0,1,0-.94c.06-.43.42-2.5.42-2.5l-1-.43a8.39,8.39,0,0,0-.42,1.09c-.1.39-.72,2.06-.72,2.06l-.5-.26a12,12,0,0,1,.2-1.58c.13-.49.49-1.8.49-1.8l-1.05-.33a16.84,16.84,0,0,1-.79,2,4.65,4.65,0,0,0-.36,1.18l-.42-.49.33-2.72-1.32,0-.19,2.5a6.4,6.4,0,0,0-1.19.19,15.56,15.56,0,0,0-1.6,1L513.33,68l0,2.66s-1.41.79-2.07,1.28-3.78,2.2-3.78,2.2l-2-.59a4.44,4.44,0,0,1-1.21,2.17c-.95.85-5.51,2.4-6.11,2.76l-1.8,1.08,1.87.23,7.1-3ZM503.91,69A5.13,5.13,0,0,0,505.58,72c.89.5.76.83,3.45-.85s3.54-2.16,2.63-4c-.72-1.46-1.68-1.44-1.68-1.44s.17.59.36,1.08-.75,1.55-1.77,2.07-2.46,1.48-3.09,1.22a11.24,11.24,0,0,1-1.57-1m-8.08,2.43c-.35.17-.24,4.63,1.49,4.66a12,12,0,0,0,5.83-1.47,3,3,0,0,0,.6-3.66c-.89-1.3-1.86-1.21-1.86-1.21s.37.75.56,1.12,1.13,1.65-1.73,2.43c-2.7.75-3.49.46-3.87-.1s-.66-1.94-1-1.77m-1.67,1.3A3.39,3.39,0,0,1,492,75.48a23.58,23.58,0,0,1-2.89.65c-.47.09-.65,2.73-.38,3.26.46.91,1.95,0,3.25-.6s3.09-1.63,2.9-3.87-.73-2.15-.73-2.15m18-8.66-.66.55a8.61,8.61,0,0,0,2,1.68c1.31.84,3.36.47,3.83-.65a10.65,10.65,0,0,0,1.11-3.54c.09-1.4-1.21-1.59-1.67-.75a38.24,38.24,0,0,1-3,3.54Zm-11.28,6-.57-.84a1.45,1.45,0,0,1,.57-1.12,21.58,21.58,0,0,1,2.61-1.21c.65-.28,1-.37,1.12,0a3.62,3.62,0,0,0,.74,1l1.31-.38s-1-1.39-1.49-2a2.66,2.66,0,0,0-2.24-.84,7.84,7.84,0,0,0-3.73,1.78c-1.59,1.3.74,4.1.74,4.1Zm-9.61,3c-.1-.29-.65-1.31.19-1.87a18.29,18.29,0,0,1,4.84-1.58c.94-.1,1.5,2.14,1.5,2.14l.83-.18A15.17,15.17,0,0,0,497,68.39c-.93-1.21-4.29-.74-5.41-.18a3.78,3.78,0,0,0-2.05,2.7,16,16,0,0,0,1.31,3.54l.83-.28-.37-1.11m21.82-10.35q0-.1-.09-.24a2.61,2.61,0,0,0-3.73-1.63c-2.71,1-3.08,2.52-2.89,3.73a9.74,9.74,0,0,0,1,2.7l.84-.28s-1.12-2.14.19-3.07,1.77-1.49,2.6-1.59a2.49,2.49,0,0,1,1.68.75Zm-8.76-2.05-1.13,2.05h1.87l1-2.24Zm-5.13-.56-1.31,5,3-1.4s1.2-2.61,1.39-3S502,60,501.42,60s-2.23.1-2.23.1M494,58.7c0,.46,0,5.78-.19,6.34l-.19.56,2.24-.1s1.68-5.13,1.68-5.4-.94-1-1.49-1.12-2-.28-2-.28m-4.67-2.06c.1,1.4.56,9.7.56,9.7l1.59-.37-.1-8.11ZM545.62,66.9l-5,1.4-1.21-1.12,1.41-4.2-1.59-.74-4.66,1.21-.94-.84,1.13-4.29L533,57l-4.57,2.7-1.3-.37-.75-5.78-1.31-.38s-1.49,1-2,1.4-2.61,1.5-2.61,1.5l-.93-.65s.18-1.78.27-2.43a18,18,0,0,0,.1-2l-1.59-1a31.36,31.36,0,0,0-2.79,3c-.38.65-2.61,1.4-2.71,1s-3.54-5-3.54-5v8.21l1-3,.83,1.12-.19,3s.19-.74.29-1.21a6.25,6.25,0,0,1,.46-1.21l1.12.65-.28,1.68a5.58,5.58,0,0,0,.75-.75,2.89,2.89,0,0,0,.19-1.11l1.21-.38s-.19,1.4.09,1.12a12.35,12.35,0,0,1,2.14-.93l.47,1.21s-2.89.65-3.45,2.8a1.53,1.53,0,0,0,1,1.86s-.19-3.45,3.26-2.89c2.7.44,1,3.27,1,3.27s-.65.93.1.83,1.86-.83,1.86-1.58v-2s1.87,0,2,.74.19,2.15,1.31,2.61a34.93,34.93,0,0,1,5.5,2.9c1.21.93,4.85,3.45,4.85,3.45l2.42-2,.56.84-2,1.68.56.46a16,16,0,0,1,1.49-1.12c.38-.18,1.3-.65,1.12-.18a17.45,17.45,0,0,1-1.21,1.86l1,.38L540,70.07l.93.37-1.5,2.06,1.5.93.93-1.49h.56s.46-.65,1.21-1.5,2.33-2,3.17-2.79l-1.21-.75Zm-42-37.67a6.44,6.44,0,0,1-1.49,2.42c-.56.38-3.17.47-3.82.47a1.23,1.23,0,0,0-1.21,1.59,3.17,3.17,0,0,0,1.77,2.52,5,5,0,0,0,3.07.09c1.12-.19,2,.37,2.52.09a4.92,4.92,0,0,0,1.59-1.12c.37-.47,1.21.38,1.21,1s-.19,1.12-.19,1.58.19.93.84.75,1.59-2,1.59-2a7.46,7.46,0,0,1-.1,2.42c-.28.66-1.12.93-1.12,1.4s.47.47,1.31.28,1.12-1.68,1.21-2.61-.28-5-.28-5l1.4-.37a6.53,6.53,0,0,1,.74,1.87c.1.74.1,2.7.1,2.7a5.14,5.14,0,0,0,1.39-2,4,4,0,0,0,.47-2l1.12.38s-.56,4-.18,4.84a7.39,7.39,0,0,0,5.87,3.08c2.89-.09,5.31-.37,6.62-2.23a13.67,13.67,0,0,0,1.68-3l1.4.56s-1.68,3.45-3.17,4.48-5.88,1.86-7.09,2-.37,1.21-.09,1.21,4.47.56,6.43-.94a59.4,59.4,0,0,0,5.32-5.13l-1.4,4.2s-3,2.71-4.94,3.08-5.13.75-5.13.75V48s4.1.56,5.68.1a27.42,27.42,0,0,0,4.94-2.8l.1,1.68s-3.36,2-4.48,2.51a25.88,25.88,0,0,1-4.47.84l.09,1.12s2.14.28,3.08.38,4.28.18,4.28.18l.19,1.5-1.58.28.09,3.63,4.2-1.86,3.08,1s.37,3.17.46,3.45.93.84,1.21.28,4.76-9.41,5-10.44-1.12-1.68-1.49-.65-2.8,6-2.8,6l-.56-2.42s2.71-6.53,3-7.46-.83-2.05-1.21-1.59-2.61,4.67-2.61,4.67l-.56-2.24s2.15-4.29,2.42-5.13-.65-3-1.39-2a33.13,33.13,0,0,0-2.15,3.63l-.93-2.05s2.14-3.73,2.24-5.13-.65-3.82-1.86-4.1a15.08,15.08,0,0,0-3.55-.09,4.07,4.07,0,0,1-3.26-1.59c-.75-1-1.22-2.14-2.24-2.14s-7.65-.09-8,.28a8.06,8.06,0,0,1-.74.65s-.47-.56-.85-.37-.18.75-1,1-.84-.28-.65-.66-.47-1.21-.84-.56-.93,1.59-1.59,1.77a8.67,8.67,0,0,1-3.17,0c-1.3-.18-2.89-.55-3.73-.55a11.06,11.06,0,0,0-1.77.18m40.5,32s-.76,1.5-.19,2.11c.87.93,4.85.93,4.85.93s-2.73-1.74-3.36-2a4.42,4.42,0,0,1-1.3-1m18.15-6a23.78,23.78,0,0,0-3,.25,38,38,0,0,0-4,1c-.75.31-.94-.13-1.93-.56a33.39,33.39,0,0,0-4.29-.87,11.28,11.28,0,0,0-3.48.06,28.84,28.84,0,0,1-.56,2.92c-.31,1.12-.56,2.18-.56,2.18a3.17,3.17,0,0,0,.93.43c.5.13,2.12,1.06,2.67,1.25s2.43,1,3.18,1.18,1.36.62,2,.43a38.47,38.47,0,0,0,4.22-1.93c.75-.43,3.8-.37,3.8-.37l-.07-1.55s-2.17-.44-2.6-.44-1.19.75-1.75,1.18-2.74,1-3.17,1.44-.93.31-2,.24a4.24,4.24,0,0,1-2.55-1.18,12.36,12.36,0,0,0-2.61-1.43c-.56-.25-1.24-.37-1.12-.8s.25-.38,1.06-.69a18.85,18.85,0,0,1,4.1-.19c.56,0,2.61.94,3,.75s4.66-1.8,5.53-2.11,2.3.06,3.42.06,2.86-.06,2.86-.06l-.06-1.56s-2.43.37-3.11.37m.31-7a9.36,9.36,0,0,0-3.42,1.31c-.62.43-2.86,2.3-2.86,2.3l-1.74-.43c-.49-.13-2.86-.44-3.48-.57A29.4,29.4,0,0,1,548,49.62c-.25-.12-.43-1.12,0-1.12h2.8c1.06,0,2.48.13,3.73.25s2.61.19,3.17-.25,4-4.22,4.41-4.47a27,27,0,0,1,4.35-.26s-.06-1.42-.37-1.42-2.74.19-3.36.19a5.1,5.1,0,0,0-1.87.8,17.92,17.92,0,0,0-1.92,1.74c-.37.31-2,.62-2.49,1.37s-1.8.56-2.85.31a13.54,13.54,0,0,0-3.23-.5,29.11,29.11,0,0,0-4.61.81l.25,3.11a18.55,18.55,0,0,1,2.92,1.19,7.49,7.49,0,0,0,1.93.93c.75.24,3.6.37,4.11.74s1.17,1.06,1.92,1.06,4.78.06,6,.18,2.36.13,2.36.13l.06-.75a13.58,13.58,0,0,0-2.73-.93,32.15,32.15,0,0,0-3.54,0,15.79,15.79,0,0,1-2,.12,14.22,14.22,0,0,0,2.35-1.67,2.6,2.6,0,0,1,1.87-1.31,22.33,22.33,0,0,1,3.42-.13c.62.07,2.3.5,2.3.5s0-1.43-.43-1.61a29.27,29.27,0,0,0-3.92-.44m-18.46-7.46a14.19,14.19,0,0,1,1.55-.13,13.85,13.85,0,0,1,3.17,1.13c1.25.5,4,2.36,4.92,2.67s3.16.25,4-.5,3.36-2,3.79-2.36,3.42-.19,3.42-.19l-.12-.93a19.82,19.82,0,0,0-2.12-.56c-.74-.12-2.73-.18-2.73-.18a3.71,3.71,0,0,0-.81,1.24,4.1,4.1,0,0,1-3.23,1.8c-1.37.13-2.11-.87-3.05-1.37a19.46,19.46,0,0,0-3.35-1.12c-.5-.12-.56-.37.24-.55s4.92-.63,5.85-1,3.48-3.42,4-3.79S564,35,564,35l-.75-2.05s-2,.19-2.55.19a24,24,0,0,0-2.8.37c-.5.09-3.91,3.23-4.53,3.73s-5.72,1.12-6.59,1.12a24.33,24.33,0,0,0-3.17.5Zm4.35-6.9s3.17.38,4.11.38a9.92,9.92,0,0,0,2.11-.13,16.65,16.65,0,0,0,3.54-1.86c.5-.44,3.92-.31,3.92-.31l-.44-.81s-2.37,0-3.23.12-3.79,2.11-4.48,2.43-5.47-.56-5.47-.56Zm-31.7-1.89a13.9,13.9,0,0,1,2.05-.75c.42,0,.37.28.56,1.17s1.68,1.91,2.7,2.19,3.08-.52,3.64-.61.84.46,1.44.75a4.7,4.7,0,0,0,2,.32,13.07,13.07,0,0,0,3-.23c.56-.23,1.31-1.12-.23-.84s-3.41-.56-4.9-1.21-1.58-3.17-1.58-3.17-2.84.18-3.77.09a11.5,11.5,0,0,1-2.24-.56,4.94,4.94,0,0,1-.61.47,2,2,0,0,0-.79.56c-.19.28-1,.18-1.49.18s-.71.89-.66,1.31a1,1,0,0,0,.89.33m.23,4.33a2.41,2.41,0,0,0,1.49,3c2,.65,4.76.75,6.39-.33A4.79,4.79,0,0,0,527,36.41c.14-.28-1-.79-1.21-.6S523.1,38,522.5,38.09a6.86,6.86,0,0,1-3.5-.28,5.22,5.22,0,0,1-2-1.54M503.94,31a1.61,1.61,0,0,0-.33,1.5c.14.51,1.82.13,2.33,0s1.31-.33,1.41-.65-.42-.94-.75-1a3.6,3.6,0,0,1-1.49-.42,3.42,3.42,0,0,0-1.17.6m17.2-.09c0,.89.75,2.56,2.15,2.14s1.12-1.49.93-1.81a3.21,3.21,0,0,0-1-.75s0,.61-.09,1.07-.8.75-1.08.33a6.06,6.06,0,0,0-.93-1m-8.06-4.06a8.41,8.41,0,0,0,3.73,0,66.66,66.66,0,0,1,6.71-.79c.84,0,3.78-.05,3.78-.05a2.35,2.35,0,0,0-.7-.84,13.6,13.6,0,0,1-1.17-.84,14.84,14.84,0,0,0-2.14-1,7.32,7.32,0,0,0-4.52.05c-.8.32-3.27,2.33-4.06,2.51a7.81,7.81,0,0,1-3.12-.55,5.79,5.79,0,0,0,1.49,1.53m11.85-13.33c-.25.21-.13.7-.21,1.1s-.9,1.35-1,1.88.49,1,.82,1.64.65.74.86.74.28.12,1,.28.16-3.55.12-3.92a7.42,7.42,0,0,0-.74-1.92,1.87,1.87,0,0,0-.89.2M500.59,6a.57.57,0,0,0,1,.17c.08-.21.24-.57.36-.57a6.7,6.7,0,0,1,1,1.63c.49.9.94.94,1.07.86s.74-.57.74-.57a2,2,0,0,0,.44,1.68c.82,1.22,1.48.73,1.44.44a2.53,2.53,0,0,1,0-.65s.28.08.57.81a6.65,6.65,0,0,0,1.3,2.46c.58.45,1.36,0,1.32-.16s-.25-.78-.17-.94.7.49.82,1.26a14.11,14.11,0,0,0,.78,2.38c.24.69,1.79.86,1.79.86s-.07-1.19-.07-1.39.24-.17.56.28,1.19,2.87,1.52,3.35a.68.68,0,0,0,1.18-.28c0-.45-.4-1.84-.36-2s.44.2.86.81,1.71,3.23,2.25,3.93,1.47.73,1.51.49,0-1.47,0-1.92.48.16,1.06.69.37,1.84.37,1.84a18.07,18.07,0,0,0,1.88.54c.69.11,0-.7.69-.78s0,.9,1.07,1.59.9-1.18.57-1.67-2-.62-2-.62a2.85,2.85,0,0,0-1-1.43,4.89,4.89,0,0,0-1.27-.41,4.56,4.56,0,0,0-.33-.41c-.17-.16-1.6-1.59-2-1.92a8.1,8.1,0,0,0-2.2-.65c-.33-.08-1.6-2-2.09-2.42s-2.45-.12-2.45-.12a14.42,14.42,0,0,0-1.39-2.82c-.7-.54-2,.12-2,.12a21.11,21.11,0,0,0-1-2c-.28-.41-1.76-.29-1.76-.29a5,5,0,0,0-1-1.43c-.57-.53-1.71.08-1.71.08A13.31,13.31,0,0,0,502.64,5c-.45-.49-1.19,0-1.19,0a10.45,10.45,0,0,0-.73-1.35c-.45-.69-.41,0-.53.37a11.33,11.33,0,0,0,.4,2m34.64,21.23a5.14,5.14,0,0,0,.2-2.78c-.16-.7-2-6.22-2-6.43a2.18,2.18,0,0,1,.37-.89c.24-.45.06-1.59-.25-1.52a16.72,16.72,0,0,0-1.22,2.13,4.42,4.42,0,0,0-.86,2.13,16.29,16.29,0,0,1-.9,4.78c-.41.57-1.39,2.25-1.68,2.7s-.33,1.06,1,1.88,2.46,1.31,3.44.65a7.87,7.87,0,0,0,1.88-2.65m16.9-4.87c-.93.53-.53,2.25-.53,3.71s-2,1.45-3.17,1.19a4,4,0,0,0-3,.39c-1,.53-4.62,4.23-4.62,4.23l.79,1.46s3.53-1.82,4.72-1.82c.69,0,5.22.1,6.78.1,1.06,0,1.2-.27,1.33-1.72a3.49,3.49,0,0,1,2.91-2.78,23.36,23.36,0,0,1,2.77.27,3.7,3.7,0,0,0-2-1.46,7,7,0,0,0-3.18.66c-1.06.4-1.85,2.91-2.64,3.44s-3,.13-4.23.13a22.83,22.83,0,0,0-4.5,1.2,34.46,34.46,0,0,1,3.18-2.65c1.19-.79,3.17-.4,4.63-.93s1-3.43,1-4.36,3.31-2,3.31-2l-.27-.39ZM372.06,92.52s1.72-.4,1.72.53a26.27,26.27,0,0,1-1.19,5.54c-.4.8-1.85,1.33-1.85,1.33l-.13.66,10.7-3,.4-2.78a13.16,13.16,0,0,1-3,2.78,3.75,3.75,0,0,1-2.38.4l.53-3.44a8.44,8.44,0,0,1,1.59.13c.39.14.66.93.66.93l.66-3.44a3.67,3.67,0,0,1-.93,1.06,2.81,2.81,0,0,1-1.58.53l.66-2.25a6.66,6.66,0,0,1,2.51-.8c1.06,0,.79,1.06.79,1.06l.93-.13.66-3s-3.31,1.06-5.29,1.72-5.42,1.85-5.42,1.85Zm-2,2.64L368,97.28l1.19,2.24,2-2.51Zm-14.68,2v.53H357c.53,0,.53.66.26,1.72s-.66,4.89,4.76,3.31,4.36-5.29,4.5-5.82.4-2,.4-2l1.58-.53v-.66l-5.16,1.45v.4s1.32-.53,1.32-.13-.45,2.73-.66,4.22c-.26,2-3.69,3.57-3.57,1.59s.67-4,1.07-4.36a5.36,5.36,0,0,1,1.18-.79v-.66a21.07,21.07,0,0,1-2.37.92,28.7,28.7,0,0,1-4.9.79M344.3,99l-.14.53s1.33.13,1.06,1.33a28.12,28.12,0,0,1-1.19,3.3c-.26.79-2,1.06-2,1.06l-.13.39s6.21-.13,8.46-.52,3.17-.66,3.17-.66l.53-2-.53-.13a5.32,5.32,0,0,1-1.05,1.19c-1.2.93-4.64,1.06-4.64,1.06l.93-2.38a3.41,3.41,0,0,1,1.72,0,1.83,1.83,0,0,1,.93.92l1.19-3.44s-1.19,1.59-1.72,1.59-1.85-.13-1.85-.13l.66-1.85a5.79,5.79,0,0,1,2.91-.67,1.66,1.66,0,0,1,1.19,1.33l.52-2.12s-4.62.79-5.68.93-4.36.26-4.36.26m-6.09,1.46c0,.79-.13.92-.79,2.38-.39.87-.4,1.45-1.45,1.85a5.79,5.79,0,0,1-1.85.4l-.27.52h7.27v-.52l-1.45-.27,2.11-5.16,1.72-.13.14-.66-7.14.27v.66s1.71-.14,1.71.66M328,99.79l-2.51,5a7.5,7.5,0,0,0,2.91.27,3.25,3.25,0,0,0,2.11-2.25c.14-.79.93-2.51.14-2.65s-2.65-.39-2.65-.39m-5-.8s1.06.14.79.8a25.43,25.43,0,0,1-2.25,4.23c-.66.79-2.77,1.06-2.77,1.06s5.57.52,6.22.66c1.19.26,7.4.65,8.85-1.72,1.12-1.82,1.19-3.57.13-4.1s-8.59-1.33-10-1.33-.93.4-.93.4m24.2-37c-1.33-7.15-4.68-8.83-7.81-9.92-4.06-1.42-14.14.79-15.46.93s.79-3.31-2.12-5.43c-1.15-.84-3.83,0-3.83,0l-1.72-1.32a4.1,4.1,0,0,0-4.1-1.58,26.22,26.22,0,0,0-4.36,1.71c-.8.4-5.16,0-6.08-.39a2.28,2.28,0,0,0-1.86.13,11.69,11.69,0,0,0,1.2,3,15.46,15.46,0,0,0,3,2.38c.53.14,3.71-.39,4.9-.26s1.58,2.51,1.58,2.91-.79,2-.92,2.91,1.32,3.17,2,3.83.27,1.06-1.32,1.19-1.32,2-1.32,2A8.31,8.31,0,0,0,307.28,63a1.69,1.69,0,0,0-1.72.4l.13-1.19c.13-1.19-1.19-2.77-1.72-3.17s-2.38-1.72-2.64-2.78-.53-1.59-1.06-1.19-.4,1.85-.4,1.85l-.52.93-.66-.27.26,1.72-.66-.13.26,1.72h-.66a11.15,11.15,0,0,0,.4,1.58,11.15,11.15,0,0,0,.92,2.39,18.44,18.44,0,0,1,.8,2.64,1.08,1.08,0,0,1-.8,1.59c-.92.13-.66-.93-.79-2s-1.19-2.11-1.19-2.51-1.06-.79-1.45-.79-1.2-.93-1.2-.93-.26.93-.66.53a8,8,0,0,0-1.45-.93s-.26.93-.92.14a1.65,1.65,0,0,0-1.46-.66l.13,1.05a2.61,2.61,0,0,1-1.19-.39c-.66-.4-2.91-1.85-2.91-1.85s.13,1.19-.53.66a7.57,7.57,0,0,0-2.11-.93,7.32,7.32,0,0,0,.79,2.51c.66,1.19,0,1.06.66,2a3.24,3.24,0,0,0,1.59,1.18l-.13.54,1.06,1.19a.83.83,0,0,0,.13,1.19c.66.53,1.19.92,1.19.92s-.27,1.45.79,1.72,1.32,0,1.32,0-.39.92.4.92a8.19,8.19,0,0,0,2-.39v.79a9.83,9.83,0,0,1,1.19-.27,8.45,8.45,0,0,0,2.51-1,3.06,3.06,0,0,1,1.86-.27c.66,0,.13,1.19,0,1.59s-.93.53-.93.53h-1.32c-.53,0-1.19.4-2,.53s-.92.26-1.58.39-1.45.27-1.85.4a3,3,0,0,1-1.59,0c-.79-.13-.66.53-.66.53a13.08,13.08,0,0,1-1.59-.26c-.39-.14,0,.79.4.92s.93,1.19.93,1.19.52,1.06.92,1.19a7.27,7.27,0,0,0,1.86.4c.52,0,0,.79,0,.79s1.18.13,1.71.26S292.07,81,292.87,81a6.37,6.37,0,0,1,2,.53l.4.79c.39.8.92,1.2,2.24.93s3.18-.66,3.18-.66l-.66.93c-.66.93-.93,2.91-.4,2.91s2.38.26,2.38.26.92,0,.9.47c-.05.79-.93.8-2.12.8a5.67,5.67,0,0,1-2.25-.53l-.66.66s-.92-.66-1.45-.4-.4,1.45-.79,1.45-1.19-.13-1.59.27a5.7,5.7,0,0,0-.79,1.32,1.62,1.62,0,0,0,.26.8l.53.79s-.66,0-.66.53,2.51.93,2.51.93v1c0,.66,1.59.27,1.59.27a.76.76,0,0,0,.79.52c.66,0,1.32-.79,1.32-.79a.65.65,0,0,0,.66.66,1.61,1.61,0,0,0,1.06-.39s.53,1.18,1.33.39.78-1.32,1.45-1.45a25.47,25.47,0,0,1,3.3.4c.53,0,.93.79,1.46,1.58s1.71.53,1.71.53V98c0,.93,1.73,1.72,2.25,1.72a23.12,23.12,0,0,0,3.57-.93c.8-.26,1.33.93.53,1.06s-4.62,1.46-4.62,1.46l1.32,4.1,5.55-2.64-.79-2.25a11.27,11.27,0,0,0,3-.8c.92-.52,1.58-3.57,1.58-3.57s17.32,1.06,23.8.27,14.94-3.7,17.85-4.49,25.52-8.47,27-8.6,3.17,1.46.13,2.38-7.67,2.51-7.67,2.51l-.66,4.23s3.17-3.57,4-4.23.66,0,.66.66a30,30,0,0,1-1.46,5.69,1.71,1.71,0,0,1-1.71,1v.8s2.51-.66,3.83-1.19,4.23-1.32,4.23-1.32v-.66s-2.11.66-2,.13.92-4.76,1.06-5.42a1.54,1.54,0,0,1,1.18-1.19c.54-.14,1.19.92,1.19,1.58v1.72l2-.39v-.54l.93-.13.39.93a2.78,2.78,0,0,0,1.85.66c.93-.13,2.65-.66,3-1.46a1.51,1.51,0,0,1,1.46-.66,2,2,0,0,0,1.85.8c1.05-.27.79-.4,1.19-.66a3,3,0,0,1,1.32-.4c.66-.13.93,1.59.93,1.59a10.3,10.3,0,0,0,1.32.13c.52,0,.52-.93.92-.93s1.32,1.2,2,1.72,1.59,1.46,2.51,2.38,6.48,7.41,6.48,7.41l.79,3.43a71.91,71.91,0,0,0-9.12-8.19c-5.42-4.1-16.4-.66-19.7.26s-35,12.17-46.67,13-32.66-.79-35.3-.93-13.88-.92-16.53-1.19a75.06,75.06,0,0,1-7.53-1.45l2,5s31.6,3.44,45.56,2.89,17.16.92,45.23-8.32c25.95-8.53,25.73-7.2,30.38-5.76,2.94.91,6.32,4.54,7.76,5.76s-.38,3.83-2.22,2c-2.1-2.11-7-6.66-13.52-5.21a48,48,0,0,0-11.42,4.1l1.55,2.44s9-4.32,12.64-3.44,7.65,2.44,9.09,5.21,4.1,4.32,6.77,2.33,2.88-5.32,3-6.43a37.33,37.33,0,0,0-.67-5.21s1.77,2.55,2.33,3.1,2,1.89,2,1.89l-.66.55a2.45,2.45,0,0,0-1.33,1.11c-.34.78,1.11,3.55,1.11,5v2.66l1.22,2.11s2.66.1,4,.33,3.88,1.44,6,.33,1.67-2.33,1.67-2.33l1.33-2.21a85.64,85.64,0,0,0,8.42,2.44,86.1,86.1,0,0,0,10,.77,3.07,3.07,0,0,0,2.66-2.44,2.36,2.36,0,0,0-.33-2l5.21-3.22s2.43.67,3,.34a13,13,0,0,0,2.55-2.89c.33-.66-.33-3.1-.33-3.1l1.77-1.44s-.11,3.66-.11,5.43a4.46,4.46,0,0,0,1.55,3.77c1,.77,5.33,2.55,7.21.89s7-7.32,12.64-5.88a48.63,48.63,0,0,1,9.31,3.32l2-3.32s-8.86-4.66-12.86-4.1-9.75,2.77-11.86,5.65c-.94,1.3-4.77.12-2.44-1.88,2.15-1.84,9.62-7.93,15.19-6.87,6.43,1.21,30.85,9.45,33.59,10.19,10.64,2.89,30.29,5.07,37.24,5.66,15.64,1.33,41-2.89,41-2.89l4.71-5.93s-9.19,1.8-13.09,2.22c-3.42.37-22.38,3.38-43.08,1a244.69,244.69,0,0,1-48.77-11.51c-11.82-4.12-16.56-2.54-22.06.64-5.77,3.34-8.91,9.63-8.91,9.63a14.57,14.57,0,0,1,.28-2.59,25.38,25.38,0,0,1,1.24-2.92c.53-1.06,2.53-3.49,3.27-5s3.27-7.7,3.59-9,1.37-3.91,3-5,12.36-.21,15,.32,23.44,7,34.52,9.7a130.14,130.14,0,0,0,24.28,3.39c.63-.11,1.37.73.95,1.37a1.08,1.08,0,0,1-1.16.42v.53s2.11.74,2.54.84,1.79,4.54,2.21,5.6-1.27.95-1.27.95v.63l6.76-.1-.21-.53s-1.59-.22-1.69-.74-.53-2.33-.53-2.33,1.48,1.17,2.64,1.9a4.19,4.19,0,0,0,2.85.32l.11.63-1.38,1,7.18-.21-1.79-.85-.85-2.85,1.38-1.9,1.69.21,1.05,1.69,1.38-.21-2-4.23-3.06-.31s-.42-1.06,0-1.06a24,24,0,0,1,2.65.11,6,6,0,0,1,2.21.95c.43.32,2.85,3,2.85,3l-1.8,2.11,3.6,3,2.74-3-2.32-2.22.74-.85-1.69-2.74s4.75.53,5.28.53.32-1.69.32-1.69a3,3,0,0,0,1,.32,1.09,1.09,0,0,0,.74-.43l1.16.43s.85-.32,1-.64a13.23,13.23,0,0,0-.85-2.64l5,1.38-10,6.12,5.38,1.69,12.78-7,1.79-6.65s-5.49,3-6.34,3.17-2.21-1.16-2.21-1.16,2.85-3.28,3.59-4.23a10.25,10.25,0,0,0,1.26-2.85s-3.9,1.59-4.53,1.69-3.06.85-3.06.85.1-1.69.21-2.22l.73-3.8a17,17,0,0,1-2.53,1c-1.47.42-5.91,2.43-5.91,2.43L592,79.78a30.33,30.33,0,0,1,3-.84,36.72,36.72,0,0,1,5.28-.22,26.05,26.05,0,0,1,5,.85s.21-.53-.53-1.59-2.42-1.16-3.37-1.58a19.73,19.73,0,0,0-3.59-.74,18.68,18.68,0,0,1,2.84-1.9A43.09,43.09,0,0,1,605,72.39c1-.21,2.85-1.27,1.37-1.69a16.29,16.29,0,0,0-4.54-.21,28,28,0,0,0-4.43.63s3-1.37,4.33-2.11,4.12-1.37,5.07-1.8,2.32-.63.94-1.16a18.18,18.18,0,0,0-5.8-.63c-1.48.11-4,.63-4,.63s.43-2.74.64-3.37S600,58.45,600,58.45l-1.9-.73L594,61.62l-.74-3.38-1.69,1.16L590,63.94s-1.37-.84-1.8-1.16a6.22,6.22,0,0,1-1-1.9l-1.27.53s.85,2.53,1,3.27a13.84,13.84,0,0,1,0,2.11l-1.37-.1-.43-.32a4.54,4.54,0,0,1-1-1c-.32-.42-1.06-.32-1.69-.32a1.92,1.92,0,0,1-1.06-.31A27.09,27.09,0,0,1,583,62.15c.74-.95,2-3,2-3l-1.7-.63a14.8,14.8,0,0,0-2.1,1.27,52.78,52.78,0,0,0-4.64,3.9c-.43.64-1.06.85-1.06.42s-.11-4-.11-5.06a3.21,3.21,0,0,0-1.16-2,8.76,8.76,0,0,0-.85,2.22c-.1.84-.42,5-.42,5.38s-.32,1.27-.63.95-1.05-.73-2.11-1.79-2.43-2.33-2.43-2.33l-2,.75a14,14,0,0,0,.74,1.68c.53,1.06.63,3.91.63,5s-.26,3.59-.26,3.59c0,.27-.83.69-1.26,0s-1.16-2.38-1.44-2.8-.75-1.35-.89-1.59,0-.74-.56-1.25-.93-.33-.93-.33l-.19-.24c-.18-.22-3.26-2.28-5.36-2.14a24.62,24.62,0,0,0-5.35,1.54,12.71,12.71,0,0,1-3.41,1.07c-.33-.09-1.4-.69-1.91-.84s-2.8.75-3.41,1-.74-.14-.65-.51,1.17-2.47,1.17-2.47a2.75,2.75,0,0,0-.7-.38c-.32-.09-.38-.65-.38-.65s.19,0,2.34-7.27-1.73-16.93-1.93-17.4c-1.32-3.06-5.36-8.3-5.36-8.3a1.69,1.69,0,0,1,.37-.74c.28-.28.65-1.23,1.1-1.43s3.72-2.25,5.08-2.78,4.2.49,5.64.69,1.63-.94,1.67-2.24.37-1.8.86-2.13a28.53,28.53,0,0,1,3.4-1.19l-.05-.43s-3.7.79-4.75,1.19-1.33,1.85-1.33,2.51-.13,1.06-1.72.66a27.45,27.45,0,0,0-3.44-.79,32.75,32.75,0,0,0-4.89,2.25c-.39.26-.79,0-.92-1.06A6.85,6.85,0,0,0,536.13,21a5.29,5.29,0,0,1-1.19-3.17V15l-2.11-.79s-1.33,2-1.72,2.38a23.2,23.2,0,0,0-2.38,2.64,11.33,11.33,0,0,0-.41,3.28A5.81,5.81,0,0,1,527,21c-.27-.66.4-2.11.4-3s-.27-2.51-.27-3.3a9.25,9.25,0,0,0-.27-1.86L525,12.13a5.23,5.23,0,0,1-.53,1.19,28.79,28.79,0,0,1-1.72,2.51,8.39,8.39,0,0,0-.93,1.59,27.78,27.78,0,0,0-2.9-2.11,6.27,6.27,0,0,0-1.59-.53A6.85,6.85,0,0,0,516,12.93a6.31,6.31,0,0,0-2.25-.8,15.36,15.36,0,0,1-2-2.11c-.45-.79-2.21-.35-2.21-.35-.72-1.43-.78-1.32-1.09-1.64-.53-.52-1.59-.26-1.59-.26s-.28-.52-.67-1.12c-.62-.94-2-.47-2-.47s-.53-.79-.93-1.32-1.18-.53-1.72-.53a5,5,0,0,0-.92-1.45c-.4-.27-1.06-.53-1.19.52a6.7,6.7,0,0,0,.4,2.91c.26.8,1.71,1.07,2.11,1.07s.4.52.79,1.45a2.73,2.73,0,0,0,2.2,1.26c.44.06.45.59,1,1.64s1.32.66,2.24,1.06.14,1.06.93,2a2.2,2.2,0,0,0,2.12.79c.66,0,.52,1.06,1.19,1.85a2.2,2.2,0,0,0,1.71.93c.41,0,.93.79,1.46,1.58A3.73,3.73,0,0,0,517.75,21l-.66.66a12.25,12.25,0,0,1-2.91-.13,2.57,2.57,0,0,0-1.58,0,10.59,10.59,0,0,0,.8,1.32c.39.53,1.71,2.25,1.71,2.25L513.92,25a11.29,11.29,0,0,1-3.17-1.32s-1.06.13-.79.92a20.58,20.58,0,0,0,2,3.17c.26.4-.57.87-1.76.74a12.07,12.07,0,0,1-2.87-1,9,9,0,0,0-2.65,0c-.65,0-2,2-2.64,2.24a22.08,22.08,0,0,1-2.51,1.2c-.92.26-1.72-.14-3.57.79s.4,4.1.13,4.76-1.58,1.45-.79,2.12a18.33,18.33,0,0,1,2.25,3.3,4.23,4.23,0,0,1-2.78,2.51c-2.38.93-2.51,3-2.78,4.36s.53,4.9.53,4.9l1.85-.53A13.55,13.55,0,0,0,495,51c.14-.8.66-1.46,4-1.2s3.7-1.06,4.23-2.38,1.45-4.49,2.12-4.89a2.75,2.75,0,0,1,2.51-.26,3.42,3.42,0,0,0,3.57-.79c.93-1.06,1.72-1.33,2.51-1.06A7.72,7.72,0,0,1,516,42.28a5.62,5.62,0,0,0,.53,2.24c.52,1.06,2.38,1.59,2.38,1.59l.13,2.64-1.59.27s-1.19.79-1.45,1.45-2.78,2.12-2.78,2.12a15.9,15.9,0,0,1-1.06-2.38,13,13,0,0,0-1.72-2.78l-2.9.13a35.15,35.15,0,0,0-.14,4.24,47.51,47.51,0,0,1-.53,5.81l1.46,1.85a26.48,26.48,0,0,1-9.12-.79c-2.73-.66-10.58-4.1-10.58-4.1s-.79-2.77-1.06-3.43-1.46-4.37-1.46-4.37l3.18-3.17c.53-.53,2.91-3.31,2.91-3.31h-3.18c-.39,0-2.11-.13-2.11-.13s1.32-2,2-3,2.77-5.29,2.77-5.29a18.31,18.31,0,0,0-3.31,1.06,22.31,22.31,0,0,1-2.77,1.32s.4-3,.52-3.7.67-3.44.67-3.44-2.78,3.17-3.31,4-1.19,1.32-1.32.79-.79-7.53-.79-7.53l-5.69,7.4-4.22-3.18s.52-1.18.12-1.71a10.91,10.91,0,0,0-.92-1.06L473.07,24s1.58.66,2.24-.39-.79-1.59-.79-1.59l.66-.66s2.12,1.06,2.78-.93c.41-1.23-1.32-2-1.32-2l.39-.66s2.38.53,2.38-2.51c0-1.72-2.51-.8-2.51-.8l-.53-.79s1.86-1.59.13-3c-1.21-1-3.17.4-3.17.4l-.26-.4v0a1.68,1.68,0,0,0-.94-2.35c-1.71-.66-2.51,1.45-2.51,1.45v0c0-.3.1-2.06-1.6-1.94a2,2,0,0,0-1.85,2h-.53s.14-1.19-1.45-1.32-1.59.8-1.59.8l-.4-.53-.78-2s-.8.66-1.33,1-3,2.74-3,2.74l.06-7.85-1.78.28.4-1.91L443.45.5l.27,2.31-1.86-.46-.13,7-3.45-2.64-2,3-.74-.11a2,2,0,0,0-2.38-1.72c-1.45.09-1.45,2-1.45,2H431s0-2.45-2.23-2.19S427.72,10,427.72,10h-.53a2.18,2.18,0,0,0-2.51-.66c-1.46.66-.4,2.37-.4,2.37l-.4.14s-.66-1.46-2.37,0,.39,2.64.39,2.64l-.39.53s-1.93-.34-2,1.33a2,2,0,0,0,2.38,2.11l.14.66s-2.12.13-1.59,1.85,3,1.06,3,1.06a2.39,2.39,0,0,0-.13,1.85c.39.79,2.24.66,2.24.66l1.85,2.12a11.28,11.28,0,0,0-.65,1.19c-.4.79,0,1.19,0,1.19s-2,1.05-1.6,2.11-.65.92-1.84.13-2.78-3.17-3.31-3.83-1.85-2.11-1.85-2.11a2.92,2.92,0,0,0-.26,1.18c0,.67-.14,6.75-.14,6.75a47.53,47.53,0,0,1-4-2.78,4.44,4.44,0,0,0-1.85-.93A21,21,0,0,0,413.05,33c.52,1.06,1.84,4.5,1.84,4.5a27.63,27.63,0,0,0-2.64-1.19l-4-.93a6.53,6.53,0,0,0,1.32,2.77c.92.93,3.57,4.77,3.57,4.77l-4.1.66,4.63,5a15.76,15.76,0,0,1-.66,2.65c-.27.4-1.06,3.17-1.33,3.83s-4.1,2.51-5.15,2.65-1.06-.4-1.46-1.33a12.93,12.93,0,0,0-1.85-3.57c-.79-.79-3.17-2-3.7-2.64s-.4-2.38-.66-2.91a26,26,0,0,0-1.85-2.78c-.79-1.05.13-2,1.19-1.45s1.18,1.72,2.24,3.3a5.29,5.29,0,0,0,3,2s-.53-.93-1.06-2,.27-2.64-.13-3.3a22.22,22.22,0,0,0-2.52-2.51l1.06-2.25s-1.59-.66-2.51-.93a8.08,8.08,0,0,1-2.64-1.71c-.79-.66-1.46-1.06-.66-1.06a13,13,0,0,0,2.9.26,9.43,9.43,0,0,0,2.78-.66,11.42,11.42,0,0,0-1.72-.92c-.93-.4-2.11-2.25-2.11-2.25A3.18,3.18,0,0,0,398,29.85a10.34,10.34,0,0,1,.8-1.46l-1.59-.52a17.13,17.13,0,0,1-3.31-1.19c-.79-.53-.13-.8-.13-.8a12.89,12.89,0,0,0,2.25-.26c1.32-.26,1.58-3.17,1.58-3.17l-.79-.4a23.11,23.11,0,0,1-2.51,1.06,5.67,5.67,0,0,1-2.51.13s-1.06-.79-1.06-1.33.93-1.18.93-2.11a2.31,2.31,0,0,0-.8-1.58,12.67,12.67,0,0,1-2.11,1.32,5.56,5.56,0,0,1-2.51.26c-.93,0-.8-.26-3.84-.4s-1.59.14-2.25.66a7.59,7.59,0,0,1-1.58.93,1.83,1.83,0,0,1-.39-1.32,11.45,11.45,0,0,0,.39-2.25c0-.79-2.51-2.64-2.51-2.64a4,4,0,0,0,.26-2.25c-.26-1.06-2.64-.66-2.64-.66l-.14-.66s1.46-1.85.4-2.91-2.78.13-2.78.13-.13-2.12-1.45-2.25-1.59,1.72-1.59,1.72l-1.45.53s-.53-.92-2-.4,0,2.65,0,2.65l-.66.53a1.6,1.6,0,0,0-1.71.79c-.66,1.06.39,2.25.39,2.25l-1.05-.14s-.4-1.45-.53-2.11-.4-1.59-.4-1.59l-.39.53c-.4.53-1.73,1.85-1.73,1.85l-1.32-.4,1.85-4-8.19,4.1L354.48,14l-.66,1.72s-2.78-.66-3-.13,1.32,2.12,1.32,2.12h-1.59s-.13-1.32-1.72-.8-.79,1.46-.79,1.46l-1.06.53a1,1,0,0,0-.79-.53c-.53,0-.66-.8-2.12,1s1.32,2.12,1.32,2.12l-.13,1.32S343.11,24,343.77,25s2,.26,2,.26l1.06.66s-.4,1.33.66,1.59a.86.86,0,0,0,1.19-.66l.79.4s-.39,1.05.4,1.18a3.6,3.6,0,0,0,1.32,0s-1.45,2.65-2.38,4.24-2.25,5.28-2.64,5.95,0,1.18.66,2a6.5,6.5,0,0,0,2.11,1.85c.66.26-.26.66-.39,1.46a1.34,1.34,0,0,0,.26,1.18,6.9,6.9,0,0,0-.66,2.78c.13,1.06,2.25,2.91,3.17,3.31a9.77,9.77,0,0,1,2.38,1.32c.66.53,1.45,2.37,2.12,2.11s0-3.56,0-3.56a15.38,15.38,0,0,0,2.12-1.59c.26-.4.78-.13.52.79a6.74,6.74,0,0,0-.26,3.17,3.76,3.76,0,0,0,2.51,2c.8,0-1.32,1.45-1.85,1.72s-3.19.24-4.1,1c-1.19,1.06-2.38,2.52-4.1,2.78s-1.85.26-1.85.26.13.4,1.06.93,2.65.39,4.36-.4,2.38-1.45,3.71-1.45,2.24.79,1.72,1.06-2.26.92-2.65,1-1.46.93-1.86.93a25.09,25.09,0,0,0-4,1.45c-.79.4-2.11,1.06-1.85,1.45a35,35,0,0,0,4.5,2.26A4.25,4.25,0,0,1,352.36,70c-.93.53-3.57.4-3.44.92a8.88,8.88,0,0,0,.8,1.59,5.88,5.88,0,0,1-2-.13c-1.06-.26-1.58-2.11-1.58-2.11s2.3-1.6,1.06-8.33m-60.72,28.1s7.41,4.5,9.79,5.69,12.29,5,12.29,5l-6.74,2.38c-8.63-4-4.1-1.79-8.2-3.83-1.58-.8-5-2.78-5-2.78Z" transform="translate(-0.5 -0.5)"/></svg>