<svg id="Layer_1" data-name="Layer 1" xmlns="http://www.w3.org/2000/svg" viewBox="0 0 334.98 180.96"><defs><style>.cls-1{fill:#fff;}</style></defs><title>wall-street-journal</title><path class="cls-1" d="M21.37,25.92l-9-1.4H11.7v-6.9H60v6.9H58.69c-5.54-.69-8.3,1.4-8.3,6.9v3.46L71.1,141.27,83.54,71.49l-6.9-35.22c-1.39-9-4.83-12.44-11.06-11.75h-.71v-6.9h47v6.9h-.67c-7.6-.69-11.06,2.08-11.06,8.3l20.73,107.75h1.37L140.87,38.34V34.2c0-7.6-3.47-10.37-11.06-9.68h-2.06v-6.9h40.71v6.9h-2.05l-9.67,1.4-6.21,13.79-32.46,154h-9.66l-20-100.85L67.64,193.74H57.28L26.2,36.27Z" transform="translate(-11.7 -13.49)"/><path class="cls-1" d="M240.3,15.55V76.32h-6.21V74.25q0-51.79-29-51.79c-13.12-.69-20,6.21-19.35,21.41A37.89,37.89,0,0,0,192.67,66l20.71,18.65,25.55,25.56c6.91,10.35,10.36,23.47,10.36,38,0,29-13.8,43.52-40.75,43.52-10.36,0-20.71-3.47-31.07-11.06L173.31,191h-4.84V129.52H174v2.07c0,18.64,4.13,32.46,11.74,42.12,6.23,6.91,13.11,10.37,20.72,10.37,15.9,0,24.18-9,24.18-27.64q0-25.89-31.09-49.72C178.14,90.83,167.1,73.57,167.1,53.54c-.69-12.45,3.48-22.11,11-29,6.23-7.59,14.53-11,24.87-11s19.36,3.44,28.33,11l4.82-9Z" transform="translate(-11.7 -13.49)"/><path class="cls-1" d="M288.67,150.23c0,10.35-4.83,15.88-15.19,16.57l4.81,13.13a17.4,17.4,0,0,0,13.83,6.21l12.43-5.53L308,161.29V34.88c-.71-6.89-3.46-10.35-9.66-10.35H293.5V17.62h53.17v6.91h-4.82c-6.21,0-9.68,3.46-9,10.35V156.44c-.71,24.88-13.84,37.3-39.38,38-9-.71-16.6-3.45-21.43-9.69-7.58-7.6-11-16.58-11-28.32l5.53-13.81,9-4.83c7.58,0,12.42,4.14,13.12,12.43" transform="translate(-11.7 -13.49)"/></svg>