<svg id="Layer_1" data-name="Layer 1" xmlns="http://www.w3.org/2000/svg" viewBox="0 0 100 16.22"><defs><style>.cls-1{fill:#fff;}</style></defs><title>west-elm</title><path class="cls-1" d="M45.93,0c.17-.06.41-.08.5.11a2.26,2.26,0,0,1,.13,1c0,.72,0,1.43,0,2.15a.54.54,0,0,0,.51.58c1,0,2,0,3,0,.41,0,.47.51.45.84s-.06.69-.41.72c-1,0-2,0-2.92,0a.61.61,0,0,0-.61.43,6.78,6.78,0,0,0,0,.78c0,1.76,0,3.52,0,5.28A2.66,2.66,0,0,0,47.18,14a2.22,2.22,0,0,0,1.85.42c.37,0,.71-.23,1.08-.28s.41.23.42.45c0,.4.08.95-.35,1.15a4.51,4.51,0,0,1-3.58.21,2.56,2.56,0,0,1-1.44-1.58,9.82,9.82,0,0,1-.41-2.9c0-1.73,0-3.46,0-5.18a.72.72,0,0,0-.26-.62c-.45-.26-1,.06-1.44-.24a1,1,0,0,1,0-1.31c.4-.32,1,0,1.41-.24a.59.59,0,0,0,.28-.51c0-.78,0-1.56,0-2.34.09-.55.69-.76,1.15-.95Z" transform="translate(0 0)"/><path class="cls-1" d="M76.4.42a13.77,13.77,0,0,1,1.44,0,2.66,2.66,0,0,1,1,.1.59.59,0,0,1,.27.59V15.15c0,.22,0,.51-.25.6a1.6,1.6,0,0,1-1.12,0c-.24-.09-.29-.38-.28-.61V2.54a.7.7,0,0,0-.35-.7c-.31-.12-.7,0-1-.21S75.85.5,76.4.42Z" transform="translate(0 0)"/><path class="cls-1" d="M34.62,3.79a6.2,6.2,0,0,1,3.45.53.62.62,0,0,1,.35.79c-.13.32-.31.75-.72.74s-1-.35-1.47-.45a2.37,2.37,0,0,0-2.38.51,1.75,1.75,0,0,0,.33,2.41c1.21,1,2.9,1.19,4,2.32a3.23,3.23,0,0,1,.27,4,3.85,3.85,0,0,1-2.72,1.55,8.31,8.31,0,0,1-3.62-.55c-.28-.12-.62-.27-.7-.6a1.22,1.22,0,0,1,.38-1,.65.65,0,0,1,.75,0,5.59,5.59,0,0,0,3,.6A1.85,1.85,0,0,0,37.11,13a1.6,1.6,0,0,0-.65-1.4,29.6,29.6,0,0,0-3-1.65,3.62,3.62,0,0,1-1.69-2A3.34,3.34,0,0,1,33,4.42a3.8,3.8,0,0,1,1.59-.63Z" transform="translate(0 0)"/><path class="cls-1" d="M26.19,13.49c-.45.19-.84.48-1.3.65a4.61,4.61,0,0,1-3.27.18,3,3,0,0,1-1.72-1.79,5.71,5.71,0,0,1-.36-2.28.58.58,0,0,1,.67-.45c1.76,0,3.52,0,5.28,0a.89.89,0,0,0,.84-.46,4.45,4.45,0,0,0,.09-3.61,3.07,3.07,0,0,0-1.64-1.61,6.09,6.09,0,0,0-3.25-.26A4.6,4.6,0,0,0,19.43,5a4.1,4.1,0,0,0-1,1.35,9.54,9.54,0,0,0-.64,4.9,6.59,6.59,0,0,0,1.36,3.51,4.48,4.48,0,0,0,2.77,1.41,6.92,6.92,0,0,0,3.87-.7,1.48,1.48,0,0,0,.72-.53,2.17,2.17,0,0,0,.07-1.13C26.57,13.6,26.38,13.39,26.19,13.49Zm-5.79-7a2.76,2.76,0,0,1,1.72-1,2.8,2.8,0,0,1,2.33.46,1.67,1.67,0,0,1,.47,1.8.61.61,0,0,1-.59.42c-1.31,0-2.62,0-3.92,0-.23,0-.56-.06-.57-.34A2.12,2.12,0,0,1,20.4,6.44Z" transform="translate(0 0)"/><path class="cls-1" d="M70.91,13.46a3.53,3.53,0,0,0-.88.41,5,5,0,0,1-3.21.61,2.85,2.85,0,0,1-1.78-1,4.75,4.75,0,0,1-.92-2.75,1,1,0,0,1,.14-.78A1,1,0,0,1,65,9.8H70a.91.91,0,0,0,.87-.43A4.4,4.4,0,0,0,71,5.7a3.07,3.07,0,0,0-1.77-1.64,6.31,6.31,0,0,0-3.14-.19,4.74,4.74,0,0,0-2.29,1.32,6.37,6.37,0,0,0-1.42,3.7,8.56,8.56,0,0,0,1,5.3A4,4,0,0,0,65.83,16a6.65,6.65,0,0,0,5-.77c.43-.22.43-.74.42-1.16C71.19,13.84,71.16,13.53,70.91,13.46ZM64.82,6.71a2.77,2.77,0,0,1,1.84-1.26A3,3,0,0,1,69,5.9a1.66,1.66,0,0,1,.5,1.79.62.62,0,0,1-.55.45L65,8.17c-.25,0-.6-.05-.63-.35A2,2,0,0,1,64.82,6.71Z" transform="translate(0 0)"/><path class="cls-1" d="M.19,4.2a2,2,0,0,1,1.18-.27c.31,0,.38.42.44.68q.75,3.5,1.47,7a2.34,2.34,0,0,0,.27.86c.28.13.38-.28.47-.47C4.74,9.58,5.44,7.13,6.15,4.7a.84.84,0,0,1,.47-.62,1.47,1.47,0,0,1,1,0c.27.11.35.43.42.69C8.59,7,9.11,9.29,9.66,11.54a1.75,1.75,0,0,0,.41.93.87.87,0,0,0,.37-.58C11,9.46,11.63,7,12.25,4.61c.07-.29.22-.64.56-.67a1.59,1.59,0,0,1,1,.31c.23.22.13.56.06.83-1,3.47-2,7-3,10.42a1,1,0,0,1-1.48.4,1.69,1.69,0,0,1-.37-.79c-.59-2.27-1.18-4.53-1.75-6.79a1.05,1.05,0,0,0-.37-.63,2.79,2.79,0,0,0-.47,1c-.67,2.2-1.32,4.4-2,6.6-.1.26-.18.59-.47.7a1.35,1.35,0,0,1-.93,0c-.26-.1-.35-.4-.42-.65L.05,5c0-.26-.12-.61.14-.78Z" transform="translate(0 0)"/><path class="cls-1" d="M89.89,4a3,3,0,0,1,2.73.77,6.05,6.05,0,0,1,.68,1.09.27.27,0,0,0,.33.11,2.44,2.44,0,0,0,.49-.58A3.64,3.64,0,0,1,97,3.92a2.73,2.73,0,0,1,2.14.86A4,4,0,0,1,100,7.43V15c0,.28,0,.66-.33.75a1.35,1.35,0,0,1-1-.06.72.72,0,0,1-.28-.68V8.89a6.71,6.71,0,0,0-.21-2.32,1.69,1.69,0,0,0-1-1.1A2.26,2.26,0,0,0,95,6.06,5.17,5.17,0,0,0,93.69,8.7,15.92,15.92,0,0,0,93.51,12c0,1.08,0,2.15,0,3.23,0,.23-.08.53-.34.57a1.78,1.78,0,0,1-.86,0c-.3-.11-.32-.47-.32-.74V8A3.41,3.41,0,0,0,91.42,6a1.71,1.71,0,0,0-1.78-.48A3.06,3.06,0,0,0,87.84,7a6.77,6.77,0,0,0-.79,3.48c0,1.53,0,3.06,0,4.59,0,.24,0,.55-.24.68a1.29,1.29,0,0,1-1,0c-.24-.1-.29-.39-.29-.62,0-3.42,0-6.83,0-10.25,0-.26.06-.59.34-.68a1.1,1.1,0,0,1,1,.13c.29.38,0,.91.25,1.3.26.09.42-.2.58-.34A3.54,3.54,0,0,1,89.89,4Z" transform="translate(0 0)"/></svg>