<svg id="Layer_1" data-name="Layer 1" xmlns="http://www.w3.org/2000/svg" viewBox="0 0 56 23.61"><defs><style>.cls-1{fill:#fff;}</style></defs><title>youtube</title><path class="cls-1" d="M20.9,19.3H18.78V18.06a3.12,3.12,0,0,1-2.23,1.4,1.34,1.34,0,0,1-1.34-.87A5.21,5.21,0,0,1,15,16.92v-9h2.12v9.26c.05.3.18.42.45.42s.78-.37,1.23-1V7.9h2.12V19.3M13.4,11.62a4.52,4.52,0,0,0-.66-2.7,2.75,2.75,0,0,0-2.35-1.1A2.6,2.6,0,0,0,8,8.92a4.49,4.49,0,0,0-.67,2.7v4.07A4.15,4.15,0,0,0,8,18.29a2.89,2.89,0,0,0,2.37,1.2,3,3,0,0,0,2.4-1.2,4.45,4.45,0,0,0,.6-2.6V11.6Zm-2.1,4.3c.1,1.13-.25,1.7-.9,1.7s-1-.57-.9-1.7V11.4c-.1-1.13.24-1.66.9-1.66s1,.53.9,1.66ZM5,13.1v6.2H2.8V13.1S.47,5.46,0,4H2.35l1.57,6L5.48,4.05H7.82l-2.8,9" transform="translate(0 -0.2)"/><path class="cls-1" d="M42.74,9.7a1.68,1.68,0,0,0-1.05.52v6.86a1.48,1.48,0,0,0,1,.5c.6,0,.85-.42.85-1.55V11.17c0-1.13-.27-1.46-.86-1.46m8.36,1.36c0-1.05-.27-1.36-.94-1.36s-1,.3-1,1.35v1.25h1.9V11.08" transform="translate(0 -0.2)"/><path class="cls-1" d="M55.67,5.28A7.36,7.36,0,0,0,54.34,2,4.67,4.67,0,0,0,51,.53C46.33.2,39.32.2,39.32.2h0s-7,0-11.67.33A4.76,4.76,0,0,0,24.28,2,7.26,7.26,0,0,0,23,5.28a50.27,50.27,0,0,0-.34,5.44v2.55A50,50,0,0,0,23,18.7,7.28,7.28,0,0,0,24.28,22,5.56,5.56,0,0,0,28,23.47c2.67.26,11.35.34,11.35.34s7,0,11.7-.34a4.75,4.75,0,0,0,3.34-1.42,7.34,7.34,0,0,0,1.33-3.34A53.1,53.1,0,0,0,56,13.27V10.72A51.76,51.76,0,0,0,55.67,5.28ZM30,19.3H27.72V6.3H25.37V4.18h7V6.3H30v13Zm8.05,0H35.88V18.06a3.12,3.12,0,0,1-2.23,1.4,1.34,1.34,0,0,1-1.34-.87,5.21,5.21,0,0,1-.22-1.67V8h2.12v9.17c0,.3.18.42.45.42s.78-.37,1.23-1V8H38Zm7.7-3.38a9.32,9.32,0,0,1-.2,2.26,1.68,1.68,0,0,1-1.67,1.27,2.9,2.9,0,0,1-2.14-1.28v1.14h-2V4.18h2V9.1a2.94,2.94,0,0,1,2.15-1.27,1.62,1.62,0,0,1,1.6,1.3,7.61,7.61,0,0,1,.28,2.27Zm4.46,1.67a.87.87,0,0,0,.9-.83c0-.1,0-.6,0-1.42H53.2v.32A12.51,12.51,0,0,1,53.13,17a3,3,0,0,1-.47,1.23,2.8,2.8,0,0,1-2.45,1.22,2.87,2.87,0,0,1-2.44-1.16,4.21,4.21,0,0,1-.7-2.6v-4A4.65,4.65,0,0,1,47.75,9a2.9,2.9,0,0,1,2.42-1.18A2.83,2.83,0,0,1,52.57,9a4.69,4.69,0,0,1,.65,2.67V14h-4v2c0,1.05.3,1.57,1,1.57Z" transform="translate(0 -0.2)"/></svg>