<svg width="34" height="33" viewBox="0 0 34 33" fill="none" xmlns="http://www.w3.org/2000/svg">
<path d="M27.9534 6.49199H26.7557V0.220795L33.4031 2.46719L27.9534 4.2924V6.49199ZM27.9534 1.67159V3.26279L30.3489 2.46719L27.9534 1.67159Z" fill="#333333"/>
<path d="M5.97511 30.7812L5.55591 29.892C6.035 29.7516 6.63386 29.6112 7.3525 29.4708L7.65193 30.36C6.99318 30.5472 6.4542 30.6876 5.97511 30.7812Z" fill="#333333"/>
<path d="M11.1253 29.8452L10.9457 28.9092C11.6643 28.8156 12.4428 28.722 13.2214 28.6284L14.5389 28.4412L14.7185 29.3772L13.401 29.5644C12.6225 29.658 11.9039 29.7516 11.1253 29.8452ZM18.2518 28.8624L18.0123 27.9264C19.3298 27.7392 20.4676 27.5052 21.4857 27.318L21.7851 28.2072C20.767 28.488 19.6292 28.6752 18.2518 28.8624ZM25.3184 27.3648L24.8992 26.4756C26.0969 26.1012 27.1749 25.68 27.9534 25.212L28.672 25.9608C27.7738 26.5224 26.6359 26.9904 25.3184 27.3648ZM31.2472 23.7612L30.1692 23.34C30.4686 22.8252 30.6483 22.2636 30.6483 21.6084C30.6483 21.3744 30.6483 21.0936 30.5884 20.8596L31.7861 20.7192C31.846 21.0468 31.846 21.3276 31.846 21.6084C31.846 22.404 31.6065 23.1528 31.2472 23.7612ZM12.0835 19.5024L12.0236 18.5664C13.0417 18.5664 14.1795 18.4728 15.497 18.3324L15.6767 19.2684C14.3592 19.4088 13.1615 19.5024 12.0835 19.5024ZM8.31068 18.9876C7.05307 18.6132 6.035 18.0048 5.19659 17.1624L6.15477 16.6008C6.81352 17.3028 7.65193 17.8176 8.72989 18.0984L8.31068 18.9876ZM19.3298 18.7068L19.0902 17.7708L19.3897 17.724C20.5275 17.5368 21.6055 17.3496 22.6235 17.2092L22.8032 18.1452C21.7851 18.2856 20.7072 18.4728 19.5693 18.66L19.3298 18.7068ZM29.2709 18.66C28.6122 18.192 27.654 17.9112 26.3365 17.9112L26.3964 16.9752C28.0133 17.022 29.211 17.3496 30.1093 18.0048L29.2709 18.66ZM5.1367 14.3544L3.93898 14.2608C4.05875 13.3248 4.7175 12.4356 5.91523 11.5932L6.69375 12.2952C5.79545 12.9504 5.25648 13.6524 5.1367 14.3544ZM9.62818 10.7976L9.0892 9.9552C10.0474 9.5808 11.1852 9.2064 12.5027 8.832L12.9219 9.7212C11.6643 10.0488 10.5864 10.4232 9.62818 10.7976ZM16.2756 8.8788L15.9761 7.9896C17.114 7.7556 18.2518 7.5216 19.5094 7.2876L19.749 8.2236C18.5512 8.4108 17.3535 8.6448 16.2756 8.8788Z" fill="#333333"/>
<path d="M23.2823 7.662L23.1026 6.726C24.2405 6.5856 24.8992 6.492 24.8992 6.492L25.0789 7.428C25.019 7.428 24.3602 7.4748 23.2823 7.662Z" fill="#333333"/>
<path d="M3.4 32.7C1.72318 32.7 0.405682 31.6704 0.405682 30.36C0.405682 29.0496 1.72318 28.02 3.4 28.02C5.07682 28.02 6.39432 29.0496 6.39432 30.36C6.39432 31.6704 5.07682 32.7 3.4 32.7ZM3.4 28.956C2.38193 28.956 1.60341 29.5644 1.60341 30.36C1.60341 31.1556 2.38193 31.764 3.4 31.764C4.41807 31.764 5.19659 31.1556 5.19659 30.36C5.19659 29.5644 4.41807 28.956 3.4 28.956Z" fill="#333333"/>
</svg>
