<svg width="40" height="42" viewBox="0 0 40 42" fill="none" xmlns="http://www.w3.org/2000/svg">
<path d="M29.92 19.2713C29.92 16.5471 28.8706 13.9346 27.0028 12.0084C25.1349 10.0821 22.6016 9 19.96 9C17.3184 9 14.7851 10.0821 12.9172 12.0084C11.0494 13.9346 10 16.5471 10 19.2713C10 22.133 11.5 24.9431 12.71 27.1655C13.485 28.5989 14.15 29.8313 14.21 30.6253V35.1473C14.21 36.72 14.8158 38.2282 15.8941 39.3403C16.9725 40.4523 18.435 41.077 19.96 41.077C21.485 41.077 22.9475 40.4523 24.0259 39.3403C25.1042 38.2282 25.71 36.72 25.71 35.1473V30.6666C25.77 29.8313 26.435 28.6041 27.21 27.1655C28.415 24.9225 29.92 22.133 29.92 19.2713ZM15.21 32.6363H24.71V34.1831H15.21V32.6363ZM15.21 35.2144H24.71C24.7045 35.7415 24.615 36.2641 24.445 36.7613H15.46C15.2968 36.2629 15.214 35.7404 15.215 35.2144H15.21ZM19.96 40.0458C19.1633 40.0476 18.379 39.842 17.6798 39.4481C16.9806 39.0542 16.3891 38.4848 15.96 37.7925H23.96C23.5309 38.4848 22.9394 39.0542 22.2402 39.4481C21.541 39.842 20.7567 40.0476 19.96 40.0458ZM24.71 30.6253V31.605H15.21V30.5737C15.13 29.5425 14.415 28.1916 13.585 26.655C12.46 24.5255 11 21.87 11 19.2713C11 16.8207 11.944 14.4704 13.6243 12.7376C15.3046 11.0047 17.5837 10.0312 19.96 10.0312C22.3363 10.0312 24.6154 11.0047 26.2957 12.7376C27.976 14.4704 28.92 16.8207 28.92 19.2713C28.92 21.8494 27.485 24.5306 26.335 26.6653C25.505 28.2019 24.79 29.527 24.71 30.6253Z" fill="#333333"/>
<line x1="31.7226" y1="12.584" x2="37.7226" y2="8.58397" stroke="black"/>
<line x1="29.3536" y1="28.6464" x2="34.3536" y2="33.6464" stroke="black"/>
<line x1="9.67991" y1="10.3841" x2="3.67991" y2="5.38411" stroke="black"/>
<line x1="33" y1="17.5" x2="40" y2="17.5" stroke="black"/>
<line x1="23.584" y1="6.72265" x2="27.584" y2="0.72265" stroke="black"/>
<line x1="15.5192" y1="7.13736" x2="13.5192" y2="0.137361" stroke="black"/>
<line x1="7" y1="16.5" y2="16.5" stroke="black"/>
<line x1="7.15811" y1="23.4743" x2="1.15811" y2="25.4743" stroke="black"/>
<line x1="9.31235" y1="29.3904" x2="4.31235" y2="33.3904" stroke="black"/>
<line x1="32.2236" y1="19.5528" x2="38.2236" y2="22.5528" stroke="black"/>
</svg>
